<?xml version="1.0" standalone="no"?>
<!DOCTYPE svg PUBLIC "-//W3C//DTD SVG 20010904//EN"
 "http://www.w3.org/TR/2001/REC-SVG-20010904/DTD/svg10.dtd">
<svg version="1.0" xmlns="http://www.w3.org/2000/svg"
 width="1280.000000pt" height="1280.000000pt" viewBox="0 0 1280.000000 1280.000000"
 preserveAspectRatio="xMidYMid meet">
<metadata>
Created by potrace 1.14, written by Peter Selinger 2001-2017
</metadata>
<g transform="translate(0.000000,1280.000000) scale(0.100000,-0.100000)"
fill="#000000" stroke="none">
<path d="M1062 12314 c-7 -8 -18 -11 -24 -8 -6 4 -8 3 -4 -4 3 -6 0 -16 -7
-24 -8 -7 -13 -21 -11 -31 1 -10 -4 -17 -14 -17 -12 0 -13 -3 -5 -11 8 -8 8
-17 -1 -33 -6 -13 -11 -41 -11 -64 0 -22 -3 -38 -7 -36 -5 3 -8 0 -8 -5 0 -6
6 -11 13 -11 7 0 8 -3 2 -8 -6 -4 -10 -23 -10 -42 1 -19 -3 -43 -7 -52 -5 -10
-5 -18 -1 -18 4 0 7 -55 6 -122 -1 -85 2 -125 10 -130 8 -5 8 -8 1 -8 -7 0
-11 -23 -10 -60 0 -33 4 -60 9 -60 5 0 4 -7 -4 -16 -10 -13 -10 -17 2 -25 12
-7 12 -9 -1 -9 -13 0 -13 -2 -1 -9 11 -7 12 -13 3 -23 -9 -11 -9 -17 1 -27 9
-9 9 -14 -3 -21 -11 -7 -11 -10 -2 -10 7 0 11 -4 7 -9 -3 -5 0 -13 6 -17 8 -4
7 -9 -2 -15 -12 -8 -11 -11 1 -19 13 -9 13 -10 0 -10 -9 0 -11 -3 -5 -8 6 -4
10 -27 9 -52 0 -25 4 -48 10 -52 7 -5 6 -8 -4 -8 -13 0 -13 -1 0 -10 8 -5 10
-10 5 -10 -12 0 -12 -40 0 -60 4 -7 8 -49 8 -92 0 -47 4 -74 9 -66 5 9 7 5 6
-12 -2 -14 -7 -28 -13 -32 -6 -5 -6 -8 1 -8 7 0 11 -17 11 -40 0 -22 2 -42 5
-46 4 -3 4 -12 2 -19 -3 -7 -1 -16 5 -20 8 -4 8 -12 1 -26 -7 -13 -7 -19 0
-19 12 0 9 -22 -5 -32 -6 -5 -6 -8 2 -8 6 0 12 -8 12 -17 3 -75 7 -103 14
-103 4 0 4 -8 -1 -17 -7 -12 -5 -24 7 -42 9 -14 11 -22 4 -18 -7 5 -13 4 -13
-2 0 -6 6 -11 13 -11 8 0 7 -4 -3 -10 -8 -5 -10 -10 -4 -10 5 0 9 -18 8 -40
-1 -22 2 -43 7 -46 4 -2 6 -11 2 -19 -3 -9 1 -23 8 -32 12 -14 12 -16 -1 -8
-11 7 -10 2 4 -19 10 -16 13 -25 7 -22 -6 4 -11 0 -11 -9 0 -9 5 -13 11 -9 8
4 8 0 0 -15 -7 -11 -8 -21 -3 -21 4 0 8 -16 9 -35 1 -19 3 -51 3 -70 1 -19 7
-35 12 -35 7 0 7 -5 -1 -13 -8 -10 -7 -17 1 -25 9 -9 9 -12 -2 -12 -9 0 -8 -5
6 -15 11 -8 14 -14 6 -15 -10 0 -10 -5 -2 -20 6 -11 8 -20 5 -20 -3 0 -1 -10
6 -21 8 -15 8 -19 0 -15 -8 5 -8 0 -1 -19 6 -15 10 -41 10 -60 0 -19 5 -37 10
-40 6 -3 10 -12 10 -18 0 -7 -4 -6 -11 3 -9 12 -9 11 -3 -5 4 -11 7 -35 8 -52
1 -18 4 -33 8 -33 4 0 5 -9 3 -20 -2 -11 1 -20 8 -20 8 0 8 -3 -1 -12 -14 -14
-16 -32 -3 -24 5 3 9 -7 10 -22 2 -50 6 -77 15 -91 6 -9 5 -12 -2 -8 -6 5 -8
0 -5 -13 3 -11 8 -18 12 -16 3 2 6 -18 5 -45 0 -27 2 -49 5 -49 4 0 6 -23 6
-51 0 -28 3 -53 8 -56 4 -2 5 -9 2 -14 -4 -5 -1 -9 6 -9 8 0 8 -4 -1 -15 -10
-12 -10 -15 0 -15 7 0 10 -8 7 -20 -3 -12 1 -24 11 -30 10 -5 12 -10 5 -10
-15 0 -18 -30 -3 -30 7 0 7 -6 0 -19 -7 -14 -7 -22 0 -26 6 -4 8 -11 5 -16 -4
-5 0 -9 7 -9 9 0 9 -3 -2 -10 -11 -7 -11 -10 -2 -10 7 0 10 -5 6 -11 -3 -6 0
-15 7 -20 8 -5 9 -9 3 -9 -11 0 -12 -35 -1 -46 4 -4 7 -23 7 -41 0 -22 4 -32
11 -27 8 4 8 1 1 -13 -7 -12 -7 -25 -1 -36 6 -9 7 -22 4 -27 -3 -6 -2 -10 2
-10 5 0 8 -12 7 -27 0 -16 4 -31 10 -35 7 -5 6 -8 -4 -8 -13 0 -13 -1 0 -10
11 -7 12 -10 2 -10 -10 0 -9 -4 3 -16 13 -14 14 -19 3 -25 -10 -7 -10 -9 1 -9
8 0 11 -3 8 -6 -3 -4 -2 -16 4 -27 9 -15 8 -18 -2 -12 -8 6 -10 4 -5 -4 7 -11
10 -23 19 -88 2 -12 6 -26 10 -29 4 -4 2 -13 -4 -21 -9 -9 -8 -13 0 -13 6 0
11 -13 11 -29 0 -17 5 -33 10 -36 8 -5 7 -11 -1 -21 -9 -11 -9 -14 0 -14 7 0
9 -4 6 -10 -3 -5 0 -10 7 -10 10 0 10 -2 -1 -9 -9 -6 -10 -11 -3 -15 6 -4 9
-13 5 -21 -3 -9 1 -15 8 -15 11 0 11 -3 -1 -10 -12 -7 -12 -10 -1 -10 7 0 11
-6 8 -15 -4 -8 -2 -17 2 -19 5 -3 7 -17 6 -31 -2 -14 0 -25 4 -25 4 0 7 -10 6
-22 -1 -13 2 -29 8 -35 6 -9 5 -13 -3 -13 -9 0 -7 -7 5 -20 14 -15 15 -20 4
-20 -11 0 -11 -2 1 -10 11 -7 11 -10 2 -10 -7 0 -10 -5 -7 -10 4 -6 10 -8 14
-6 4 3 6 -8 5 -25 -1 -16 2 -32 7 -35 5 -3 7 -10 3 -15 -3 -5 0 -17 8 -26 11
-14 11 -16 -1 -8 -11 6 -13 4 -6 -11 4 -10 8 -31 9 -46 0 -15 4 -24 9 -21 5 3
7 0 5 -8 -3 -8 -1 -22 4 -31 6 -12 5 -18 -3 -18 -8 0 -8 -4 1 -15 6 -8 9 -19
5 -25 -3 -5 -1 -10 5 -10 8 0 7 -6 -1 -21 -6 -12 -7 -19 -2 -16 5 4 10 0 10
-8 0 -8 -4 -12 -9 -9 -4 3 -8 0 -8 -6 0 -6 -5 -8 -12 -4 -8 5 -9 2 -4 -11 5
-15 4 -16 -9 -5 -8 7 -15 8 -15 3 0 -14 -47 -63 -60 -63 -6 0 -8 -4 -5 -10 3
-5 1 -10 -5 -10 -6 0 -8 -5 -5 -10 4 -6 3 -9 -2 -8 -10 4 -59 -44 -56 -54 2
-5 -3 -8 -11 -8 -8 0 -17 -7 -20 -16 -3 -8 -10 -12 -16 -9 -6 3 -7 -1 -4 -9 4
-9 -1 -18 -10 -22 -9 -3 -13 -10 -10 -16 3 -5 -3 -12 -15 -15 -11 -3 -18 -9
-15 -15 7 -11 -15 -40 -26 -33 -5 3 -12 0 -16 -6 -4 -8 -3 -9 4 -5 7 4 12 1
12 -8 0 -8 -10 -20 -21 -27 -17 -9 -19 -13 -8 -20 11 -6 8 -9 -8 -9 -16 0 -21
-4 -17 -15 4 -8 1 -15 -6 -15 -7 0 -10 -7 -6 -16 4 -11 -1 -18 -15 -21 -16 -4
-17 -8 -7 -14 10 -7 10 -9 1 -9 -7 0 -13 -9 -13 -21 0 -11 -4 -18 -9 -14 -5 3
-12 1 -16 -5 -3 -5 0 -10 7 -11 7 0 4 -4 -7 -9 -11 -5 -14 -9 -6 -9 10 -1 11
-4 2 -14 -6 -8 -8 -17 -4 -20 3 -4 1 -7 -5 -7 -7 0 -11 -3 -10 -7 1 -5 -4 -19
-11 -32 -7 -13 -8 -21 -2 -17 7 5 9 1 5 -8 -3 -9 -10 -16 -14 -16 -4 0 -7 -18
-6 -40 2 -29 -1 -37 -10 -29 -8 7 -11 5 -10 -8 0 -10 6 -21 11 -25 6 -5 6 -8
-2 -8 -6 0 -10 -9 -8 -20 2 -11 -2 -20 -8 -20 -8 0 -8 -3 -2 -8 17 -12 14 -42
-4 -42 -12 0 -13 -2 -3 -8 7 -5 11 -24 9 -50 -2 -23 -1 -42 3 -42 3 0 5 -13 4
-30 -1 -16 1 -30 5 -30 5 0 8 -14 9 -31 0 -17 5 -36 11 -43 7 -9 7 -16 -1 -24
-9 -9 -9 -12 1 -12 7 0 11 -8 9 -18 -2 -11 4 -27 12 -37 8 -11 10 -16 3 -12
-8 5 -8 -1 2 -19 8 -15 12 -31 9 -36 -3 -4 0 -8 6 -8 7 0 10 -7 7 -15 -4 -8
-2 -17 4 -21 6 -3 8 -12 5 -19 -3 -8 0 -15 5 -17 5 -2 11 -13 12 -26 0 -12 5
-22 10 -22 5 0 4 -7 -3 -16 -11 -12 -11 -15 1 -12 9 2 13 -4 11 -14 -2 -10 2
-18 8 -18 5 0 10 -14 10 -31 0 -20 4 -28 12 -23 8 5 9 2 5 -9 -3 -10 -2 -17 3
-17 5 0 7 -7 4 -15 -4 -9 0 -15 7 -15 12 0 12 -2 1 -9 -11 -7 -10 -9 3 -15 9
-3 13 -10 10 -16 -3 -5 -1 -10 4 -10 6 0 11 -11 11 -24 0 -33 10 -57 21 -50 5
3 6 -3 2 -12 -4 -10 -2 -15 4 -11 5 3 9 -3 8 -16 -3 -29 5 -48 16 -41 5 3 6
-2 3 -10 -4 -9 -1 -16 6 -16 7 0 10 -7 7 -15 -4 -8 -2 -17 4 -20 5 -4 7 -11 4
-16 -4 -5 -1 -9 5 -9 6 0 9 -4 5 -9 -3 -5 1 -15 8 -23 8 -7 12 -19 9 -27 -3
-9 0 -11 8 -6 9 5 11 4 6 -4 -4 -6 -2 -19 6 -28 9 -12 9 -15 1 -9 -7 4 -13 2
-13 -3 0 -6 6 -11 13 -11 8 0 14 -6 14 -12 0 -7 9 -32 21 -56 11 -23 16 -39
10 -36 -5 3 -4 -3 4 -15 7 -12 15 -21 18 -21 3 0 7 -12 8 -27 1 -15 7 -30 13
-34 7 -4 9 -11 5 -17 -3 -6 -1 -14 5 -18 8 -5 9 -3 4 6 -5 9 -4 11 4 6 6 -4 9
-12 5 -17 -3 -5 0 -17 8 -26 11 -14 11 -16 -2 -9 -8 4 -7 1 4 -8 10 -8 19 -26
20 -39 0 -14 4 -23 9 -20 4 2 7 -5 7 -16 0 -12 5 -21 11 -21 5 0 7 -4 4 -10
-3 -5 -2 -10 4 -10 5 0 8 -9 6 -20 -2 -12 2 -20 10 -20 8 0 11 -7 8 -20 -4
-14 0 -20 10 -20 10 0 13 -6 10 -20 -3 -11 0 -20 6 -20 6 0 11 -11 11 -24 0
-13 7 -29 15 -36 9 -7 14 -19 11 -27 -3 -7 1 -13 9 -13 8 0 12 -8 10 -20 -2
-11 0 -20 4 -20 8 0 23 -33 25 -57 1 -6 10 -21 21 -33 11 -12 19 -25 18 -29
-1 -3 1 -8 4 -11 4 -3 3 1 -1 8 -4 6 -3 12 3 12 6 0 6 11 1 29 -4 16 -6 32 -2
35 3 3 1 6 -5 6 -6 0 -9 11 -8 25 2 14 0 27 -4 29 -4 3 -7 21 -6 40 1 20 -2
36 -8 36 -5 0 -3 8 4 17 12 14 12 16 -1 11 -12 -4 -15 5 -15 53 1 33 -3 59 -8
59 -5 0 -4 7 3 15 7 8 8 15 3 15 -5 0 -9 10 -8 23 1 12 -2 30 -7 40 -6 11 -5
17 2 17 7 0 8 6 2 18 -5 9 -8 27 -6 40 3 15 0 21 -7 16 -7 -4 -7 1 1 16 8 15
8 20 1 16 -15 -10 -14 7 2 23 10 11 9 12 -2 6 -10 -6 -13 -4 -8 7 3 9 0 21 -6
27 -8 8 -8 11 0 11 12 0 6 37 -9 57 -6 7 -4 14 3 19 8 5 9 3 4 -6 -5 -8 -4
-11 3 -7 12 8 4 49 -12 59 -7 5 -6 8 3 8 10 0 11 3 2 14 -9 11 -9 15 1 19 8 4
9 8 3 14 -13 11 -19 47 -7 39 9 -5 9 14 2 34 -6 15 -5 37 3 54 5 11 5 16 0 13
-5 -3 -9 25 -9 64 0 42 4 69 10 69 8 0 7 3 0 8 -12 8 -14 113 -1 105 4 -2 7 1
7 6 0 6 -4 11 -8 11 -5 0 -9 7 -9 15 0 8 3 12 7 10 3 -2 7 24 8 58 4 86 5 97
14 97 5 0 6 11 4 25 -3 17 -1 23 6 19 7 -5 9 0 5 15 -3 14 0 24 9 28 8 3 12 8
10 12 -2 3 6 15 17 26 11 11 16 13 12 5 -7 -12 -6 -13 6 -4 24 18 48 24 55 12
5 -7 2 -8 -7 -3 -8 5 3 -8 24 -28 21 -21 35 -42 32 -47 -3 -6 -1 -10 4 -10 6
0 11 -9 11 -21 0 -11 4 -18 9 -15 10 7 22 -17 27 -52 1 -12 10 -29 18 -38 18
-17 21 -28 6 -19 -6 3 -7 -1 -4 -9 3 -9 10 -16 16 -16 5 0 7 -4 3 -9 -3 -5 3
-17 12 -27 10 -9 16 -27 15 -40 -2 -12 1 -25 7 -28 6 -4 7 -14 4 -23 -4 -11
-3 -14 6 -9 8 6 11 2 9 -10 -2 -11 2 -18 8 -17 6 1 10 -11 9 -28 -1 -16 2 -29
7 -29 4 0 7 -3 7 -7 -4 -23 2 -43 10 -38 6 3 8 -4 6 -15 -2 -11 0 -20 4 -20 4
0 8 -7 9 -15 1 -8 3 -22 4 -30 1 -8 6 -15 12 -15 6 0 5 -4 -2 -9 -11 -7 -10
-9 3 -15 9 -3 13 -11 10 -16 -4 -6 -1 -17 5 -25 6 -8 9 -19 5 -25 -3 -5 -1
-10 5 -10 6 0 9 -4 6 -9 -3 -5 1 -14 9 -21 10 -8 12 -17 6 -28 -6 -10 -4 -20
5 -30 8 -7 12 -18 9 -23 -4 -5 -1 -9 4 -9 6 0 11 -5 11 -11 0 -5 -6 -7 -12 -4
-7 4 -6 1 3 -7 9 -7 14 -19 12 -25 -3 -7 0 -13 6 -13 5 0 8 -9 6 -20 -2 -11 1
-20 6 -20 6 0 7 -4 4 -10 -3 -5 -1 -10 6 -10 6 0 9 -8 6 -19 -3 -11 2 -30 11
-42 8 -12 10 -19 4 -15 -6 3 -3 -8 6 -26 9 -18 16 -43 17 -56 0 -12 7 -27 15
-32 8 -5 10 -10 4 -10 -6 0 -11 -7 -11 -15 0 -8 4 -12 8 -10 4 3 10 -2 13 -11
4 -10 2 -13 -7 -8 -9 6 -9 5 0 -8 7 -8 10 -18 6 -21 -3 -4 -1 -7 6 -7 7 0 9
-5 6 -10 -4 -6 -2 -16 3 -23 5 -7 9 -24 8 -39 -1 -14 1 -26 4 -26 18 1 21 -4
9 -19 -8 -9 -9 -14 -3 -10 8 4 15 -7 20 -31 4 -20 7 -40 6 -44 -1 -5 4 -8 10
-8 9 0 13 16 13 45 0 25 -4 45 -10 45 -7 0 -7 3 0 8 6 4 10 26 10 50 0 23 -4
42 -10 42 -5 0 -3 5 5 10 8 5 11 10 5 10 -6 0 -10 36 -10 89 0 51 4 87 9 84 5
-4 6 -1 2 6 -13 20 -14 61 -2 61 7 0 7 3 1 8 -13 9 -15 52 -2 52 5 0 4 7 -3
15 -10 12 -10 15 1 15 11 0 11 2 -1 10 -11 7 -11 10 -2 10 10 0 10 5 2 20 -8
15 -8 20 2 20 9 0 9 3 -2 10 -11 7 -11 10 -2 10 9 0 10 5 2 19 -7 14 -6 21 3
24 9 4 9 6 -1 6 -8 1 -10 6 -6 13 4 7 7 52 6 100 -1 63 2 88 11 88 9 0 9 2 0
8 -14 9 -13 74 2 84 6 5 5 8 -3 8 -10 0 -10 5 -2 20 8 15 8 20 -2 20 -9 0 -9
3 2 10 10 6 11 10 3 10 -9 0 -10 7 -5 23 4 12 7 36 6 52 -1 17 4 36 10 44 8
11 8 13 -1 8 -9 -6 -11 3 -8 32 2 23 7 46 11 52 5 8 3 9 -7 4 -11 -7 -12 -6
-2 7 7 8 10 18 6 22 -4 4 -1 11 7 16 12 7 12 12 3 21 -8 8 -9 18 -3 29 5 10
10 33 12 51 1 19 6 40 12 48 8 11 8 13 -1 7 -9 -5 -11 -2 -7 8 3 9 11 16 18
16 7 0 6 3 -2 9 -11 7 -10 9 3 15 9 3 13 10 10 16 -3 5 -1 10 5 10 6 0 8 5 5
10 -3 6 -3 11 2 11 35 6 52 5 47 -2 -3 -5 0 -9 6 -9 6 0 18 -7 26 -15 9 -8 13
-15 10 -15 -3 0 6 -12 19 -26 14 -15 25 -35 25 -44 0 -10 7 -23 15 -30 9 -7
14 -19 11 -27 -3 -7 -1 -13 4 -13 6 0 10 -10 10 -22 0 -12 8 -30 18 -41 12
-15 13 -18 2 -12 -12 7 -13 6 -3 -7 7 -8 10 -18 6 -21 -3 -4 -1 -7 6 -7 7 0 9
-4 6 -10 -3 -5 0 -10 7 -10 9 0 9 -3 -2 -10 -11 -7 -11 -10 -2 -10 7 0 10 -4
7 -10 -3 -5 -1 -10 5 -10 7 0 10 -7 7 -15 -4 -8 -2 -17 2 -20 5 -3 7 -14 4
-25 -3 -12 0 -20 8 -20 7 0 9 -3 6 -7 -4 -3 -2 -12 4 -20 9 -10 8 -13 -2 -13
-9 -1 -8 -5 5 -15 14 -11 16 -15 5 -15 -8 0 -10 -3 -4 -8 13 -9 18 -29 18 -69
0 -19 4 -30 10 -26 6 4 8 0 4 -9 -3 -9 0 -21 6 -28 9 -10 9 -11 -2 -5 -9 5 -8
0 4 -18 12 -18 13 -27 4 -32 -7 -5 -8 -10 -1 -14 5 -3 12 -22 15 -42 2 -20 8
-42 11 -48 4 -6 2 -11 -5 -11 -9 0 -9 -3 1 -14 6 -8 12 -38 13 -65 1 -28 5
-51 8 -51 12 0 17 -40 6 -40 -9 0 -9 -2 0 -8 6 -4 10 -22 9 -40 -1 -17 0 -32
4 -32 5 0 7 -17 12 -117 1 -18 6 -33 11 -33 5 0 4 -7 -3 -15 -10 -12 -9 -16 4
-21 11 -4 13 -11 7 -23 -7 -11 -5 -22 7 -35 9 -11 12 -16 6 -13 -7 4 -15 0
-18 -9 -3 -8 -2 -13 3 -10 5 3 12 -1 15 -10 3 -8 2 -12 -4 -9 -5 3 -8 -4 -7
-15 1 -11 4 -20 8 -20 4 0 6 -20 4 -44 -1 -25 2 -51 7 -58 8 -10 9 -9 5 4 -3
9 -2 18 3 20 5 2 11 12 13 23 1 11 6 26 10 32 4 7 3 22 -4 34 -9 17 -8 20 1
14 10 -6 12 -1 8 19 -3 14 -2 26 1 26 6 0 8 11 13 78 2 17 7 32 11 32 5 0 5 5
2 10 -4 6 -1 18 6 26 10 13 10 17 -2 25 -12 7 -12 9 1 9 13 0 13 1 0 10 -9 6
-11 10 -3 10 7 0 10 7 7 15 -4 8 -1 15 6 15 10 0 10 3 0 15 -9 11 -9 15 -1 15
7 0 9 4 6 10 -3 6 0 10 7 10 10 0 10 2 -1 9 -9 6 -10 11 -2 15 6 4 9 20 7 36
-2 17 0 30 3 30 4 0 7 18 6 40 -1 22 2 40 5 40 6 0 10 36 10 88 0 16 4 21 13
16 9 -6 9 -4 -1 8 -9 12 -10 18 -2 23 8 5 8 10 0 20 -8 10 -8 15 0 20 7 4 10
16 7 26 -3 10 0 20 7 23 7 3 6 8 -4 15 -8 6 -10 11 -4 11 7 0 15 7 18 16 3 8
2 12 -4 9 -13 -8 -13 1 0 26 8 14 7 19 -2 19 -8 0 -9 3 -3 8 16 11 17 34 3 43
-10 7 -9 9 4 9 11 0 15 5 12 15 -4 8 -1 22 5 29 9 10 9 16 1 21 -8 5 -8 11 1
21 9 11 9 14 0 14 -8 0 -9 6 -3 18 5 9 10 35 11 57 2 55 9 150 11 150 1 0 4
31 6 69 2 38 9 76 16 84 11 14 10 15 -7 8 -16 -6 -18 -5 -7 5 15 16 16 33 1
23 -8 -4 -8 0 0 15 7 11 9 21 5 21 -3 0 -1 6 5 13 6 8 8 17 4 21 -11 11 -10
40 2 48 6 5 5 8 -3 8 -10 0 -10 5 -1 21 8 16 8 20 -1 14 -9 -6 -9 -2 -1 14 9
16 9 21 0 21 -9 0 -9 3 0 14 9 11 9 15 -1 19 -11 4 -11 6 0 6 9 1 10 6 2 20
-7 14 -6 21 3 24 9 4 9 6 -1 6 -7 1 -10 6 -7 11 4 6 3 16 -2 23 -5 7 -8 29 -8
50 1 20 -3 37 -8 37 -5 0 -7 9 -4 19 3 11 -2 29 -9 40 -8 11 -14 24 -13 28 4
21 -2 33 -13 27 -6 -4 -8 -3 -4 4 9 15 -25 83 -38 75 -6 -4 -5 0 2 9 11 14 10
18 -7 30 -12 8 -18 18 -14 21 3 4 1 7 -6 7 -8 0 -11 6 -7 16 3 8 2 12 -4 9 -6
-3 -10 -2 -10 2 0 5 -7 18 -16 29 -8 10 -12 13 -8 5 5 -9 3 -12 -5 -7 -7 5 -9
16 -5 28 4 12 2 18 -4 14 -5 -3 -20 8 -33 26 -42 54 -56 68 -63 61 -3 -3 -6 1
-6 11 0 9 -4 14 -10 11 -5 -3 -10 1 -10 10 0 9 -4 13 -10 10 -6 -3 -10 1 -10
10 0 9 -4 13 -10 10 -5 -3 -10 -2 -10 4 0 5 -9 12 -20 16 -11 3 -19 9 -17 13
1 4 -2 9 -8 12 -5 3 -20 15 -33 27 -14 13 -29 20 -34 17 -4 -3 -8 -2 -7 3 3
19 -2 33 -12 33 -5 0 -7 -6 -4 -12 4 -7 0 -5 -8 5 -8 9 -19 17 -26 17 -6 0
-11 5 -11 10 0 6 -9 10 -19 10 -11 0 -23 9 -26 21 -6 17 -9 19 -16 8 -7 -11
-9 -11 -9 -1 0 7 -4 10 -10 7 -6 -3 -7 1 -4 10 4 9 3 15 -2 14 -23 -4 -42 3
-61 21 -15 14 -23 16 -26 7 -3 -7 -6 -4 -6 6 -1 10 -5 15 -11 12 -5 -3 -10 -1
-10 4 0 6 -9 11 -21 11 -13 0 -18 4 -13 12 4 7 3 8 -5 4 -6 -4 -23 2 -37 13
-15 11 -30 19 -34 16 -4 -3 -10 4 -13 15 -3 11 0 20 6 20 8 0 8 3 0 11 -6 6
-9 18 -6 27 5 11 2 13 -6 7 -10 -6 -11 -3 -2 14 7 12 8 21 2 21 -5 0 -10 16
-10 35 -2 56 -4 65 -11 65 -3 0 -6 9 -7 20 -1 13 2 18 10 13 8 -5 8 -2 -1 9
-7 9 -13 36 -15 62 -1 25 -4 46 -7 46 -3 0 -7 11 -8 26 -1 18 2 23 11 18 9 -6
9 -4 1 7 -17 23 -35 71 -24 64 7 -4 7 2 0 19 -6 18 -6 26 1 26 6 0 3 7 -6 16
-13 14 -14 19 -3 25 8 5 9 9 2 9 -7 0 -10 13 -9 30 1 17 -1 30 -6 30 -4 0 -6
12 -5 28 2 15 -1 33 -6 40 -7 8 -7 12 2 12 9 0 7 7 -5 20 -11 12 -13 20 -6 20
7 0 9 5 4 13 -4 6 -9 21 -10 31 -2 11 -9 26 -16 35 -9 12 -9 13 1 7 7 -4 12
-1 12 8 0 9 -5 16 -10 16 -7 0 -7 7 1 21 6 12 7 19 2 16 -6 -4 -10 7 -11 24 0
17 -7 38 -14 47 -11 13 -11 15 2 7 13 -8 13 -7 1 8 -10 13 -11 20 -2 31 9 10
8 16 -3 25 -8 7 -12 19 -9 27 3 8 1 14 -3 14 -5 0 -10 11 -10 25 -1 16 2 23
10 18 6 -3 2 4 -9 17 -11 13 -14 20 -7 16 6 -4 12 -2 12 3 0 6 -5 11 -11 11
-8 0 -7 5 1 16 8 8 9 14 4 13 -20 -4 -26 2 -15 15 8 10 9 16 1 21 -5 3 -10 20
-10 36 0 19 -4 28 -11 23 -8 -4 -8 -1 -1 13 6 11 7 25 2 33 -5 8 -6 18 -4 22
3 4 1 8 -4 8 -5 0 -8 10 -7 23 1 12 -3 25 -9 29 -7 5 -7 8 2 8 8 0 10 5 5 13
-4 6 -9 28 -11 47 -4 56 -5 60 -12 60 -4 0 -6 18 -6 39 1 22 -2 38 -5 35 -4
-2 -9 5 -12 16 -3 11 -1 18 4 14 5 -3 9 0 9 5 0 6 -5 11 -11 11 -6 0 -9 6 -6
14 3 8 3 17 -1 20 -3 4 -6 21 -7 39 -1 17 -5 40 -10 51 -5 12 -3 21 6 27 11 7
11 9 -3 9 -11 0 -15 5 -12 15 4 8 2 21 -3 28 -5 6 -9 24 -8 39 0 15 -2 25 -6
22 -4 -2 -10 3 -13 12 -3 8 -2 13 3 10 5 -3 8 5 7 18 0 13 -4 22 -8 19 -5 -2
-8 7 -8 21 0 37 -1 40 -12 54 -8 8 -7 12 3 12 9 0 10 3 4 8 -14 10 -19 30 -17
72 1 23 -2 30 -7 21 -6 -9 -9 1 -8 28 1 27 -4 46 -14 52 -10 6 -11 9 -1 9 8 0
10 5 5 13 -7 11 -9 21 -17 92 -2 18 -8 29 -16 27 -10 -2 -11 0 -2 11 9 10 9
16 0 25 -9 9 -9 12 2 12 9 0 8 6 -6 22 -12 14 -14 19 -4 13 12 -6 13 -5 3 6
-17 17 -17 32 0 24 6 -4 4 0 -5 8 -10 8 -15 17 -12 20 3 3 1 21 -5 39 -6 18
-12 48 -13 66 -1 17 -5 32 -9 32 -4 0 -6 11 -4 25 1 14 -2 25 -6 25 -5 0 -9 5
-9 11 0 5 6 7 13 3 9 -6 9 -5 0 8 -7 8 -10 18 -6 21 3 4 1 7 -6 7 -8 0 -9 5
-1 19 13 25 13 41 0 21 -8 -13 -10 -12 -11 5 -1 11 -1 24 0 29 1 4 -4 15 -11
24 -10 12 -10 14 -1 8 9 -5 11 -2 7 8 -3 9 -10 16 -14 16 -4 0 -6 14 -4 30 2
17 -1 30 -6 30 -6 0 -8 11 -4 24 3 13 1 27 -5 30 -5 4 -8 15 -6 26 2 11 1 20
-4 20 -4 0 -8 10 -8 23 -1 21 -10 62 -13 62 -2 0 -12 65 -13 83 0 6 -4 12 -8
12 -5 0 -5 7 -2 17 5 12 3 14 -7 8 -9 -5 -11 -4 -6 4 4 6 2 19 -6 28 -9 12 -9
15 0 9 15 -9 16 8 2 34 -6 10 -11 30 -12 44 -1 15 -7 26 -13 26 -5 0 -3 5 5
10 12 7 12 10 1 10 -7 0 -11 6 -7 15 3 8 1 15 -3 15 -5 0 -8 11 -6 25 1 15 -4
29 -14 35 -12 7 -12 9 -2 10 11 0 11 3 1 15 -7 8 -9 15 -4 15 5 0 2 5 -6 10
-13 9 -13 10 0 10 12 0 12 2 2 9 -7 4 -14 19 -15 32 0 13 -6 27 -12 31 -6 5
-6 8 3 8 9 0 8 7 -4 25 -9 14 -13 25 -10 25 4 0 -1 14 -10 31 -8 17 -11 28 -5
25 6 -4 11 -2 11 3 0 6 -5 11 -11 11 -5 0 -7 5 -4 10 4 6 1 17 -5 25 -7 8 -10
21 -7 29 3 8 -1 17 -10 20 -12 5 -13 9 -4 20 9 11 8 17 -3 29 -8 8 -12 17 -9
21 4 3 1 6 -6 6 -8 0 -11 8 -8 20 3 11 1 20 -3 20 -5 0 -7 11 -6 25 2 13 0 22
-5 20 -4 -3 -10 -1 -14 5 -3 5 -1 10 6 10 8 0 8 5 -3 18 -8 9 -15 28 -16 41 0
13 -6 27 -12 31 -7 4 -11 10 -11 14 1 3 0 9 0 14 -1 4 -1 15 0 25 2 10 -5 17
-15 17 -10 0 -14 3 -11 7 4 3 1 13 -6 21 -10 13 -9 14 1 8 11 -7 11 -4 0 13
-7 12 -17 21 -22 21 -4 0 -3 6 3 14 9 11 9 16 0 22 -8 4 -9 3 -5 -4 4 -7 5
-12 2 -12 -10 0 -35 57 -29 64 4 3 1 6 -5 6 -7 0 -12 7 -12 16 0 8 -4 12 -10
9 -9 -6 -14 8 -11 28 1 5 -2 6 -7 3 -5 -3 -14 4 -22 14 -8 10 -18 16 -23 13
-5 -3 -12 -1 -16 5 -4 6 -11 5 -19 -4z m593 -7302 c-3 -3 -11 0 -18 7 -9 10
-8 11 6 5 10 -3 15 -9 12 -12z"/>
<path d="M6463 8917 c-3 -5 -14 -7 -24 -4 -10 3 -22 1 -25 -5 -4 -6 -10 -5
-15 3 -5 9 -9 10 -9 3 0 -7 -7 -15 -16 -18 -10 -4 -13 -2 -8 7 5 9 4 9 -6 0
-7 -6 -19 -9 -28 -6 -11 5 -13 3 -7 -8 7 -11 5 -11 -10 1 -10 8 -16 10 -12 4
4 -7 0 -15 -9 -18 -10 -4 -13 -2 -8 7 6 9 4 9 -7 1 -8 -6 -27 -14 -42 -18 -15
-4 -25 -11 -22 -16 3 -6 -1 -7 -9 -4 -9 4 -16 1 -16 -6 0 -6 -6 -10 -12 -8 -7
3 -26 -10 -42 -28 -16 -18 -33 -31 -37 -28 -5 3 -6 -2 -3 -10 4 -10 1 -16 -10
-16 -10 0 -13 -6 -10 -15 4 -8 2 -15 -4 -15 -5 0 -8 -11 -7 -25 2 -14 -1 -25
-7 -25 -5 0 -8 -8 -6 -17 2 -10 -3 -23 -12 -30 -12 -10 -12 -12 -1 -13 10 0
11 -3 2 -13 -6 -8 -13 -36 -16 -62 -3 -27 -7 -57 -11 -68 -4 -12 -2 -17 4 -13
10 6 10 -7 -1 -34 -3 -8 -5 -41 -4 -72 1 -32 -1 -58 -5 -58 -4 0 -3 -13 2 -30
5 -16 5 -30 0 -30 -4 0 -5 -15 -1 -32 3 -18 6 -53 6 -78 0 -25 3 -48 7 -51 4
-3 9 -17 10 -31 1 -15 6 -24 10 -22 4 3 8 0 8 -6 0 -6 12 -15 26 -20 14 -6 23
-14 20 -19 -3 -4 6 -6 19 -3 14 2 25 0 25 -5 0 -5 7 -10 15 -10 8 0 15 5 15
11 0 6 4 5 9 -3 5 -8 18 -12 30 -8 12 3 21 1 21 -4 0 -5 5 -9 11 -9 5 0 7 5 3
11 -5 8 -1 8 14 0 11 -6 28 -8 36 -5 10 4 16 1 16 -7 0 -12 2 -12 9 0 5 8 11
9 15 3 4 -7 17 -7 36 -2 17 5 30 5 30 1 0 -5 11 -7 25 -6 14 2 27 0 30 -5 3
-4 21 -4 40 0 19 4 35 5 35 1 0 -4 9 -7 20 -7 11 0 20 4 20 9 0 5 7 4 15 -3
12 -10 15 -10 15 1 0 12 2 12 9 0 6 -9 11 -10 15 -2 4 6 12 11 17 11 6 0 7 -6
3 -12 -5 -9 -2 -9 9 1 9 7 17 10 17 6 0 -4 8 -1 17 6 9 8 14 9 10 3 -4 -8 2
-11 17 -10 13 0 22 4 19 9 -6 9 1 9 32 -3 21 -8 26 -7 22 2 -3 9 8 13 37 14
52 1 88 8 106 19 8 5 28 10 44 12 17 2 33 8 37 14 4 7 12 8 18 5 6 -4 11 -2
11 4 0 6 5 8 10 5 6 -3 10 1 10 10 0 9 5 13 10 10 6 -3 13 1 16 10 5 11 9 13
14 6 4 -7 12 -2 20 14 7 14 17 25 22 25 5 0 6 -6 2 -12 -4 -7 -3 -9 1 -5 5 4
10 14 11 21 2 16 45 79 57 84 4 2 4 8 1 13 -3 6 -1 15 4 22 5 7 9 24 8 39 -1
14 1 26 5 25 4 -1 8 3 9 8 1 6 6 15 11 22 7 7 6 14 -1 18 -7 4 -7 12 0 26 8
14 7 19 -2 19 -10 0 -10 2 1 9 11 7 11 9 0 14 -12 4 -11 7 1 16 13 10 13 11 0
11 -13 0 -13 2 -1 9 12 8 12 12 2 25 -7 8 -10 19 -7 25 4 5 0 16 -8 24 -8 8
-13 17 -10 20 8 8 -18 87 -28 87 -5 0 -7 4 -3 9 3 5 0 15 -7 23 -7 7 -14 20
-16 28 -2 8 -8 18 -13 21 -6 3 -12 15 -13 25 -2 10 -9 18 -15 16 -6 -1 -15 6
-18 15 -9 24 -29 43 -37 36 -3 -4 -6 1 -6 11 0 9 -4 15 -8 12 -5 -3 -14 3 -22
14 -7 10 -20 16 -28 12 -9 -3 -13 -1 -9 5 4 6 0 14 -9 17 -10 4 -13 2 -9 -7 4
-6 0 -4 -8 6 -8 9 -21 17 -29 17 -8 0 -20 6 -27 13 -11 10 -12 9 -6 -3 7 -12
6 -13 -6 -3 -21 17 -69 24 -69 10 0 -7 -5 -4 -11 6 -8 14 -14 15 -24 7 -9 -8
-14 -6 -19 6 -5 12 -9 14 -20 5 -7 -6 -16 -8 -19 -5 -3 4 -21 7 -39 8 -18 1
-39 5 -47 10 -10 6 -12 6 -7 -2 4 -7 3 -12 -3 -12 -5 0 -12 6 -14 13 -4 9 -6
8 -6 -2 -1 -11 -4 -11 -18 0 -11 10 -14 10 -9 2 4 -7 3 -13 -3 -13 -5 0 -13 5
-16 10 -5 8 -11 7 -21 -1 -11 -9 -14 -8 -14 2 0 11 -2 11 -10 -1 -8 -13 -10
-13 -10 0 0 11 -3 11 -12 2 -14 -14 -32 -16 -24 -4 3 5 -2 9 -10 9 -8 0 -17
-4 -21 -10z"/>
<path d="M9260 8380 c0 -7 -7 -10 -15 -6 -8 3 -15 1 -15 -4 0 -6 -3 -9 -7 -9
-18 3 -31 -2 -53 -21 -13 -11 -19 -20 -15 -20 5 0 1 -6 -8 -12 -9 -7 -17 -30
-19 -50 -1 -21 -5 -38 -8 -38 -4 0 -6 -12 -5 -27 1 -16 -4 -42 -11 -59 -7 -17
-10 -34 -7 -38 4 -3 1 -6 -5 -6 -10 0 -28 -56 -24 -73 2 -5 -2 -6 -8 -2 -5 3
-10 1 -10 -4 0 -19 -3 -25 -22 -46 -10 -10 -16 -25 -14 -32 6 -15 -27 -36 -39
-25 -5 4 -5 1 -1 -6 11 -18 -83 -137 -98 -126 -3 2 -4 1 -1 -2 6 -9 -15 -45
-23 -40 -4 2 -18 -11 -31 -30 -13 -18 -27 -31 -32 -28 -5 3 -9 -2 -9 -10 0 -9
-5 -16 -12 -16 -15 0 -84 -73 -103 -110 -11 -22 -12 -30 -2 -33 9 -4 9 -6 0
-6 -7 -1 -13 -7 -13 -15 0 -8 6 -17 13 -19 9 -4 9 -6 -1 -6 -10 -1 -7 -12 9
-41 12 -21 26 -37 31 -34 4 3 8 -2 8 -10 0 -9 5 -16 11 -16 5 0 7 6 4 13 -4 6
3 1 15 -13 12 -14 19 -19 15 -12 -3 6 -1 12 4 12 6 0 11 -3 11 -8 0 -4 18 -6
40 -4 22 2 40 8 40 13 0 5 7 9 15 9 9 0 18 7 21 15 4 8 10 12 15 9 5 -3 9 3 9
12 0 10 3 14 7 11 3 -4 17 8 30 25 12 18 23 27 23 22 0 -6 -6 -16 -12 -24 -11
-12 -10 -12 5 -1 9 7 17 20 17 27 0 8 7 14 17 14 9 0 14 3 10 6 -3 3 15 27 41
54 70 71 102 109 102 121 0 5 4 8 9 5 4 -3 17 10 27 29 10 19 22 35 27 35 4 0
6 4 3 9 -3 5 1 12 9 15 8 3 15 9 14 13 -3 20 2 34 11 28 5 -3 12 5 16 19 3 14
12 30 20 37 8 6 11 15 8 20 -3 5 0 9 6 9 7 0 10 6 8 12 -3 7 3 21 13 31 9 10
20 34 24 53 3 19 10 32 14 30 5 -3 7 6 5 19 -1 14 2 25 8 25 6 0 8 7 4 15 -3
8 0 15 7 15 8 0 8 3 -2 9 -8 5 -9 10 -3 12 6 2 12 18 15 36 3 17 8 37 13 44 5
8 3 9 -6 4 -9 -6 -11 -4 -5 5 13 21 14 60 2 60 -9 0 -9 2 -1 8 13 9 -10 72
-27 72 -5 0 -7 5 -4 10 4 6 3 10 -2 9 -21 -4 -34 2 -27 13 4 6 3 8 -4 4 -6 -3
-13 -2 -17 4 -3 5 -11 10 -16 10 -6 0 -7 -4 -4 -10 9 -15 -2 -12 -19 6 -10 10
-16 11 -16 4z"/>
<path d="M7800 7843 c0 -13 -2 -15 -9 -5 -9 14 -32 13 -43 -3 -5 -6 -8 -6 -8
2 0 12 -17 12 -37 0 -7 -5 -13 -4 -13 1 0 5 -7 9 -15 9 -8 0 -12 -5 -8 -10 3
-5 -4 -6 -17 -2 -12 4 -20 3 -17 -1 3 -5 -11 -9 -31 -8 -21 0 -42 -3 -49 -9
-7 -5 -17 -6 -23 -2 -5 3 -10 1 -10 -4 0 -6 -5 -11 -11 -11 -5 0 -7 6 -3 13 6
9 5 9 -8 0 -8 -7 -18 -10 -21 -6 -4 3 -7 1 -7 -6 0 -8 -7 -11 -15 -7 -8 3 -15
2 -15 -2 0 -4 -10 -9 -22 -9 -13 -1 -27 -8 -33 -16 -5 -8 -18 -13 -27 -11 -11
1 -18 -4 -18 -14 0 -15 -2 -15 -10 -2 -7 11 -10 11 -10 2 0 -7 -5 -10 -12 -6
-7 4 -8 3 -4 -4 6 -10 -10 -23 -39 -34 -5 -1 -9 -6 -7 -10 2 -8 -13 -12 -30
-9 -5 0 -8 -6 -8 -14 0 -8 -6 -15 -14 -15 -8 0 -18 -5 -22 -12 -4 -7 -3 -8 4
-4 8 5 10 1 6 -9 -4 -9 -13 -14 -21 -11 -8 3 -11 1 -8 -4 3 -6 2 -10 -3 -10
-6 0 -13 -11 -16 -25 -4 -16 -11 -23 -18 -19 -8 5 -9 2 -5 -9 3 -10 2 -17 -3
-17 -6 0 -10 -6 -10 -14 0 -8 -6 -17 -12 -19 -10 -4 -10 -6 0 -6 8 -1 6 -7 -5
-19 -10 -11 -21 -17 -24 -16 -3 2 -4 -8 -1 -23 3 -17 1 -24 -6 -19 -7 4 -10
-1 -7 -14 2 -11 0 -20 -6 -20 -5 0 -8 -3 -8 -7 3 -21 -2 -33 -13 -27 -7 4 -8
3 -4 -4 4 -6 2 -21 -5 -33 -9 -17 -8 -20 3 -14 10 6 11 5 1 -6 -7 -7 -13 -26
-13 -42 0 -20 -4 -26 -12 -21 -9 6 -9 3 0 -9 8 -9 11 -21 8 -26 -4 -5 -3 -12
2 -15 5 -3 7 -19 4 -36 -3 -20 0 -30 9 -30 7 0 9 -3 6 -7 -4 -3 -2 -12 4 -20
6 -7 9 -13 5 -13 -6 0 15 -27 62 -78 12 -14 22 -21 22 -17 0 5 9 -1 21 -13 11
-12 24 -20 30 -17 5 4 9 1 9 -4 0 -6 7 -11 15 -11 8 0 15 -5 15 -11 0 -5 5 -7
10 -4 6 3 10 2 10 -3 0 -6 7 -13 16 -16 9 -3 12 -2 8 5 -7 12 38 -11 47 -24 3
-5 9 -8 13 -8 22 3 36 0 32 -8 -3 -4 6 -7 19 -5 14 1 32 -4 40 -13 12 -11 15
-11 15 -1 0 9 3 9 8 2 4 -6 15 -10 25 -8 9 1 17 -3 17 -9 0 -7 5 -5 10 3 8 12
10 12 10 1 0 -11 3 -11 17 0 14 12 16 12 8 0 -6 -11 -3 -13 13 -9 12 4 22 1
22 -4 0 -7 5 -6 13 1 8 6 17 8 21 4 11 -11 106 -11 113 0 3 5 9 4 13 -3 5 -9
13 -9 27 -2 15 8 24 8 33 -1 10 -9 11 -9 5 2 -6 11 -3 13 13 9 12 -4 24 -2 27
2 3 5 16 7 30 5 14 -1 28 1 30 6 3 4 14 6 25 4 12 -2 18 0 15 6 -6 9 -5 10 35
14 13 1 26 7 28 13 2 6 10 8 18 5 8 -3 14 0 14 7 0 7 7 10 15 6 8 -3 15 -1 15
4 0 6 7 10 16 10 9 0 12 5 8 12 -5 7 -3 8 6 3 7 -4 16 -2 21 6 4 8 12 14 17
14 5 0 16 8 26 18 10 9 22 17 27 17 6 0 7 4 4 10 -4 6 1 7 11 3 13 -5 16 -2
12 8 -4 10 5 22 22 34 24 16 27 22 17 34 -7 8 -7 12 -2 9 6 -3 16 0 23 8 7 8
9 14 5 14 -4 0 -3 4 2 8 15 11 36 62 30 73 -4 5 -1 9 5 9 6 0 8 5 5 10 -3 6 0
10 7 10 10 0 10 2 1 8 -8 5 -9 13 -3 22 6 9 4 20 -3 29 -8 10 -8 13 -1 8 8 -4
11 3 10 23 0 17 -5 30 -11 30 -5 0 -3 5 5 10 8 5 10 10 4 10 -6 0 -10 10 -9
23 1 12 -3 25 -9 29 -7 5 -7 8 2 8 7 0 10 5 7 10 -4 6 -12 7 -18 3 -7 -4 -6 0
2 10 10 13 10 17 1 17 -7 0 -10 7 -6 15 3 8 1 15 -5 15 -6 0 -9 7 -5 15 3 8 1
15 -4 15 -6 0 -10 6 -10 13 0 7 -9 23 -20 35 -23 24 -26 36 -7 27 6 -4 -3 7
-22 24 -19 18 -28 31 -20 32 8 0 4 5 -8 11 -13 6 -23 15 -23 20 0 11 -25 38
-35 38 -13 0 -34 28 -27 35 4 4 1 6 -7 3 -8 -2 -25 6 -39 19 -14 13 -34 23
-44 23 -13 0 -17 4 -12 13 5 7 0 6 -11 -3 -10 -8 -16 -10 -12 -3 6 10 -17 24
-43 28 -3 0 -11 4 -17 8 -8 5 -13 3 -13 -5 -1 -8 -6 -6 -15 6 -11 14 -15 16
-15 5 0 -12 -2 -12 -9 0 -7 10 -10 10 -13 1 -3 -9 -9 -8 -21 4 -16 16 -17 16
-17 -1z m-96 -285 c7 12 24 11 45 -2 10 -6 12 -5 7 2 -4 7 -3 12 3 12 5 0 13
-5 17 -11 4 -8 9 -8 17 0 7 7 15 7 26 -2 12 -9 13 -9 7 0 -5 9 -2 11 8 7 9 -3
16 -10 16 -15 0 -5 3 -8 8 -8 19 3 33 -3 55 -25 14 -14 28 -22 31 -19 3 4 6
-4 6 -16 0 -17 4 -21 16 -17 8 3 13 2 10 -3 -3 -4 4 -25 14 -47 11 -21 20 -49
20 -61 0 -13 4 -23 9 -23 12 0 9 -33 -4 -42 -6 -5 -4 -12 5 -18 11 -7 11 -10
2 -10 -7 0 -11 -4 -7 -9 3 -5 -1 -16 -9 -24 -8 -8 -12 -17 -9 -21 4 -3 -1 -6
-10 -6 -9 0 -17 -7 -17 -15 0 -9 -6 -12 -17 -8 -12 5 -14 3 -8 -7 5 -8 3 -11
-6 -8 -8 3 -20 -2 -28 -9 -7 -8 -20 -12 -28 -9 -8 3 -12 2 -9 -2 3 -5 -8 -13
-25 -19 -22 -8 -29 -8 -29 0 0 7 -5 5 -10 -3 -5 -10 -23 -15 -49 -15 -30 0
-41 -4 -41 -15 -1 -12 -3 -11 -11 3 -7 11 -15 15 -22 10 -15 -11 -38 -10 -56
1 -10 6 -12 5 -7 -2 4 -7 3 -12 -3 -12 -5 0 -13 5 -16 10 -4 7 -13 7 -26 0
-10 -6 -19 -7 -19 -3 0 4 -19 9 -42 11 -23 1 -46 8 -50 15 -6 9 -8 8 -8 -3 0
-11 -3 -12 -8 -3 -4 6 -21 14 -37 16 -17 2 -29 9 -28 14 1 6 -8 10 -20 9 -23
-1 -48 14 -41 26 3 4 -4 5 -14 3 -15 -3 -19 3 -20 31 -1 19 2 33 6 30 4 -2 8
7 9 21 0 14 6 29 13 33 6 4 11 11 11 16 -1 15 23 74 30 74 4 0 10 11 13 25 4
14 11 23 16 20 6 -3 10 -1 10 4 0 18 40 52 52 45 7 -4 8 -3 4 4 -7 11 -3 14
27 16 6 1 18 7 25 14 7 6 22 12 32 12 10 0 22 4 25 10 3 5 19 8 35 6 17 -2 30
0 30 5 0 4 9 6 20 4 11 -2 22 1 26 7 4 7 9 6 14 -2 5 -8 10 -9 14 -2z"/>
<path d="M5816 7693 c-10 -10 -16 -12 -12 -5 4 6 2 12 -3 12 -6 0 -11 -4 -11
-9 0 -6 -9 -8 -20 -6 -11 2 -20 -1 -20 -7 0 -5 -7 -8 -15 -4 -8 3 -15 1 -15
-5 0 -6 -4 -8 -9 -4 -5 3 -12 1 -16 -5 -4 -6 -11 -8 -16 -5 -5 4 -9 1 -9 -5 0
-7 -7 -10 -15 -6 -8 3 -14 0 -12 -7 1 -7 -8 -11 -20 -11 -13 1 -20 -3 -17 -7
3 -5 0 -9 -6 -9 -6 0 -20 -9 -32 -20 -12 -11 -29 -19 -37 -18 -10 2 -15 -3
-13 -15 2 -9 -1 -17 -5 -16 -17 3 -33 -1 -30 -8 1 -5 -2 -10 -8 -12 -5 -3 -27
-23 -48 -45 -21 -23 -43 -40 -49 -38 -6 2 -8 -4 -5 -12 4 -11 1 -13 -10 -9
-11 4 -14 2 -9 -5 4 -7 1 -12 -9 -12 -9 0 -13 -4 -10 -10 3 -5 -1 -10 -9 -10
-9 0 -16 -4 -16 -9 0 -5 -11 -19 -25 -32 -13 -13 -25 -29 -25 -36 0 -6 -4 -15
-10 -18 -6 -3 -8 2 -5 12 3 10 -2 3 -10 -14 -8 -18 -20 -33 -25 -33 -6 0 -9
-6 -8 -12 2 -7 -3 -12 -10 -10 -8 1 -11 -2 -6 -9 3 -6 1 -15 -7 -19 -7 -5 -14
-17 -15 -27 -2 -10 -5 -27 -8 -38 -2 -11 -5 -24 -5 -28 -1 -5 -7 -5 -13 -1
-10 6 -10 4 -2 -7 11 -16 12 -29 2 -44 -4 -6 -3 -17 2 -25 5 -8 4 -22 -2 -33
-7 -14 -7 -17 1 -13 9 6 17 -28 12 -56 0 -5 4 -8 9 -8 6 0 10 -7 10 -15 0 -8
4 -15 10 -15 5 0 9 -3 9 -7 -3 -20 2 -34 11 -28 6 3 10 -1 10 -9 0 -9 5 -16
12 -16 6 0 8 -3 5 -6 -6 -7 97 -114 109 -114 3 0 19 -13 37 -30 18 -16 36 -30
40 -30 5 0 5 -5 2 -10 -4 -6 -3 -10 2 -9 20 3 34 -2 28 -11 -3 -5 1 -10 9 -10
9 0 16 -4 16 -10 0 -5 7 -10 15 -10 9 0 18 -7 21 -15 4 -8 10 -12 15 -9 5 3 9
0 9 -5 0 -6 7 -11 15 -11 8 0 15 -5 15 -11 0 -5 4 -8 9 -4 5 3 12 1 16 -5 3
-5 15 -15 27 -21 14 -7 18 -7 14 0 -4 5 6 4 21 -4 15 -8 37 -15 49 -15 11 0
26 -6 33 -12 8 -7 11 -8 8 -3 -3 7 11 12 36 13 59 2 88 8 121 21 16 7 36 9 45
6 8 -3 12 -3 8 1 -12 13 26 34 41 22 10 -8 11 -7 6 7 -5 12 -4 16 4 11 6 -3
13 -2 17 4 4 6 11 8 16 5 5 -4 9 -1 9 5 0 7 7 9 16 6 8 -3 12 -2 9 3 -3 5 4
12 15 16 11 3 20 10 20 15 0 4 8 7 18 6 9 0 16 5 14 12 -1 8 2 11 7 8 5 -4 12
-2 16 4 4 6 11 8 16 5 5 -4 9 1 9 9 0 9 3 15 8 15 19 -3 33 2 27 11 -3 6 -2
10 3 10 5 0 22 12 37 28 16 15 25 21 20 13 -5 -10 -4 -12 3 -7 7 4 12 14 12
22 0 8 5 12 10 9 6 -3 10 1 10 9 0 9 5 16 10 16 6 0 10 7 10 16 0 8 5 12 10 9
6 -3 10 1 10 9 0 8 7 22 16 30 8 9 13 16 10 16 -3 0 1 15 9 34 8 18 11 36 8
40 -4 3 -2 6 4 6 6 0 10 14 9 30 -1 17 0 30 3 30 8 0 5 96 -3 109 -3 5 0 12 6
14 7 3 8 6 3 6 -6 1 -10 17 -9 36 1 21 -3 35 -10 35 -7 0 -6 4 3 9 9 6 10 10
2 16 -9 5 -9 11 1 23 10 12 10 14 1 8 -12 -7 -15 -3 -17 27 -1 6 -4 14 -8 17
-3 3 -8 12 -10 20 -2 8 -10 21 -18 28 -8 8 -9 11 -3 7 8 -4 6 6 -4 24 -10 16
-21 27 -25 25 -5 -3 -8 0 -8 5 0 21 -3 26 -27 49 -13 12 -21 27 -17 34 4 6 3
8 -4 4 -6 -3 -17 2 -24 12 -7 10 -21 21 -30 25 -10 3 -18 14 -18 22 0 9 -4 13
-10 10 -5 -3 -10 1 -10 10 0 9 -4 14 -9 10 -5 -3 -21 6 -34 19 -14 14 -28 22
-31 19 -3 -4 -6 -1 -6 5 0 7 -6 11 -12 10 -7 -2 -12 3 -10 10 1 8 -2 11 -7 8
-5 -4 -12 -2 -16 4 -3 5 -15 10 -25 10 -10 0 -21 6 -23 13 -4 8 -6 8 -6 -2 -1
-11 -5 -10 -17 5 -8 10 -13 12 -9 4 4 -9 1 -8 -8 3 -11 14 -16 15 -21 5 -5
-10 -7 -10 -12 0 -3 6 -11 9 -17 5 -17 -10 -47 -11 -53 -1 -8 12 -18 10 -38
-9z m44 -275 c0 9 5 10 19 3 10 -6 21 -7 25 -4 3 3 6 1 6 -5 0 -6 7 -9 17 -5
11 4 14 3 9 -5 -4 -8 0 -12 11 -12 10 0 25 -9 33 -19 7 -11 17 -18 22 -15 4 3
8 -2 8 -10 0 -9 6 -16 14 -16 8 0 18 -9 21 -20 3 -11 11 -20 16 -20 5 0 9 -6
9 -14 0 -8 7 -17 16 -20 8 -3 12 -10 9 -16 -3 -5 -2 -10 3 -10 6 0 13 -7 16
-16 4 -10 2 -13 -7 -8 -6 4 -5 -1 4 -12 9 -11 15 -34 13 -56 -1 -23 3 -38 10
-38 6 0 4 -5 -4 -10 -13 -9 -13 -10 0 -10 13 0 13 -1 0 -10 -13 -9 -13 -10 0
-10 13 0 13 -2 1 -9 -12 -8 -12 -13 -3 -24 10 -12 9 -16 -4 -21 -13 -5 -14
-10 -6 -18 8 -8 6 -16 -10 -30 -12 -10 -18 -18 -14 -18 4 0 1 -6 -6 -14 -7 -8
-16 -12 -21 -9 -4 2 -10 -3 -13 -12 -4 -8 -12 -14 -19 -13 -7 2 -24 -9 -38
-24 -14 -15 -28 -24 -32 -20 -4 4 -12 0 -18 -9 -7 -9 -16 -17 -22 -18 -5 -2
-9 -7 -7 -13 1 -5 -2 -7 -8 -3 -6 4 -17 1 -25 -5 -8 -7 -15 -9 -15 -4 0 4 -6
-1 -14 -11 -8 -11 -19 -16 -30 -12 -9 4 -16 2 -16 -4 0 -6 -4 -7 -10 -4 -5 3
-10 1 -10 -6 0 -8 -4 -8 -15 1 -12 10 -15 10 -15 -1 0 -12 -2 -12 -9 -1 -4 8
-14 12 -22 11 -21 -3 -52 12 -71 36 -10 11 -17 16 -18 11 0 -4 -13 6 -29 23
-16 17 -34 31 -39 31 -6 0 -14 10 -17 21 -5 15 -10 18 -15 9 -5 -8 -9 -7 -14
5 -3 9 -10 14 -15 10 -6 -3 -8 3 -6 14 2 14 -1 18 -11 14 -8 -3 -14 1 -14 11
0 9 -5 16 -11 16 -15 0 -39 26 -32 34 4 3 2 6 -4 6 -6 0 -10 11 -10 25 0 14 4
25 10 25 6 0 7 3 4 7 -4 3 1 12 11 20 9 8 11 11 3 7 -7 -4 -3 7 10 25 12 17
26 31 31 31 4 0 8 7 8 16 0 8 4 13 9 9 6 -3 15 4 21 15 6 11 15 18 21 15 5 -4
9 -3 8 2 -3 19 2 34 10 29 4 -3 19 8 31 24 12 16 27 27 31 24 5 -3 9 2 9 11 0
9 5 13 10 10 6 -3 10 2 10 12 0 15 2 16 10 3 8 -12 10 -10 10 10 0 20 2 22 10
10 8 -13 10 -13 10 2 0 12 5 15 17 11 11 -4 14 -3 9 5 -4 7 -1 12 9 12 10 0
13 5 9 12 -4 7 -3 8 5 4 6 -4 18 0 27 8 18 19 38 21 29 4 -4 -7 0 -5 8 4 8 10
17 15 20 11 4 -3 7 0 7 8 0 11 2 11 10 -1 7 -11 10 -11 10 -2z"/>
<path d="M10727 7634 c6 -17 5 -18 -12 -4 -11 9 -16 10 -11 3 6 -12 -5 -18
-26 -14 -5 0 -8 -3 -8 -9 0 -5 -7 -7 -16 -3 -10 4 -22 -1 -29 -11 -7 -9 -22
-18 -34 -19 -11 -1 -23 -7 -26 -15 -3 -8 -12 -11 -21 -8 -8 3 -12 2 -9 -4 3
-6 2 -10 -3 -10 -5 0 -19 -9 -32 -20 -13 -11 -29 -20 -37 -20 -7 0 -22 -15
-33 -32 -11 -18 -20 -29 -20 -24 0 6 -6 1 -14 -9 -8 -11 -12 -24 -8 -30 3 -5
-3 -3 -14 5 -10 8 -16 10 -12 6 4 -5 -2 -17 -14 -27 -11 -11 -16 -19 -9 -19 7
0 9 -5 6 -10 -4 -6 -11 -8 -16 -5 -5 4 -9 -1 -9 -9 0 -9 -7 -16 -15 -16 -8 0
-15 -5 -15 -11 0 -5 6 -7 13 -4 6 4 4 0 -5 -8 -10 -8 -15 -17 -11 -20 3 -4 -1
-7 -11 -7 -9 0 -15 -4 -12 -9 3 -5 -3 -26 -13 -48 -11 -21 -22 -46 -25 -56 -4
-11 -11 -15 -18 -11 -10 6 -10 4 0 -8 10 -13 10 -17 -3 -22 -9 -3 -13 -10 -10
-16 3 -5 1 -10 -5 -10 -6 0 -8 -5 -5 -10 3 -6 -3 -24 -15 -40 -12 -17 -18 -30
-13 -30 4 0 0 -5 -9 -11 -10 -5 -15 -16 -12 -24 4 -8 1 -15 -6 -15 -7 0 -10
-6 -7 -13 5 -15 -18 -39 -28 -29 -4 4 -3 -3 4 -15 8 -17 8 -25 -2 -35 -8 -7
-13 -21 -11 -31 1 -9 -3 -17 -9 -17 -5 0 -7 -3 -4 -7 4 -3 1 -13 -6 -21 -9
-13 -9 -14 1 -8 6 4 12 2 12 -3 0 -6 -5 -11 -11 -11 -5 0 -8 -4 -5 -8 3 -5 6
-34 7 -65 1 -31 6 -57 11 -57 4 0 8 -13 8 -30 0 -16 5 -30 11 -30 5 0 7 -4 4
-10 -3 -5 -1 -10 5 -10 6 0 9 -4 6 -9 -3 -5 1 -14 9 -21 8 -7 12 -16 9 -21 -3
-5 0 -9 5 -9 6 0 11 -6 11 -14 0 -8 7 -17 16 -20 9 -4 14 -9 11 -12 -8 -9 16
-33 27 -26 5 3 6 0 3 -5 -8 -13 17 -36 27 -25 4 4 6 2 5 -3 -6 -19 22 -55 42
-55 11 0 17 -4 14 -10 -3 -5 5 -15 19 -22 14 -6 26 -15 26 -19 0 -5 7 -6 15
-3 10 4 15 0 15 -11 0 -9 5 -13 10 -10 6 3 10 1 10 -5 0 -6 5 -8 10 -5 6 3 10
1 10 -5 0 -6 5 -8 10 -5 6 3 10 0 10 -7 0 -10 2 -10 9 1 6 10 10 10 13 1 2 -6
21 -14 43 -16 22 -3 48 -6 58 -8 9 -2 17 1 17 7 0 7 5 5 10 -3 6 -9 10 -11 10
-3 0 7 7 10 15 7 8 -4 22 -1 30 6 12 10 15 10 15 -1 0 -12 2 -12 9 -1 4 8 11
13 15 13 18 -2 66 13 66 20 0 5 7 6 15 3 8 -4 15 -1 15 5 0 6 5 11 11 11 5 0
7 -6 3 -12 -4 -7 3 -3 15 10 12 12 28 22 36 22 8 0 15 5 15 10 0 6 7 10 15 10
8 0 15 5 15 11 0 5 5 7 10 4 6 -3 10 2 11 12 0 11 3 13 6 5 3 -9 12 -5 29 13
13 14 26 24 28 23 3 -2 15 5 26 15 11 9 25 17 30 17 6 0 10 4 10 8 0 5 12 15
27 23 15 8 36 22 46 32 10 10 22 15 26 12 5 -2 12 2 15 11 4 9 13 14 22 10 8
-3 13 -2 11 2 -4 6 18 34 25 32 12 -4 37 14 31 23 -3 6 -1 7 6 3 7 -5 23 5 40
23 16 17 26 31 23 31 -4 0 1 5 11 11 9 6 15 14 12 20 -4 5 1 12 10 15 13 5 13
9 3 22 -10 12 -10 14 0 8 8 -5 12 0 12 16 0 13 6 30 13 37 10 11 9 12 -3 6
-12 -7 -13 -6 -3 6 10 12 10 18 0 29 -6 7 -7 10 -1 7 12 -7 14 120 1 140 -4 6
-1 14 5 16 10 4 10 8 -1 15 -9 7 -10 12 -2 16 8 5 8 13 1 27 -8 14 -7 19 2 19
8 0 9 3 3 8 -6 4 -12 23 -14 42 -4 47 -9 68 -17 82 -4 7 -3 8 4 4 7 -4 7 5 -2
26 -7 18 -11 39 -8 47 3 8 0 11 -7 7 -7 -5 -11 2 -11 18 0 14 -3 26 -7 26 -5
0 -19 23 -32 50 -14 27 -28 47 -33 44 -4 -3 -8 -1 -8 5 0 16 -46 61 -54 53 -4
-4 -7 -2 -6 3 5 24 -1 37 -15 31 -8 -3 -14 -2 -14 2 3 20 -3 32 -16 32 -8 0
-15 5 -15 10 0 6 -7 10 -15 10 -8 0 -15 5 -15 10 0 6 -7 10 -16 10 -8 0 -12 5
-9 10 3 6 -3 10 -14 10 -12 0 -21 5 -21 10 0 6 -6 9 -12 8 -7 -2 -12 3 -10 10
2 9 -3 10 -15 3 -13 -6 -24 -5 -37 5 -10 7 -23 11 -27 8 -5 -3 -15 -2 -21 3
-20 12 -39 12 -32 1 4 -6 -2 -5 -15 1 -16 9 -21 9 -21 -1 0 -9 -3 -9 -12 0 -9
9 -15 9 -27 -1 -12 -10 -13 -9 -7 1 7 11 4 11 -12 1 -17 -10 -23 -10 -36 1
-14 11 -16 10 -9 -6z"/>
<path d="M3704 6912 c7 -11 -6 -17 -28 -13 -5 1 -13 -4 -17 -11 -7 -11 -9 -11
-9 0 0 10 -4 10 -16 -2 -8 -9 -21 -16 -28 -16 -8 0 -19 -7 -26 -15 -7 -8 -17
-12 -23 -8 -5 3 -7 1 -3 -5 3 -6 -3 -14 -15 -17 -11 -4 -18 -9 -15 -12 3 -3
-5 -16 -19 -28 -13 -13 -21 -26 -17 -31 4 -4 -1 -4 -11 -1 -11 4 -16 3 -12 -3
7 -12 -16 -70 -27 -70 -5 0 -8 -9 -8 -19 0 -11 -4 -22 -8 -25 -5 -3 -8 -19 -7
-36 1 -16 -1 -30 -5 -30 -5 0 -8 -6 -7 -12 1 -35 -4 -49 -15 -42 -7 5 -8 3 -2
-7 11 -17 11 -36 2 -72 -4 -16 -3 -25 3 -22 5 4 9 -1 9 -10 0 -10 -5 -13 -12
-9 -10 6 -10 4 -2 -7 6 -8 10 -23 8 -34 -1 -11 2 -23 9 -27 9 -6 8 -8 -2 -8
-11 0 -11 -3 0 -17 12 -15 12 -16 -1 -8 -12 7 -13 6 -3 -6 12 -15 13 -18 13
-55 0 -17 4 -23 13 -18 8 5 8 2 -2 -9 -7 -9 -9 -17 -4 -17 5 0 10 -10 11 -22
3 -48 13 -83 33 -122 8 -14 8 -16 -3 -10 -7 4 -4 -2 6 -14 11 -12 16 -22 11
-22 -4 0 -1 -8 6 -17 9 -11 9 -14 2 -10 -7 4 0 -10 14 -32 15 -23 35 -43 45
-47 10 -3 18 -9 18 -13 0 -4 16 -8 37 -9 20 -2 40 -5 45 -8 4 -3 8 0 8 6 0 7
7 10 15 6 8 -3 15 -1 15 5 0 6 4 8 9 5 5 -3 12 1 15 10 3 8 11 12 17 8 8 -4 9
-3 5 4 -4 7 -2 12 4 12 6 0 8 5 5 10 -3 6 -1 10 5 10 6 0 8 5 5 10 -3 6 -1 10
5 10 6 0 9 4 6 9 -4 5 0 12 6 14 10 4 9 6 -1 6 -11 1 -11 4 -1 16 8 9 8 15 2
15 -6 0 -11 8 -11 18 -1 40 -5 52 -15 52 -6 0 -4 5 4 10 13 8 12 10 -3 10 -10
0 -15 5 -12 10 4 6 2 17 -4 23 -5 7 -10 22 -10 32 -1 38 -4 55 -11 55 -4 0 -7
6 -8 13 0 6 -2 29 -3 49 -1 21 -5 35 -9 33 -4 -2 -7 2 -7 10 0 8 4 15 9 15 5
0 6 6 1 13 -11 18 -11 97 1 97 7 0 8 3 1 8 -13 9 -18 32 -7 32 4 0 9 15 10 33
2 17 7 34 12 35 6 2 10 10 10 18 0 8 7 17 15 20 8 4 12 10 9 15 -3 5 8 8 25 7
17 -1 31 -6 31 -11 0 -4 5 -5 10 -2 6 3 10 1 10 -6 0 -7 3 -10 6 -6 12 12 114
-110 114 -136 0 -8 8 -18 17 -21 15 -6 15 -8 3 -16 -12 -8 -12 -10 3 -16 9 -3
17 -14 17 -24 0 -11 5 -22 10 -25 6 -4 8 -11 5 -16 -4 -5 3 -21 14 -35 12 -15
21 -23 22 -18 0 5 4 1 8 -9 4 -10 11 -18 15 -17 5 1 12 -3 15 -9 8 -12 101
-21 101 -9 0 4 6 7 13 6 6 -2 11 3 9 10 -1 8 2 11 7 8 5 -3 17 -3 26 0 13 5
14 8 3 15 -10 7 -10 9 3 9 9 0 21 11 27 25 6 14 16 25 22 25 6 0 8 5 5 10 -3
6 -2 10 3 10 5 0 15 11 22 25 7 13 17 22 22 19 5 -3 8 -2 7 3 -3 20 2 34 11
28 6 -3 10 -1 10 4 0 6 7 11 17 11 9 0 13 3 10 7 -9 9 22 43 40 43 7 0 13 4
13 9 0 5 10 12 23 16 29 10 36 12 42 15 27 13 106 -16 98 -36 -3 -9 0 -14 8
-12 8 2 13 -3 12 -9 -2 -7 2 -13 7 -13 6 0 10 -9 10 -20 0 -11 5 -20 11 -20 6
0 9 -7 5 -15 -3 -8 -1 -15 5 -15 6 0 8 -4 4 -9 -3 -5 -1 -12 3 -15 9 -5 14
-53 14 -150 0 -39 -4 -61 -13 -67 -11 -7 -11 -9 -1 -9 10 0 10 -5 2 -21 -6
-11 -10 -25 -7 -32 2 -6 -5 -20 -14 -31 -10 -10 -16 -23 -13 -27 2 -4 0 -10
-6 -14 -6 -4 -8 -10 -5 -15 3 -4 -2 -11 -11 -14 -8 -3 -12 -10 -9 -16 6 -9 -8
-14 -28 -11 -5 1 -6 -3 -2 -9 8 -12 -20 -42 -30 -32 -4 4 -5 0 -3 -8 2 -8 -3
-14 -10 -12 -8 1 -11 -2 -7 -8 3 -5 -1 -13 -10 -16 -9 -4 -14 -13 -11 -20 3
-8 1 -14 -5 -14 -6 0 -7 -4 -4 -10 3 -5 0 -10 -7 -10 -10 0 -10 -2 0 -9 17
-11 17 -21 0 -32 -10 -7 -10 -9 0 -9 7 0 11 -4 7 -9 -3 -5 1 -16 9 -24 8 -8
12 -17 9 -21 -4 -3 0 -6 7 -6 7 0 10 -3 7 -7 -9 -9 24 -32 46 -33 10 0 16 -4
13 -8 -2 -4 7 -9 22 -10 15 -1 29 -7 30 -12 2 -6 8 -8 13 -4 5 3 9 1 9 -5 0
-6 6 -8 14 -5 8 3 17 0 21 -5 3 -6 11 -9 16 -6 5 4 9 1 9 -5 0 -6 5 -8 10 -5
6 3 10 1 10 -4 0 -6 7 -11 16 -11 9 0 27 -9 41 -20 14 -11 31 -20 37 -20 6 0
18 -9 26 -20 8 -11 19 -20 25 -20 6 0 17 -9 25 -19 7 -11 17 -18 20 -16 4 3
16 -11 26 -30 10 -19 22 -35 27 -35 4 0 5 -4 2 -10 -3 -5 -2 -10 2 -10 5 0 13
-15 19 -32 7 -26 6 -40 -9 -66 -11 -21 -13 -31 -5 -27 7 4 2 -2 -12 -13 -13
-11 -28 -18 -32 -16 -4 3 -5 -2 -2 -11 5 -11 2 -14 -12 -8 -13 5 -15 3 -9 -8
7 -12 6 -12 -7 -1 -12 10 -18 9 -28 -3 -7 -9 -19 -14 -27 -11 -7 3 -13 1 -13
-5 0 -6 -4 -7 -10 -4 -5 3 -19 1 -31 -6 -17 -9 -20 -8 -13 3 6 10 5 11 -7 1
-23 -19 -25 -19 -44 -3 -11 9 -16 10 -11 3 4 -7 3 -13 -3 -13 -5 0 -13 5 -16
10 -4 6 -12 7 -18 3 -18 -12 -71 -11 -79 1 -5 7 -8 6 -8 -3 0 -11 -3 -11 -15
-1 -11 9 -15 9 -15 1 0 -7 -10 -10 -25 -7 -14 3 -23 1 -20 -4 3 -4 -6 -11 -20
-14 -14 -4 -25 -11 -25 -17 0 -6 -5 -7 -12 -3 -7 5 -8 3 -4 -5 5 -7 1 -18 -9
-25 -10 -7 -15 -19 -13 -27 3 -8 1 -22 -4 -31 -6 -13 -5 -18 4 -18 9 0 9 -3
-2 -10 -10 -6 -11 -10 -2 -10 6 0 12 -9 12 -20 0 -11 4 -20 9 -20 5 0 13 -9
16 -20 3 -11 13 -20 21 -20 8 0 14 -4 14 -8 0 -5 6 -9 13 -10 22 -2 42 -7 55
-15 7 -5 12 -3 12 4 0 8 5 7 17 -2 15 -12 16 -12 8 1 -7 13 -6 13 7 2 11 -9
18 -10 23 -2 3 6 12 7 18 3 18 -11 107 -11 100 0 -3 5 4 4 15 -2 15 -8 23 -8
28 0 4 8 9 7 15 -2 5 -9 9 -9 9 -3 0 16 36 24 49 11 7 -7 12 -6 16 6 4 9 13
13 21 10 8 -3 14 1 14 8 0 11 3 11 10 -1 7 -12 10 -12 10 -1 0 7 6 11 15 7 8
-3 15 -1 15 5 0 6 7 8 16 5 8 -3 12 -2 9 4 -6 9 8 14 28 11 4 0 7 3 7 9 0 6 3
9 8 9 19 -3 33 2 27 11 -3 6 1 10 9 10 8 0 22 7 30 16 9 8 20 13 26 9 5 -3 7
0 4 8 -3 8 0 18 7 23 8 5 10 3 4 -6 -5 -9 -4 -11 3 -6 7 4 12 14 12 22 0 8 7
14 16 14 8 0 12 5 9 10 -3 6 1 13 9 16 9 3 13 10 10 15 -3 5 0 9 5 9 6 0 11 9
11 19 0 10 8 22 17 25 14 6 15 9 4 15 -10 7 -9 9 3 14 10 4 13 13 9 23 -4 10
-2 15 3 11 5 -3 9 11 7 34 -1 28 1 38 10 32 9 -5 9 -3 0 8 -10 12 -10 18 -1
27 9 9 9 12 0 12 -6 0 -12 10 -12 23 1 44 -18 107 -32 107 -5 0 -7 4 -3 9 3 5
-1 16 -9 24 -8 8 -12 17 -9 21 4 3 -2 13 -13 22 -10 8 -12 13 -4 9 8 -4 6 2
-6 12 -12 10 -26 29 -33 41 -7 12 -16 20 -22 17 -5 -4 -9 -1 -9 6 0 13 -38 49
-52 49 -5 0 -6 5 -3 10 3 6 1 10 -5 10 -6 0 -18 7 -27 15 -8 8 -19 13 -24 10
-5 -4 -9 1 -9 10 0 9 -4 14 -8 11 -5 -3 -14 4 -22 14 -8 10 -17 17 -22 14 -4
-3 -8 0 -8 6 0 7 -7 9 -16 6 -8 -3 -13 -2 -10 2 3 4 -4 14 -16 21 -16 10 -19
10 -13 -1 3 -7 -2 -3 -13 9 -11 12 -22 19 -26 16 -3 -4 -6 -1 -6 5 0 6 4 13 9
17 6 3 8 14 6 25 -2 12 -1 18 4 16 4 -3 13 4 20 16 7 11 8 17 2 13 -6 -3 -11
-2 -11 3 0 6 7 12 15 16 8 3 15 9 14 13 -4 22 2 34 14 27 9 -6 9 -4 -1 8 -9
12 -10 18 -2 23 6 4 9 13 6 21 -3 7 -1 16 4 19 5 3 7 14 5 25 -2 11 0 20 4 20
4 0 8 25 7 55 -1 30 3 55 8 55 5 0 2 8 -5 17 -12 15 -12 16 5 10 16 -6 17 -5
7 7 -7 8 -13 42 -14 75 -1 34 -6 61 -11 61 -4 0 -5 7 -2 16 4 10 -1 26 -11 37
-10 11 -12 17 -5 13 6 -4 12 -2 12 3 0 6 -5 11 -12 11 -6 0 -8 3 -5 7 4 3 2
12 -5 20 -6 7 -8 16 -5 19 3 4 -5 18 -18 32 -13 14 -21 30 -18 34 3 5 -3 16
-13 24 -11 9 -12 12 -4 8 16 -7 -15 29 -62 76 -15 15 -25 30 -21 33 3 4 -1 7
-11 7 -21 0 -48 25 -38 35 4 5 1 5 -6 1 -8 -5 -22 0 -34 11 -12 10 -18 12 -14
6 5 -9 2 -11 -8 -7 -9 3 -13 10 -10 15 3 5 -2 6 -10 3 -9 -4 -16 -1 -16 6 0
10 -3 10 -14 1 -8 -7 -15 -8 -18 -2 -4 13 -98 21 -98 8 0 -5 -8 -3 -17 4 -14
12 -16 12 -8 0 6 -11 4 -13 -7 -8 -9 3 -21 0 -28 -6 -10 -9 -11 -9 -5 3 6 12
5 13 -6 3 -7 -7 -21 -13 -31 -13 -10 0 -18 -4 -18 -9 0 -5 -16 -12 -35 -15
-20 -4 -33 -11 -30 -16 3 -5 1 -11 -5 -15 -5 -3 -10 0 -11 7 0 7 -4 3 -9 -9
-8 -20 -27 -29 -53 -24 -5 1 -6 -3 -2 -9 3 -5 -1 -10 -10 -10 -9 0 -14 -4 -10
-9 3 -5 -8 -19 -25 -31 l-30 -21 -25 27 c-14 15 -23 29 -20 32 2 3 -15 24 -39
48 -24 23 -42 45 -40 47 3 2 -9 10 -26 17 -16 7 -30 16 -30 21 0 5 -6 9 -14 9
-7 0 -19 7 -26 15 -7 8 -16 12 -21 9 -5 -3 -9 0 -9 5 0 6 -7 11 -16 11 -9 0
-12 5 -8 13 6 9 4 9 -8 -1 -11 -9 -18 -10 -23 -2 -9 15 -38 13 -30 -2 4 -7 -1
-4 -9 6 -9 11 -16 16 -16 10 0 -11 -62 -10 -81 1 -8 5 -10 4 -5 -3z"/>
<path d="M8840 6630 c0 -6 -4 -8 -10 -5 -5 3 -10 0 -10 -7 0 -9 -3 -9 -10 2
-9 13 -12 12 -25 -4 -10 -13 -15 -15 -15 -6 0 9 -5 8 -16 -6 -8 -10 -13 -13
-9 -6 3 6 1 12 -4 12 -6 0 -11 -5 -11 -11 0 -6 -9 -9 -20 -6 -13 3 -18 1 -13
-6 4 -6 0 -8 -10 -4 -9 3 -18 0 -21 -9 -3 -9 -10 -12 -16 -9 -5 3 -10 -1 -10
-10 0 -9 -4 -13 -10 -10 -5 3 -19 -6 -32 -20 -12 -14 -28 -25 -36 -25 -8 0
-12 -6 -9 -14 4 -10 1 -13 -9 -9 -9 3 -14 -1 -14 -12 0 -9 -4 -14 -8 -11 -5 3
-17 -9 -27 -27 -10 -18 -25 -37 -32 -42 -8 -6 -15 -20 -16 -32 0 -12 -4 -20
-8 -17 -10 6 -20 -26 -12 -38 3 -7 1 -8 -5 -4 -11 6 -13 2 -12 -19 1 -3 -6
-12 -14 -21 -8 -8 -13 -21 -10 -28 3 -8 0 -17 -5 -21 -6 -3 -9 -11 -6 -16 4
-5 2 -9 -4 -9 -6 0 -8 -6 -5 -14 3 -8 0 -17 -5 -21 -6 -3 -9 -10 -6 -15 3 -4
-2 -11 -11 -14 -10 -4 -13 -2 -8 7 5 8 2 7 -9 -2 -9 -7 -17 -9 -17 -3 0 5 -7
13 -16 16 -8 3 -12 2 -9 -4 3 -6 -1 -7 -9 -4 -9 3 -16 11 -16 16 0 6 -6 5 -15
-2 -10 -9 -15 -9 -15 -1 0 6 -17 11 -38 11 -21 0 -44 6 -51 13 -11 10 -12 9
-6 -3 8 -13 7 -13 -8 -1 -14 11 -17 11 -17 0 0 -10 -3 -10 -8 -3 -9 15 -62 15
-62 0 0 -6 -5 -4 -10 4 -5 8 -10 10 -10 5 0 -6 -10 -12 -22 -13 -49 -3 -74 -8
-85 -15 -7 -5 -17 -5 -23 -2 -5 3 -10 1 -10 -4 0 -6 -7 -11 -15 -11 -8 0 -15
-4 -15 -10 0 -5 -7 -7 -15 -4 -9 4 -15 0 -15 -10 0 -9 -6 -13 -14 -10 -7 3
-16 -2 -19 -10 -4 -9 -13 -16 -21 -16 -7 0 -17 -7 -20 -16 -3 -9 -11 -12 -18
-8 -7 4 -10 4 -6 -1 4 -4 -4 -19 -18 -32 -14 -12 -22 -23 -18 -23 4 0 -1 -7
-12 -16 -10 -8 -12 -13 -4 -9 10 4 9 2 -2 -8 -10 -8 -18 -22 -18 -31 0 -9 -5
-16 -12 -16 -6 0 -8 -3 -5 -7 4 -3 0 -17 -9 -31 -9 -13 -11 -21 -5 -18 6 4 11
3 11 -3 0 -5 -4 -13 -10 -16 -5 -3 -8 -19 -6 -35 2 -18 -1 -30 -8 -30 -6 0 -5
-4 3 -9 11 -7 11 -9 0 -14 -8 -3 -9 -6 -3 -6 6 -1 9 -19 8 -41 -1 -22 2 -40 6
-40 5 0 7 -8 5 -17 -1 -10 3 -29 10 -43 18 -33 29 -63 27 -72 -1 -5 3 -8 9 -8
5 0 7 -4 4 -10 -3 -5 -2 -10 3 -10 5 0 15 -13 22 -30 7 -16 19 -30 26 -30 8 0
14 -5 14 -11 0 -5 -6 -7 -12 -3 -7 3 4 -10 25 -31 20 -20 37 -40 37 -45 0 -5
9 -12 20 -15 11 -4 18 -11 14 -16 -3 -6 3 -13 15 -16 11 -3 23 -14 26 -24 4
-11 10 -17 14 -15 4 3 24 -10 44 -29 19 -18 38 -31 41 -28 3 4 6 1 6 -6 0 -7
5 -9 10 -6 6 3 10 -1 10 -9 0 -9 3 -15 8 -14 13 3 42 -14 37 -22 -3 -5 3 -6
13 -3 11 2 25 -2 33 -9 18 -19 52 -32 43 -17 -4 8 0 7 15 0 13 -7 21 -8 21 -2
0 6 7 8 15 5 8 -4 15 -1 15 6 0 6 4 9 9 5 5 -3 22 6 38 21 15 14 21 23 13 19
-9 -4 -7 0 3 8 10 9 20 24 22 34 2 10 4 18 5 18 1 0 3 10 4 22 2 13 -2 19 -7
16 -6 -4 -8 0 -4 10 4 10 1 17 -6 17 -8 0 -8 3 -1 8 6 4 -4 21 -28 45 -21 20
-38 34 -38 31 0 -4 -6 -1 -13 5 -8 6 -18 7 -22 3 -5 -4 -5 -2 -1 5 6 11 -29
30 -46 25 -5 -1 -8 6 -8 15 0 9 -3 14 -6 10 -8 -7 -60 44 -56 56 1 5 -2 6 -7
3 -5 -4 -21 5 -35 19 -14 14 -22 25 -18 25 4 1 -4 7 -18 15 -15 9 -19 15 -10
15 9 0 5 6 -10 15 -14 8 -21 14 -16 15 5 0 3 6 -3 13 -6 8 -7 18 -3 22 4 5 1
5 -5 1 -13 -7 -17 4 -14 32 1 6 -2 12 -7 12 -15 0 -10 103 7 134 22 38 98 78
123 65 11 -6 18 -6 18 -1 0 5 11 10 25 10 15 0 22 -5 18 -12 -3 -6 0 -6 8 2
14 13 33 17 25 4 -2 -4 7 -8 22 -9 54 -3 82 -8 82 -16 0 -5 4 -6 9 -2 6 3 14
-3 20 -12 8 -14 10 -15 11 -3 0 12 2 12 9 2 4 -8 12 -14 17 -15 5 -1 8 -6 6
-10 -1 -5 2 -6 7 -3 12 8 78 -20 83 -34 2 -6 18 -12 35 -12 19 -1 30 -5 26
-11 -4 -6 -1 -7 8 -1 8 5 17 9 22 10 4 1 9 3 12 4 7 3 22 7 36 9 5 0 7 6 4 11
-3 6 1 10 10 10 9 0 13 5 10 10 -3 6 -1 10 4 10 6 0 11 6 11 14 0 8 6 21 13
28 6 7 13 22 14 33 3 33 9 54 16 61 3 4 2 15 -4 25 -9 18 -5 23 16 19 6 -1 5
4 -2 10 -9 9 -7 23 8 57 10 24 15 42 10 38 -5 -3 -4 6 2 20 7 14 17 25 22 25
6 0 3 5 -5 10 -10 6 -11 10 -3 10 7 0 22 18 33 40 11 22 25 40 30 40 6 0 10 7
10 15 0 8 7 15 15 15 9 0 12 6 8 17 -5 13 -2 15 15 11 12 -4 25 -1 29 4 3 7 1
8 -5 4 -7 -4 -12 -5 -12 -1 0 10 54 27 103 31 36 3 46 1 41 -9 -6 -9 -4 -9 7
-1 10 8 21 8 42 0 15 -7 24 -15 21 -19 -6 -6 26 -12 48 -8 4 0 10 -8 13 -19 4
-11 13 -20 21 -20 8 0 14 -7 14 -16 0 -8 5 -12 10 -9 6 3 10 -1 10 -9 0 -9 4
-16 8 -16 4 0 14 -16 21 -35 8 -22 17 -33 24 -29 7 4 9 4 5 0 -3 -4 -1 -27 6
-49 6 -23 12 -59 11 -79 0 -21 4 -38 8 -38 5 0 5 -5 2 -10 -4 -6 -11 -7 -17
-4 -7 5 -8 2 -2 -7 12 -20 14 -38 3 -45 -6 -4 -6 -11 1 -19 8 -9 6 -17 -5 -29
-9 -9 -13 -16 -9 -16 3 0 0 -8 -7 -17 -12 -14 -12 -16 1 -9 8 4 6 0 -4 -8 -15
-12 -16 -16 -5 -16 12 0 12 -2 -1 -10 -11 -7 -11 -10 -2 -10 7 0 10 -5 7 -10
-4 -6 -11 -8 -16 -4 -5 3 0 -11 11 -31 12 -21 15 -34 8 -30 -7 4 5 -9 27 -29
22 -20 45 -36 52 -36 6 0 14 -6 16 -12 4 -10 6 -10 6 0 1 10 6 10 21 2 15 -8
20 -8 20 2 0 9 3 9 10 -2 7 -11 10 -11 10 -2 0 7 5 10 10 7 6 -3 10 -2 10 3 0
5 12 8 26 6 17 -1 24 2 21 10 -3 8 3 12 16 11 12 -1 27 0 32 4 6 3 21 7 35 9
13 2 30 8 36 13 6 5 20 6 29 2 11 -4 16 -2 12 3 -3 5 7 9 21 8 15 -1 35 3 45
8 11 6 17 5 17 -3 0 -8 4 -8 13 -2 6 5 32 11 57 12 24 1 48 7 52 14 6 9 8 9 8
0 0 -7 9 -13 21 -13 13 0 18 4 14 13 -4 6 0 4 8 -6 11 -14 16 -15 20 -5 4 10
6 10 6 0 1 -10 6 -10 23 -1 18 10 20 9 14 -6 -5 -15 -4 -16 9 -5 12 10 15 10
15 0 0 -7 7 -10 15 -7 8 4 17 2 20 -4 4 -5 11 -6 17 -3 6 4 8 2 5 -3 -4 -6 0
-13 8 -17 18 -7 20 -72 3 -80 -10 -5 -10 -7 -1 -12 8 -4 7 -11 -5 -25 -9 -11
-16 -22 -14 -25 2 -3 -6 -14 -18 -24 -12 -10 -21 -22 -21 -27 1 -4 -3 -8 -9
-8 -5 0 -10 -3 -10 -8 0 -11 -53 -68 -58 -62 -3 2 -13 -5 -23 -17 -11 -11 -19
-18 -19 -15 0 4 -8 -1 -18 -10 -11 -10 -17 -21 -15 -25 1 -3 -7 -4 -19 0 -13
3 -19 1 -15 -5 7 -10 -20 -28 -35 -25 -5 1 -8 -3 -8 -8 0 -6 -16 -18 -35 -27
-19 -9 -31 -21 -28 -26 3 -6 1 -7 -5 -3 -6 3 -17 -1 -26 -10 -9 -8 -20 -12
-26 -9 -6 4 -9 3 -8 -2 3 -13 -13 -53 -21 -53 -5 0 -8 -20 -8 -45 0 -25 4 -45
9 -45 5 0 6 -5 3 -10 -3 -6 1 -13 9 -16 9 -3 14 -10 11 -14 -7 -11 46 -44 68
-43 9 1 17 -2 17 -6 0 -5 16 -8 35 -7 19 0 35 4 35 9 0 4 9 7 21 7 11 0 17 5
14 10 -5 9 16 15 38 11 5 -1 6 3 2 9 -3 5 1 10 9 10 9 0 25 9 36 20 11 11 27
20 36 20 8 0 12 5 9 10 -3 6 1 10 9 10 9 0 16 5 16 10 0 6 7 10 15 10 8 0 15
5 15 10 0 6 7 10 16 10 8 0 12 5 9 10 -3 6 -1 10 4 10 6 0 20 8 32 18 41 33
131 122 124 122 -4 0 4 9 19 21 14 11 26 25 26 31 0 6 8 17 18 25 11 10 12 12
2 8 -8 -4 -4 3 9 14 13 12 20 21 16 21 -4 0 -2 6 4 13 6 8 8 17 4 20 -3 4 -1
7 5 7 10 0 28 55 24 73 -1 4 3 7 9 7 6 0 9 7 5 15 -3 8 -2 15 2 15 4 0 7 29 7
65 0 36 -4 65 -9 65 -5 0 -6 3 -3 7 4 3 1 13 -6 21 -9 13 -9 14 0 8 9 -5 11
-2 7 8 -3 9 -10 16 -14 16 -5 0 -7 9 -5 20 2 11 0 18 -4 15 -8 -4 -23 18 -25
37 -1 3 -5 10 -10 15 -5 5 -6 2 -1 -6 5 -9 4 -12 -3 -7 -7 4 -12 14 -12 22 0
8 -4 12 -10 9 -5 -3 -10 1 -10 10 0 9 -4 14 -8 11 -5 -3 -15 4 -22 15 -8 10
-20 19 -28 19 -7 0 -20 7 -29 15 -8 8 -19 13 -24 10 -5 -4 -9 -1 -9 4 0 6 -8
11 -17 11 -10 0 -31 7 -46 15 -18 9 -25 10 -20 2 4 -8 1 -7 -10 1 -9 8 -21 11
-27 7 -5 -3 -10 0 -10 7 0 9 -3 9 -10 -2 -6 -9 -10 -10 -10 -3 0 8 -14 11 -40
10 -22 -2 -42 2 -44 8 -3 6 -5 6 -5 -1 -1 -11 -53 -10 -72 1 -5 4 -9 2 -9 -4
0 -6 -7 -8 -15 -5 -9 4 -15 0 -15 -7 0 -11 -2 -12 -9 -1 -9 14 -32 13 -43 -3
-5 -6 -8 -5 -8 4 0 11 -3 11 -15 1 -8 -7 -15 -9 -15 -6 0 4 -9 2 -20 -4 -15
-8 -20 -8 -20 2 0 9 -3 9 -10 -2 -5 -8 -10 -11 -10 -6 0 5 -6 5 -12 0 -21 -15
-51 -10 -54 9 -1 10 2 14 8 11 7 -5 7 -1 1 11 -6 10 -8 27 -5 38 4 14 2 18 -7
12 -10 -6 -11 -3 -3 12 6 11 7 25 2 33 -4 7 -6 19 -3 27 3 7 1 13 -5 13 -6 0
-8 9 -5 20 3 12 0 20 -6 20 -7 0 -10 4 -7 9 3 5 -1 14 -9 21 -12 10 -13 16 -3
28 10 13 10 14 1 8 -8 -4 -13 -1 -13 8 0 24 -2 29 -22 50 -10 11 -18 26 -18
33 0 7 -4 13 -10 13 -5 0 -10 7 -10 15 0 8 -5 15 -11 15 -5 0 -7 5 -4 10 3 6
-1 10 -9 10 -9 0 -16 4 -16 8 0 14 -36 52 -49 52 -6 0 -10 6 -8 13 1 6 -6 11
-16 10 -12 0 -16 4 -13 13 5 13 -9 28 -29 29 -19 2 -45 17 -40 24 2 4 -1 8 -8
8 -25 1 -43 9 -59 27 -10 10 -18 15 -18 10 0 -5 -9 -10 -19 -10 -14 0 -17 4
-10 12 6 8 2 10 -16 9 -14 -2 -25 0 -25 5 0 4 -14 6 -31 4 -16 -2 -28 0 -25 5
3 4 -12 5 -33 1 -22 -4 -46 -3 -55 2 -10 6 -16 5 -16 -2z"/>
<path d="M6285 6360 c-3 -5 -12 -7 -20 -3 -9 3 -15 -1 -15 -8 0 -10 -3 -10
-12 -1 -9 9 -14 7 -24 -6 -11 -14 -15 -15 -23 -3 -7 11 -11 10 -19 -5 -6 -10
-14 -16 -17 -12 -4 4 -14 0 -22 -8 -8 -8 -19 -11 -25 -8 -6 4 -9 3 -6 -2 3 -5
-3 -17 -14 -26 -10 -10 -18 -15 -18 -12 0 3 -7 -1 -15 -10 -8 -8 -15 -20 -15
-26 0 -6 -5 -8 -12 -4 -8 5 -7 0 2 -11 8 -10 11 -16 5 -13 -5 3 -16 0 -23 -8
-7 -8 -10 -14 -7 -14 3 0 -1 -10 -10 -23 -8 -13 -13 -27 -10 -30 3 -4 2 -5 -1
-3 -10 8 -32 -18 -27 -32 3 -7 0 -12 -8 -10 -8 2 -13 -4 -13 -14 1 -10 -2 -15
-7 -12 -5 3 -12 -2 -15 -10 -3 -9 -10 -13 -15 -10 -5 3 -6 -3 -2 -12 4 -12 3
-15 -5 -10 -7 4 -12 2 -12 -4 0 -7 -22 -33 -50 -58 -27 -25 -50 -51 -50 -58 0
-7 -10 -20 -22 -28 -12 -9 -18 -16 -13 -16 6 0 1 -7 -9 -15 -11 -8 -16 -15
-11 -15 5 0 0 -7 -11 -16 -10 -8 -12 -13 -4 -9 13 6 13 5 0 -7 -36 -32 -54
-89 -52 -158 2 -61 7 -81 20 -89 8 -5 13 -11 13 -15 -3 -20 0 -26 9 -21 6 3
10 1 10 -6 0 -14 23 -33 68 -55 17 -9 32 -21 32 -26 0 -5 5 -6 10 -3 6 3 10 2
10 -3 0 -5 7 -9 15 -10 8 -1 22 -3 30 -4 8 -1 15 -5 15 -10 0 -5 6 -8 13 -7
21 2 57 -13 57 -25 0 -6 5 -4 10 4 6 9 10 11 10 3 0 -7 6 -10 14 -7 7 3 20 -1
27 -8 8 -7 27 -14 44 -16 16 -2 33 -8 36 -14 3 -5 9 -9 13 -9 27 4 66 0 62 -7
-4 -7 22 -12 72 -15 6 0 12 -5 12 -11 0 -6 5 -4 10 4 5 8 10 10 10 4 0 -6 6
-11 13 -11 6 0 23 -3 36 -7 17 -6 22 -5 16 4 -5 9 -1 9 16 -1 27 -14 286 -22
295 -8 2 4 11 6 19 2 9 -3 15 1 15 8 0 11 3 11 10 -1 7 -11 10 -11 10 -2 0 7
5 10 10 7 6 -3 10 0 10 7 0 10 2 10 9 -1 6 -9 11 -10 15 -2 4 6 12 9 17 6 5
-4 9 -1 9 5 0 6 5 8 10 5 6 -3 10 0 10 7 0 11 2 10 9 0 7 -11 9 -11 14 1 3 7
21 22 41 31 20 9 36 21 36 27 0 6 3 8 8 6 4 -2 34 23 66 56 33 33 53 56 45 52
-8 -4 -4 2 9 14 12 12 22 26 22 32 0 6 6 7 13 3 7 -5 6 0 -3 11 -8 10 -10 16
-5 13 12 -7 37 17 28 26 -4 3 -1 6 6 6 7 0 10 4 6 9 -3 5 1 15 8 23 19 19 30
51 14 43 -6 -4 -4 0 6 8 9 8 17 24 17 36 0 11 5 21 11 21 5 0 7 5 4 10 -3 6 0
10 7 10 9 0 9 3 -2 10 -10 6 -11 10 -2 10 6 0 12 9 12 20 0 11 6 20 13 20 8 0
7 4 -3 10 -12 7 -12 10 -1 10 7 0 11 6 7 15 -3 8 -1 15 5 15 6 0 8 4 4 9 -3 5
-1 12 3 15 5 3 9 16 8 28 -1 13 2 26 7 29 4 3 10 19 13 35 3 16 7 30 10 33 2
2 -1 10 -7 18 -9 10 -8 13 2 13 8 0 6 6 -7 16 -10 8 -13 13 -6 9 18 -9 14 12
-6 32 -11 10 -22 26 -25 35 -4 11 -12 15 -22 12 -8 -3 -15 -1 -15 5 0 6 -9 11
-20 11 -11 0 -20 4 -20 8 0 5 -11 14 -24 20 -19 8 -26 8 -30 -1 -3 -9 -5 -9
-5 1 -1 6 -8 12 -16 12 -8 0 -15 5 -15 11 0 6 -7 9 -15 5 -10 -3 -15 1 -15 12
0 15 -2 15 -10 2 -6 -10 -10 -11 -10 -2 0 6 -11 12 -24 12 -13 0 -27 6 -29 13
-4 9 -8 8 -16 -3 -9 -13 -11 -13 -11 3 0 9 -6 17 -12 18 -35 2 -63 11 -70 22
-4 6 -8 8 -8 3 0 -5 -8 -2 -17 5 -15 12 -16 12 -10 -5 6 -16 5 -17 -8 -6 -8 7
-13 16 -10 20 2 4 -7 6 -20 4 -14 -1 -25 2 -25 7 0 6 -5 7 -10 4 -6 -4 -18 -1
-27 7 -14 11 -16 11 -8 -2 5 -9 0 -8 -13 4 -17 14 -22 16 -22 5 0 -9 -3 -10
-8 -3 -9 13 -45 27 -38 15 4 -5 -3 -7 -14 -4 -11 3 -17 10 -13 17 4 6 -1 5
-10 -3 -14 -11 -17 -11 -17 0 0 11 -2 11 -10 -1 -6 -10 -10 -11 -10 -2 0 6 -5
12 -11 12 -5 0 -7 -6 -3 -12 5 -10 4 -10 -6 -1 -7 6 -19 9 -26 6 -8 -3 -14 0
-14 7 0 9 -3 10 -13 1 -8 -6 -17 -8 -21 -4 -12 12 -36 12 -36 0 0 -9 -2 -9 -8
-1 -8 13 -50 13 -71 0 -10 -6 -12 -5 -7 2 4 7 5 12 2 12 -3 0 -7 -4 -11 -10z
m144 -284 c11 -7 12 -6 6 5 -7 11 -6 12 6 3 8 -6 22 -10 32 -9 9 2 17 -2 17
-8 0 -7 5 -5 10 3 7 12 10 12 10 1 0 -7 6 -11 14 -8 7 3 25 -1 39 -8 17 -9 27
-10 29 -3 3 7 9 5 18 -3 15 -14 24 -16 83 -23 15 -2 35 -10 45 -18 9 -8 28
-15 42 -16 14 -1 26 -6 28 -11 2 -5 9 -8 16 -5 8 3 20 -1 27 -9 8 -7 20 -12
27 -9 6 2 12 -1 12 -8 0 -6 4 -9 9 -6 5 3 12 -1 15 -10 8 -21 8 -26 -3 -20 -4
3 -6 -6 -3 -19 2 -14 -1 -32 -8 -40 -6 -8 -9 -18 -6 -24 4 -5 0 -15 -7 -23 -8
-7 -13 -21 -11 -31 1 -9 -2 -17 -7 -17 -6 0 -7 -4 -4 -10 3 -5 1 -10 -4 -10
-6 0 -10 -6 -9 -12 2 -7 -3 -12 -10 -10 -8 1 -11 -2 -7 -8 4 -6 -1 -18 -11
-26 -11 -9 -12 -12 -4 -8 10 5 8 -1 -5 -16 -44 -51 -94 -98 -99 -93 -3 4 -6 1
-6 -6 0 -8 -7 -11 -15 -7 -8 3 -15 1 -15 -5 0 -6 -4 -7 -10 -4 -5 3 -10 2 -10
-3 0 -6 -18 -9 -39 -8 -22 0 -37 -2 -34 -7 6 -9 -28 -4 -46 7 -11 7 -13 5 -7
-9 5 -15 4 -16 -9 -5 -8 7 -24 10 -35 7 -11 -3 -20 0 -20 6 0 9 -2 9 -8 0 -5
-7 -13 -9 -21 -3 -8 4 -21 6 -29 2 -9 -3 -13 -1 -9 5 3 5 0 10 -8 10 -8 0 -12
-4 -9 -8 2 -5 -9 -3 -26 3 -17 5 -41 8 -54 6 -19 -4 -23 -1 -18 11 5 14 4 14
-13 1 -15 -12 -17 -12 -10 -1 6 11 3 13 -13 9 -12 -4 -22 -2 -22 4 0 5 -5 6
-10 3 -6 -4 -17 -1 -25 5 -8 7 -24 10 -35 7 -11 -3 -18 -1 -15 3 3 5 1 11 -5
15 -5 3 -10 0 -10 -7 0 -10 -2 -10 -9 1 -5 7 -14 10 -20 7 -6 -4 -14 0 -17 9
-5 12 -9 13 -20 4 -10 -8 -14 -8 -14 0 0 6 -9 11 -20 11 -11 0 -20 4 -20 10 0
5 -6 7 -14 4 -8 -3 -16 3 -19 16 -6 25 1 52 13 45 4 -3 11 7 14 20 4 14 11 23
16 20 6 -3 10 -2 10 4 0 5 18 28 39 50 22 23 38 41 35 41 -2 0 4 9 13 19 9 11
21 17 26 14 6 -3 7 -1 3 5 -4 7 5 24 21 39 15 14 21 23 13 19 -9 -5 -8 -2 3 7
9 8 17 20 17 26 0 7 5 9 10 6 6 -4 13 8 17 25 3 18 12 34 19 37 8 3 11 9 8 15
-3 5 3 12 15 15 12 3 21 9 21 13 0 11 121 7 139 -4z m-616 -160 c-10 -13 -20
-22 -22 -20 -4 4 29 44 36 44 2 0 -4 -11 -14 -24z"/>
<path d="M11940 6080 c0 -8 -3 -10 -7 -7 -3 4 -15 -1 -26 -10 -11 -10 -18 -13
-14 -7 3 6 0 11 -8 11 -8 0 -12 -4 -10 -8 5 -7 -24 -23 -37 -21 -5 1 -8 -3 -8
-9 0 -5 -4 -7 -10 -4 -5 3 -10 1 -10 -5 0 -6 -4 -8 -10 -5 -5 3 -10 1 -10 -5
0 -6 -4 -8 -10 -5 -5 3 -10 1 -10 -4 0 -6 -7 -11 -15 -11 -8 0 -15 -5 -15 -11
0 -5 -4 -8 -9 -4 -5 3 -12 1 -16 -5 -4 -6 -11 -7 -17 -4 -7 4 -8 2 -4 -4 4 -7
1 -12 -9 -12 -10 0 -13 -5 -9 -12 5 -8 0 -7 -11 2 -10 8 -16 11 -13 5 7 -12
-17 -37 -26 -28 -3 4 -6 1 -6 -5 0 -7 -4 -11 -9 -9 -4 1 -17 -7 -27 -18 -11
-12 -14 -14 -9 -6 6 9 -8 1 -29 -16 -22 -18 -44 -29 -49 -26 -6 3 -7 2 -4 -4
9 -14 -25 -39 -48 -35 -16 2 -17 1 -5 -7 12 -8 11 -11 -5 -17 -11 -4 -27 -16
-36 -26 -9 -10 -19 -15 -23 -11 -3 3 -6 1 -6 -5 0 -7 -7 -12 -17 -12 -9 0 -14
-3 -10 -6 7 -7 -18 -35 -29 -33 -4 0 -11 -6 -16 -15 -5 -9 -14 -13 -20 -10 -7
5 -8 2 -4 -5 5 -8 0 -14 -13 -18 -11 -3 -19 -9 -16 -13 3 -4 -2 -11 -11 -14
-8 -3 -12 -10 -9 -16 3 -6 -1 -7 -10 -4 -10 4 -15 2 -13 -7 2 -8 -3 -13 -11
-11 -9 2 -11 -3 -7 -13 3 -9 2 -14 -2 -11 -4 2 -16 -2 -27 -10 -10 -8 -16 -14
-12 -14 3 0 -6 -12 -21 -27 -15 -15 -31 -27 -35 -25 -5 1 -6 -2 -3 -7 3 -5 -9
-25 -28 -44 -19 -20 -32 -38 -28 -41 3 -3 0 -6 -6 -6 -7 0 -12 -7 -12 -16 0
-8 -4 -12 -10 -9 -5 3 -10 -3 -10 -14 0 -12 -4 -21 -10 -21 -5 0 -12 -11 -16
-25 -3 -14 -11 -22 -17 -18 -6 4 -8 0 -4 -10 4 -10 1 -17 -5 -17 -6 0 -8 -3
-5 -7 4 -3 0 -17 -8 -30 -12 -17 -12 -23 -3 -23 9 0 9 -3 -1 -9 -12 -8 -12
-12 -2 -24 8 -11 9 -17 1 -22 -7 -4 -5 -11 5 -21 8 -9 12 -20 9 -26 -4 -6 -2
-8 4 -4 6 3 17 1 24 -6 8 -7 24 -19 37 -26 19 -11 22 -11 15 0 -6 10 -4 10 9
-1 9 -7 17 -10 17 -7 0 4 9 2 20 -4 15 -8 20 -8 20 2 0 9 3 9 10 -2 9 -13 10
-13 10 0 0 13 1 13 10 0 7 -11 10 -11 10 -2 0 10 5 10 20 2 11 -6 20 -7 20 -2
0 5 14 8 30 7 17 -1 30 2 30 7 0 5 4 7 9 3 5 -3 12 -1 16 4 3 6 12 8 20 5 8
-4 18 1 21 10 5 13 9 14 20 5 11 -9 15 -8 20 5 3 9 14 15 23 14 9 -2 15 2 14
9 -2 7 4 10 12 6 9 -3 23 1 33 10 9 8 27 18 40 22 12 3 20 11 17 16 -3 5 1 6
9 3 9 -4 18 1 22 10 3 9 9 14 14 11 4 -2 16 4 26 13 10 10 33 24 51 32 17 8
29 18 27 22 -3 4 2 8 11 8 10 0 15 6 12 13 -3 8 1 14 9 14 7 0 10 -5 7 -11 -3
-6 5 0 19 14 47 45 56 51 61 37 4 -8 6 -8 6 2 1 7 12 24 25 36 18 17 27 20 36
11 8 -8 9 -6 4 8 -5 12 -4 17 2 13 6 -3 17 3 24 14 8 10 19 19 25 19 10 0 38
28 43 43 1 4 5 7 8 6 4 0 16 13 26 30 11 17 25 28 31 24 6 -3 7 -1 3 5 -4 7
-3 12 3 12 6 0 8 8 4 18 -3 9 -3 14 2 10 10 -9 57 51 49 63 -3 5 0 9 6 9 6 0
8 5 5 10 -3 6 1 10 10 10 9 0 13 5 10 10 -4 6 -3 16 2 23 13 16 43 99 49 133
3 16 11 32 17 36 9 6 9 8 -1 8 -9 0 -10 6 -4 18 8 16 8 30 2 50 -6 19 -4 38 5
51 7 11 7 13 -2 7 -8 -4 -13 -1 -13 8 0 9 -5 16 -11 16 -6 0 -9 7 -5 15 3 9 0
15 -9 15 -8 0 -15 8 -15 18 0 14 -2 15 -10 2 -7 -11 -10 -11 -10 -2 0 7 -4 10
-10 7 -5 -3 -10 -1 -10 4 0 6 -5 11 -11 11 -5 0 -7 -5 -3 -12 5 -7 3 -8 -7 -2
-21 13 -39 14 -39 2 0 -6 -6 -5 -15 2 -12 10 -15 10 -15 0z"/>
<path d="M3924 5862 c9 -15 -7 -22 -24 -12 -10 6 -21 3 -35 -10 -11 -10 -24
-20 -30 -22 -5 -2 -9 -6 -7 -10 1 -5 -1 -7 -5 -7 -20 3 -34 -2 -28 -11 3 -5
-3 -10 -14 -10 -12 0 -21 -7 -21 -15 0 -8 -4 -15 -9 -15 -6 0 -8 -9 -6 -20 2
-11 1 -20 -3 -20 -4 0 -7 -20 -7 -44 0 -24 3 -42 6 -40 4 2 12 -10 19 -26 7
-16 16 -27 21 -24 5 3 9 -3 9 -12 0 -10 3 -15 6 -11 4 3 22 0 40 -8 19 -8 34
-10 34 -6 0 5 11 7 25 6 14 -2 25 1 25 6 0 6 4 8 10 4 5 -3 18 2 29 12 23 19
71 29 71 13 0 -5 9 -10 20 -10 11 0 20 -7 20 -16 0 -8 5 -12 10 -9 6 3 13 -1
16 -9 3 -9 11 -13 17 -9 6 4 8 0 4 -11 -4 -9 -3 -15 1 -13 8 4 52 -40 45 -46
-2 -3 9 -11 26 -18 16 -7 27 -17 25 -21 -3 -4 9 -8 25 -8 18 0 31 -5 31 -12 0
-9 3 -9 9 1 5 8 16 11 25 8 9 -4 16 -2 16 4 0 6 5 7 10 4 6 -3 10 -1 10 4 0 6
3 10 8 9 10 -4 52 39 45 46 -3 3 1 8 9 11 11 4 14 18 12 54 -4 50 -26 106 -37
94 -4 -3 -7 1 -7 10 0 9 -8 21 -17 26 -10 6 -13 11 -8 11 6 0 -1 6 -15 13 -13
7 -30 24 -37 37 -7 14 -13 21 -13 16 0 -5 -11 3 -25 18 -14 15 -30 24 -35 21
-6 -3 -10 1 -10 10 0 9 -4 14 -9 10 -5 -3 -16 1 -24 9 -8 8 -17 13 -19 10 -3
-2 -11 2 -18 11 -7 8 -22 15 -35 15 -12 0 -25 3 -28 7 -4 3 -25 7 -47 9 -29 2
-39 0 -34 -9 5 -9 3 -9 -7 1 -16 15 -43 16 -33 1 4 -7 -1 -7 -16 1 -13 7 -20
8 -16 2z"/>
<path d="M4300 5726 c0 -2 8 -10 18 -17 15 -13 16 -12 3 4 -13 16 -21 21 -21
13z"/>
<path d="M8880 5480 c-9 -5 -28 -7 -43 -6 -15 2 -27 0 -27 -4 0 -4 -7 -11 -16
-14 -8 -3 -12 -2 -9 4 8 13 4 13 -39 -5 -20 -8 -36 -13 -36 -9 0 3 -7 -1 -15
-10 -8 -8 -24 -13 -35 -11 -11 2 -18 0 -15 -6 4 -5 -1 -9 -9 -9 -9 0 -16 -4
-16 -10 0 -5 -9 -10 -21 -10 -11 0 -18 -4 -15 -9 6 -9 -22 -26 -36 -23 -5 1
-7 -1 -7 -5 3 -20 -2 -34 -10 -28 -5 3 -12 1 -16 -5 -3 -5 0 -10 7 -11 7 0 3
-4 -10 -10 -13 -5 -21 -13 -18 -18 3 -5 -1 -12 -9 -15 -8 -3 -14 -9 -13 -13 1
-4 -3 -18 -10 -31 -7 -12 -10 -27 -7 -32 3 -6 1 -10 -5 -10 -6 0 -9 -4 -5 -9
3 -5 1 -13 -5 -16 -8 -5 -8 -11 -1 -19 6 -7 8 -16 4 -19 -3 -4 -1 -7 6 -7 7 0
10 -4 7 -9 -6 -10 49 -71 64 -71 6 0 10 -4 10 -9 0 -5 8 -8 18 -6 9 1 23 -3
31 -9 12 -9 13 -7 8 8 -7 16 -5 17 9 6 13 -11 17 -11 24 0 4 7 15 10 24 7 9
-4 15 -1 13 6 -1 7 4 11 11 9 11 -2 16 10 13 30 0 4 7 4 16 1 9 -4 14 -2 10 3
-8 14 21 55 63 90 19 16 31 23 27 17 -6 -9 -3 -11 7 -7 9 3 14 9 12 13 -2 3
12 6 32 5 21 0 43 4 51 10 12 9 13 8 6 -4 -8 -13 -7 -13 8 -1 10 7 17 9 17 3
0 -6 13 -8 31 -5 17 2 29 1 26 -4 -3 -4 15 -8 39 -7 24 0 44 -4 44 -9 0 -5 7
-4 15 3 8 6 19 9 25 5 5 -3 10 -2 10 4 0 6 6 8 14 5 7 -3 16 2 20 11 3 10 11
13 18 9 7 -4 10 -4 6 1 -4 4 -1 13 7 19 9 6 17 22 20 35 2 12 10 30 17 39 10
12 10 14 1 8 -9 -5 -13 0 -13 16 0 42 -3 57 -12 52 -7 -5 -12 10 -9 29 1 5 -3
6 -9 2 -5 -3 -10 -1 -10 4 0 6 -7 11 -15 11 -8 0 -15 3 -15 8 0 14 -45 27 -92
27 -25 0 -44 4 -41 9 3 4 -5 5 -17 1 -17 -5 -21 -4 -15 5 6 9 4 11 -5 5 -19
-12 -81 -15 -74 -4 6 11 3 11 -16 -1z"/>
<path d="M951 4646 c-10 -12 -17 -14 -27 -5 -11 9 -14 8 -14 -2 0 -12 -2 -12
-9 0 -6 9 -10 10 -16 2 -5 -9 -10 -9 -21 0 -11 9 -14 8 -14 -2 0 -12 -2 -12
-9 0 -5 7 -11 9 -14 4 -6 -10 -48 -10 -65 1 -7 4 -12 2 -12 -5 0 -8 -4 -8 -15
1 -12 10 -15 10 -15 -1 0 -9 -3 -10 -8 -4 -12 17 -35 17 -29 1 4 -10 1 -13 -8
-10 -10 4 -12 -2 -5 -30 4 -20 4 -36 -1 -36 -5 0 -4 -11 1 -24 6 -17 5 -26 -3
-30 -8 -3 -7 -5 3 -5 13 -1 13 -2 0 -11 -12 -8 -13 -11 -1 -19 9 -6 10 -11 2
-15 -7 -5 -7 -15 -1 -31 5 -14 6 -25 2 -25 -4 0 -7 -38 -7 -85 0 -47 4 -85 10
-85 5 0 4 -5 -3 -12 -8 -8 -9 -15 -1 -25 9 -10 8 -13 -2 -13 -11 0 -11 -2 1
-10 11 -7 11 -10 2 -10 -9 0 -10 -5 -3 -19 6 -10 8 -21 4 -24 -3 -4 0 -14 7
-22 7 -9 14 -28 16 -43 1 -15 3 -27 4 -27 1 0 3 -8 6 -17 2 -10 6 -26 8 -35 3
-10 5 -20 6 -23 1 -3 2 -8 1 -13 0 -4 5 -6 11 -5 7 2 12 -3 10 -9 -1 -7 2 -13
7 -13 5 0 12 -7 15 -16 6 -15 4 -15 -11 -3 -10 7 -8 2 5 -12 12 -14 19 -29 15
-32 -3 -4 -1 -7 5 -7 7 0 12 -5 12 -11 0 -7 8 -18 18 -25 16 -13 16 -14 -3 -8
-17 6 -17 4 3 -11 15 -11 22 -24 19 -35 -3 -13 0 -17 9 -13 8 3 14 0 14 -6 0
-20 3 -26 19 -38 9 -7 12 -13 7 -13 -5 0 1 -8 12 -19 12 -10 22 -24 22 -30 0
-17 26 -41 35 -33 5 4 5 1 0 -7 -5 -9 0 -20 16 -33 13 -11 17 -17 9 -13 -8 4
-6 -1 4 -9 11 -9 16 -16 10 -16 -5 0 -1 -5 9 -11 9 -5 17 -17 17 -24 0 -8 8
-15 18 -16 9 0 12 -3 6 -5 -7 -3 0 -17 18 -34 17 -17 26 -35 22 -41 -4 -7 -3
-10 2 -7 11 7 35 -17 27 -26 -4 -3 1 -6 10 -6 9 0 17 -6 17 -13 0 -8 9 -22 20
-32 11 -10 17 -22 14 -26 -3 -5 2 -9 10 -9 15 0 21 -12 17 -33 -1 -5 2 -7 6
-5 7 4 73 -56 73 -67 0 -3 0 -10 0 -17 0 -6 3 -9 6 -5 8 8 33 -16 27 -25 -2
-5 3 -8 11 -8 15 0 21 -13 16 -35 -1 -5 1 -7 5 -3 7 7 35 -15 35 -27 0 -11 28
-35 40 -35 6 0 8 -4 5 -10 -3 -5 -2 -10 4 -10 5 0 13 -9 16 -20 3 -11 13 -20
21 -20 8 0 14 -5 14 -12 0 -7 27 -38 60 -69 33 -31 60 -62 60 -68 0 -7 5 -9
10 -6 6 3 10 -1 10 -10 0 -9 4 -13 10 -10 5 3 10 -1 10 -9 0 -9 6 -16 13 -16
8 0 20 -11 27 -25 7 -13 17 -22 22 -19 4 3 8 -5 8 -18 0 -18 2 -20 10 -8 5 8
10 10 10 4 0 -14 100 -122 100 -109 1 6 8 -3 16 -18 8 -15 19 -25 24 -22 6 4
10 1 10 -5 0 -12 67 -80 73 -74 2 2 10 -7 17 -21 7 -14 16 -25 19 -25 13 0 60
-47 54 -54 -3 -3 0 -6 8 -6 8 0 26 -13 39 -30 14 -16 32 -29 40 -30 13 0 13
-1 0 -10 -12 -8 -12 -10 -1 -10 8 0 20 -8 28 -17 8 -10 11 -12 7 -4 -5 9 -3
12 4 7 7 -4 12 -14 12 -23 0 -9 3 -14 6 -11 3 4 26 -14 52 -38 25 -24 49 -44
54 -44 4 0 8 -7 8 -15 0 -8 6 -15 14 -15 8 0 22 -10 31 -22 8 -13 20 -23 25
-23 6 0 9 -3 8 -8 -2 -4 12 -16 30 -27 20 -12 30 -25 26 -32 -4 -7 -3 -8 5 -4
6 4 14 0 17 -8 3 -9 10 -13 15 -10 5 3 9 -2 9 -10 0 -9 6 -15 13 -14 6 2 11
-3 9 -10 -1 -8 2 -11 8 -7 5 3 10 1 10 -5 0 -6 4 -9 9 -5 5 3 12 -4 16 -15 4
-11 9 -19 13 -17 10 5 42 -30 34 -38 -4 -3 1 -3 11 1 12 4 17 1 17 -10 0 -9 7
-16 15 -16 8 0 19 -9 25 -20 6 -11 15 -20 21 -20 5 0 21 -10 34 -22 13 -13 38
-35 54 -51 16 -15 34 -27 38 -27 5 0 15 -9 23 -19 7 -11 17 -18 22 -15 4 3 8
-3 8 -12 0 -10 3 -14 6 -11 4 4 15 -3 25 -15 11 -11 19 -18 19 -13 0 4 13 -7
29 -24 16 -17 34 -31 40 -31 6 0 16 -9 23 -20 7 -11 18 -20 24 -20 10 0 48
-30 102 -80 12 -11 22 -18 22 -15 0 4 7 0 15 -7 31 -28 44 -38 51 -38 4 0 15
-9 25 -21 9 -11 21 -21 26 -22 4 -1 7 -6 5 -10 -1 -5 2 -6 7 -3 5 4 16 -1 24
-9 9 -8 20 -15 26 -15 6 0 11 -4 11 -8 0 -5 16 -16 35 -25 20 -9 38 -24 41
-32 4 -8 10 -12 15 -9 5 3 12 -2 15 -10 3 -9 10 -14 14 -11 4 3 11 -2 14 -11
3 -8 10 -12 16 -9 5 3 10 1 10 -5 0 -6 4 -8 10 -5 6 3 10 1 10 -4 0 -6 6 -11
13 -11 7 0 19 -9 27 -19 7 -11 17 -18 22 -15 4 3 11 -2 14 -10 3 -9 10 -13 15
-10 5 3 9 0 9 -6 0 -6 4 -9 8 -6 5 3 15 -4 22 -15 16 -21 35 -26 25 -6 -4 6 2
2 13 -10 11 -13 27 -23 36 -23 9 0 16 -4 16 -10 0 -5 9 -10 19 -10 10 0 22 -7
25 -16 3 -8 10 -12 16 -9 5 3 10 3 10 -2 0 -4 25 -19 55 -33 29 -13 51 -28 48
-34 -3 -5 -1 -6 6 -2 6 4 23 0 38 -9 17 -12 23 -13 18 -4 -5 8 1 6 13 -5 12
-10 28 -16 37 -12 9 3 13 2 10 -4 -3 -6 3 -10 14 -10 12 0 21 -4 21 -10 0 -5
6 -7 14 -4 8 3 17 1 21 -5 4 -8 12 -8 27 0 16 8 19 8 13 -1 -5 -9 2 -11 29 -7
20 3 38 2 40 -2 6 -9 48 -7 64 3 7 4 17 4 24 0 17 -11 59 -11 65 -1 3 5 9 3
14 -4 5 -8 9 -9 9 -3 0 11 35 12 46 1 4 -4 13 -2 21 4 9 9 13 8 13 0 0 -9 5
-9 20 -1 15 8 20 8 20 -2 0 -9 3 -9 10 2 9 13 11 13 20 0 8 -12 10 -12 10 -1
0 10 3 11 13 2 10 -8 17 -7 25 1 9 9 12 9 12 -1 0 -10 3 -11 14 -2 10 9 16 9
21 1 5 -8 11 -8 21 1 11 9 14 8 14 -2 0 -11 2 -11 10 1 9 13 11 13 20 0 6 -10
10 -11 10 -3 0 9 7 10 25 3 16 -6 26 -6 31 1 4 8 9 7 15 -2 6 -9 9 -10 9 -2 0
9 19 11 40 3 14 -6 37 -5 51 2 9 4 21 2 27 -4 9 -9 12 -9 12 0 0 9 5 10 19 2
14 -7 22 -7 26 0 5 8 12 7 23 -2 13 -11 14 -11 7 2 -8 13 -7 13 8 1 9 -7 17
-10 17 -5 0 5 11 9 25 9 14 0 25 -4 25 -10 0 -5 5 -3 10 5 9 13 11 13 20 0 6
-10 10 -11 10 -3 0 9 7 10 23 5 26 -10 38 -9 55 1 7 5 12 3 12 -4 0 -8 5 -7
17 2 9 8 17 14 17 13 18 -15 45 -21 53 -13 8 8 13 7 17 0 5 -8 13 -8 27 -1 13
8 19 7 19 0 0 -7 6 -8 18 -1 13 7 23 6 32 -2 10 -9 11 -9 6 0 -4 8 1 11 14 10
11 -1 20 -5 20 -10 0 -5 7 -4 15 3 12 10 15 10 15 -1 0 -11 2 -11 10 1 9 13
11 13 20 0 7 -11 10 -11 10 -2 0 9 5 10 18 3 11 -6 24 -6 32 -1 9 5 19 5 27
-2 9 -7 13 -7 13 2 0 9 3 10 13 1 10 -7 17 -7 24 0 6 6 17 8 24 3 17 -10 51
-10 67 0 7 4 12 2 12 -6 0 -8 3 -9 8 -3 9 12 55 18 48 6 -6 -9 49 -5 65 4 5 4
9 0 9 -7 0 -10 2 -10 9 1 5 8 14 10 22 5 17 -10 51 -10 67 0 7 4 12 2 12 -6 0
-8 3 -9 8 -3 8 12 22 13 38 3 6 -4 14 -4 18 -1 11 11 36 12 36 1 0 -7 4 -7 13
-1 6 6 21 9 32 6 43 -9 60 -9 72 0 7 5 18 5 25 1 16 -10 50 -10 66 0 7 4 12 2
12 -6 0 -8 3 -9 8 -3 8 12 22 13 38 3 6 -4 14 -4 18 -1 12 12 36 12 36 0 0 -8
3 -7 9 2 5 7 11 9 14 4 6 -9 37 -9 82 0 11 2 23 -1 27 -7 5 -7 8 -7 8 -1 0 10
37 10 100 2 14 -2 31 1 38 6 7 6 17 6 25 0 14 -11 27 -11 45 0 7 5 12 3 12 -4
0 -9 3 -9 14 0 10 8 16 9 21 1 3 -6 12 -7 18 -3 18 11 57 11 57 0 0 -5 6 -4
14 2 8 7 17 8 20 3 6 -10 48 -8 65 2 5 4 12 2 16 -4 4 -7 12 -7 26 0 14 8 19
7 19 -1 0 -8 4 -8 15 1 12 10 15 10 15 -1 0 -12 2 -12 9 0 6 9 11 10 15 2 4
-7 15 -7 31 -1 13 5 27 5 29 1 6 -9 61 -5 77 4 5 4 9 0 9 -7 0 -10 2 -10 9 1
5 7 11 9 14 4 6 -10 48 -10 65 1 7 4 18 4 24 0 16 -10 50 -10 66 0 7 4 12 2
12 -6 0 -8 3 -9 8 -3 8 12 22 13 38 3 6 -4 14 -4 18 -1 12 12 36 12 36 0 0 -8
3 -7 9 2 5 7 11 9 14 4 6 -9 39 -9 90 2 22 4 27 3 21 -7 -6 -10 -3 -9 9 1 13
10 17 10 17 1 0 -10 3 -10 15 0 12 10 15 10 15 -1 0 -11 2 -11 9 0 7 10 13 12
23 5 15 -12 28 -12 45 -1 8 5 13 3 13 -4 0 -9 3 -9 14 0 10 9 16 9 21 1 5 -8
11 -8 21 1 11 9 14 8 14 -2 0 -11 2 -11 10 1 9 13 11 13 20 0 7 -11 10 -11 10
-2 0 9 5 10 18 3 11 -6 24 -6 35 0 12 7 17 6 17 -3 0 -10 2 -10 9 0 4 8 12 14
16 14 4 0 12 -6 16 -14 7 -11 9 -11 9 1 0 10 3 11 14 2 11 -9 16 -9 21 0 6 8
10 7 16 -2 7 -11 9 -11 9 1 0 13 1 13 10 0 8 -12 10 -12 10 -1 0 10 3 11 13 2
10 -8 17 -7 25 1 9 9 12 9 12 -1 0 -11 3 -11 15 -1 12 10 15 10 15 -1 0 -9 3
-10 8 -4 9 13 32 18 32 7 0 -5 7 -9 15 -9 8 0 15 5 15 10 0 5 8 3 17 -4 11
-10 14 -10 9 -1 -4 6 -2 12 3 12 6 0 11 -6 11 -12 0 -10 3 -9 9 1 5 7 11 9 14
5 4 -7 72 -10 72 -4 0 1 8 3 18 5 9 2 17 -2 17 -8 0 -8 3 -8 8 -2 10 14 32 17
32 4 0 -8 4 -8 14 0 8 7 17 8 19 4 6 -10 54 -10 64 0 3 4 13 1 21 -6 10 -7 13
-8 9 -1 -4 7 2 12 18 12 14 -1 22 -4 20 -8 -7 -11 15 -7 43 8 18 10 22 10 22
0 0 -10 2 -10 9 1 5 7 14 10 20 7 6 -4 14 0 17 9 6 13 8 14 15 3 6 -8 9 -9 9
-2 0 7 7 15 16 18 10 4 13 2 8 -7 -6 -9 -5 -9 8 0 8 7 19 9 23 5 5 -4 5 -2 2
4 -8 13 20 27 34 18 5 -3 9 0 9 6 0 6 4 9 9 5 6 -3 14 3 20 12 6 10 11 15 11
10 0 -4 15 0 33 10 17 9 35 16 40 15 4 -1 7 2 7 8 0 6 6 9 13 8 6 -2 11 3 9
10 -1 8 2 11 8 7 5 -3 24 3 40 15 16 12 34 19 39 15 6 -3 15 4 21 16 7 11 14
18 17 15 3 -3 14 3 24 15 12 14 18 16 22 7 3 -8 6 -6 6 5 1 10 6 15 11 12 6
-3 10 -1 10 5 0 6 5 8 10 5 5 -3 10 -1 10 5 0 6 5 8 10 5 6 -3 10 -1 10 5 0 6
5 8 10 5 6 -3 10 1 10 9 0 9 11 18 25 22 14 3 23 10 20 14 -3 4 2 11 11 14 10
4 13 2 9 -7 -4 -6 1 -3 9 7 9 11 16 17 16 13 0 -4 9 1 19 11 39 35 51 42 67
42 10 0 15 3 11 6 -10 10 17 32 32 26 9 -3 12 -1 7 6 -4 7 -2 12 3 12 6 0 13
0 16 0 3 0 13 8 23 18 34 31 62 52 71 52 5 0 12 7 15 16 4 9 9 15 12 12 2 -3
21 10 41 28 20 18 41 32 46 31 6 -1 11 5 12 13 0 9 9 15 22 14 15 -1 20 3 15
14 -3 10 -1 13 6 8 6 -3 16 3 22 14 6 11 15 18 21 15 5 -4 9 -1 9 5 0 6 5 8
10 5 6 -3 10 1 10 9 0 14 12 20 33 17 4 0 6 3 5 8 -2 5 1 9 6 9 5 0 13 7 18
16 5 9 14 13 20 10 7 -4 8 -2 4 4 -4 7 -2 12 4 12 6 0 9 4 5 9 -3 6 3 8 14 6
14 -3 18 1 14 11 -3 8 -2 14 3 12 5 -2 19 6 31 17 39 36 53 46 53 38 1 -4 7 3
15 17 8 14 15 21 15 15 0 -5 8 1 16 15 8 14 13 17 10 7 -3 -11 -2 -15 4 -12 6
3 10 13 10 21 0 8 4 13 9 9 6 -3 15 4 21 15 6 11 15 18 21 15 5 -4 9 1 9 9 0
8 5 18 12 22 7 5 8 3 3 -7 -8 -12 -6 -12 8 0 9 7 14 18 10 24 -4 6 0 8 11 4
10 -4 15 -3 11 3 -3 6 -1 10 5 10 6 0 8 5 4 12 -4 6 -3 8 3 5 13 -8 55 27 45
37 -4 4 -2 7 3 5 21 -5 44 13 38 29 -4 9 -3 14 2 10 11 -11 47 11 39 24 -4 7
-3 8 4 4 6 -3 16 3 22 14 6 11 19 20 30 20 14 0 18 5 13 17 -4 10 -2 14 5 9 6
-3 16 2 21 13 6 11 20 23 31 26 11 4 18 11 15 16 -4 5 -1 9 4 9 6 0 21 11 33
25 11 13 25 22 30 19 4 -3 8 0 8 6 0 17 51 60 63 53 6 -3 7 -1 3 5 -3 6 5 22
19 36 14 14 25 20 26 13 0 -7 4 -2 10 11 5 13 13 20 19 17 6 -4 10 -3 9 2 -3
17 1 33 9 31 9 -4 58 45 54 55 -1 4 7 7 19 7 11 0 18 3 16 7 -6 10 19 34 27
26 3 -4 6 0 7 8 0 8 29 38 65 67 35 29 64 59 64 67 0 7 9 17 20 20 11 4 18 10
15 15 -3 4 11 17 30 29 19 11 34 24 33 28 -1 4 10 21 25 37 15 16 27 26 27 22
0 -4 6 -1 14 6 7 7 11 19 8 27 -3 8 -1 12 4 8 6 -3 16 3 24 13 8 10 18 16 24
13 5 -4 7 1 3 10 -4 11 -1 17 9 17 8 0 12 5 9 10 -3 6 1 10 9 10 9 0 16 4 16
9 0 15 66 81 74 74 4 -5 6 -3 4 2 -2 6 9 24 24 40 15 16 24 33 21 38 -3 6 -1
7 5 3 7 -4 12 -2 12 4 0 6 4 8 10 5 6 -4 7 1 3 11 -4 11 -3 15 5 10 11 -7 38
31 34 47 -1 5 1 6 5 4 11 -7 33 19 25 29 -4 4 1 4 10 1 10 -3 17 -3 17 1 -3
21 2 32 13 26 8 -5 9 -2 5 10 -4 10 -3 15 3 11 6 -3 10 -1 10 5 0 6 5 8 12 4
8 -5 9 -2 5 9 -4 10 -2 16 5 14 7 -1 12 3 13 8 0 6 10 21 23 35 12 13 22 28
22 32 0 5 5 6 10 3 6 -3 10 1 10 10 0 10 11 26 24 36 14 11 28 28 31 39 4 11
11 17 17 14 6 -4 8 -3 5 3 -3 5 6 23 21 39 28 31 32 37 32 55 0 5 5 7 12 3 8
-5 9 -2 5 9 -4 10 -2 16 5 14 7 -1 12 4 13 11 0 7 7 17 15 22 8 5 15 15 15 22
1 7 6 12 13 11 6 -2 9 3 6 11 -3 7 2 16 11 20 9 3 14 10 10 15 -3 6 3 14 12
20 10 6 14 11 10 11 -4 0 1 10 12 22 11 11 18 25 15 30 -3 4 2 8 12 8 14 0 15
2 3 17 -8 9 -9 14 -2 10 7 -4 14 1 18 13 4 11 11 17 17 14 7 -5 8 -2 4 5 -5 7
-1 20 7 29 15 18 28 46 33 72 2 8 8 16 13 18 6 2 11 10 11 18 0 9 5 12 11 8 7
-4 7 1 -1 16 -10 18 -9 21 1 15 9 -6 11 -3 6 8 -4 10 -2 16 6 14 7 -1 11 6 9
17 -2 12 1 16 9 10 8 -4 10 -3 5 5 -4 6 -2 19 6 28 9 12 9 15 1 9 -9 -5 -11
-2 -7 8 3 9 10 16 16 16 5 0 6 4 3 10 -3 5 -1 19 5 30 8 14 8 20 0 20 -7 0 -8
5 -3 13 12 18 11 57 -2 57 -6 0 -7 3 0 8 13 9 15 62 3 62 -5 0 -6 6 -1 13 12
18 11 61 -1 70 -7 4 -8 10 -1 15 14 10 17 32 8 46 -5 6 -7 22 -6 36 2 14 5 41
7 60 2 19 -2 38 -8 42 -7 5 -4 8 7 8 17 0 17 1 2 16 -14 15 -14 17 2 31 10 8
12 12 5 8 -6 -3 -15 1 -18 10 -4 9 -13 14 -20 11 -8 -3 -14 0 -14 6 0 7 -4 7
-12 1 -12 -8 -26 -9 -45 -3 -20 6 -39 4 -45 -5 -5 -6 -8 -5 -8 4 0 10 -3 11
-14 2 -10 -9 -16 -9 -21 -1 -5 8 -10 8 -20 0 -9 -8 -15 -8 -20 0 -3 5 -11 10
-16 10 -6 0 -7 -6 -3 -12 5 -9 2 -9 -9 1 -10 7 -17 9 -17 3 0 -14 -30 -9 -39
7 -6 10 -10 8 -15 -5 -5 -13 -9 -15 -18 -6 -14 14 -32 16 -24 4 3 -5 -1 -9 -9
-9 -8 0 -15 5 -15 10 0 5 -8 3 -17 -4 -13 -11 -15 -11 -9 -1 10 16 -25 13 -36
-3 -5 -6 -8 -5 -8 4 0 10 -3 11 -14 2 -11 -9 -16 -9 -21 0 -6 8 -10 7 -16 -2
-7 -12 -9 -12 -9 0 0 11 -3 11 -15 1 -12 -10 -15 -10 -15 0 0 9 -4 9 -17 -1
-11 -10 -14 -10 -9 -1 9 15 -6 16 -22 0 -9 -9 -12 -9 -12 1 0 11 -3 11 -17 0
-11 -10 -14 -10 -9 -1 9 15 -6 16 -22 0 -7 -7 -12 -8 -12 -2 0 5 -9 10 -20 11
-11 1 -18 -2 -16 -6 6 -9 -31 -7 -40 2 -12 11 -26 8 -18 -4 4 -8 1 -8 -13 -1
-12 7 -25 7 -36 1 -13 -8 -17 -6 -17 8 0 15 -2 15 -9 4 -13 -20 -51 -22 -52
-2 0 12 -3 11 -9 -4 -6 -13 -9 -15 -9 -5 -1 13 -2 13 -11 0 -8 -12 -10 -12
-10 -1 0 11 -3 11 -17 0 -11 -10 -14 -10 -9 -1 4 6 3 12 -3 12 -5 0 -13 -5
-16 -11 -5 -6 -12 -4 -21 8 -10 12 -12 13 -9 3 4 -11 -1 -16 -14 -16 -11 0
-18 3 -16 6 5 8 -90 4 -104 -4 -6 -4 -11 0 -12 11 0 11 -3 13 -6 5 -2 -6 -9
-10 -14 -6 -5 3 -9 1 -9 -3 0 -5 -9 -9 -20 -9 -11 0 -20 4 -20 9 0 5 -7 4 -15
-3 -10 -9 -15 -9 -15 -1 0 6 -5 11 -11 11 -5 0 -7 -5 -3 -11 4 -8 0 -8 -15 0
-16 9 -21 9 -21 0 0 -8 -4 -8 -15 1 -12 10 -15 10 -15 0 0 -9 -4 -9 -17 1 -15
12 -16 12 -8 -1 8 -13 7 -13 -8 -1 -14 11 -17 11 -17 0 0 -11 -2 -11 -10 1 -5
8 -10 10 -10 4 0 -17 -30 -12 -30 5 0 13 -2 14 -9 2 -10 -16 -51 -23 -51 -9 0
5 -6 6 -12 2 -22 -14 -48 -11 -48 4 0 12 -3 12 -16 1 -21 -17 -42 -20 -50 -7
-4 6 -10 5 -15 -3 -7 -11 -9 -11 -9 1 0 13 -1 13 -10 0 -7 -11 -10 -11 -10 -2
0 8 -5 10 -12 5 -19 -11 -39 -13 -32 -2 3 5 -6 5 -20 -1 -17 -6 -27 -6 -32 1
-4 6 -11 6 -20 -2 -11 -9 -14 -8 -14 2 0 12 -2 12 -9 0 -7 -11 -10 -11 -15 0
-5 11 -7 11 -12 1 -5 -10 -9 -10 -20 -1 -11 9 -14 8 -14 -2 0 -11 -2 -11 -9 0
-8 12 -12 12 -25 2 -12 -11 -16 -11 -16 -1 0 9 -4 9 -17 -1 -9 -8 -17 -14 -18
-14 -1 0 -9 6 -18 14 -10 7 -17 9 -17 4 0 -5 -7 -10 -15 -10 -8 0 -15 7 -15
16 0 13 -2 13 -9 2 -5 -7 -14 -10 -20 -7 -6 4 -11 2 -11 -5 0 -8 -4 -8 -15 1
-12 10 -15 10 -15 -1 0 -12 -2 -12 -9 0 -7 11 -9 11 -14 0 -4 -11 -6 -11 -6
-1 -1 8 -6 10 -13 6 -18 -11 -48 -12 -54 -2 -3 5 -12 4 -20 -3 -10 -8 -14 -8
-14 0 0 6 -5 11 -11 11 -5 0 -7 -5 -3 -11 4 -8 0 -8 -15 0 -16 9 -21 9 -21 0
0 -8 -4 -8 -15 1 -12 10 -15 10 -15 -1 0 -10 -3 -10 -12 -1 -7 7 -17 8 -30 1
-14 -8 -18 -6 -18 6 0 15 -1 15 -16 0 -12 -12 -19 -13 -30 -4 -11 9 -14 9 -14
-1 0 -9 -4 -9 -17 1 -15 12 -16 12 -8 -1 8 -13 7 -13 -8 -1 -14 11 -17 11 -17
0 0 -11 -2 -11 -10 1 -5 8 -10 11 -10 5 0 -5 -13 -10 -29 -10 -17 0 -27 4 -23
10 3 6 -2 4 -11 -4 -13 -10 -17 -10 -17 -1 0 10 -3 10 -15 0 -12 -10 -15 -10
-15 0 0 9 -3 10 -13 1 -10 -8 -17 -7 -25 1 -9 9 -12 9 -12 -2 0 -13 -2 -13
-10 0 -7 11 -10 11 -10 2 0 -9 -5 -10 -17 -4 -10 5 -26 8 -35 6 -10 -2 -26 -6
-35 -8 -10 -2 -24 1 -30 7 -9 6 -13 5 -13 -4 0 -11 -2 -11 -10 1 -8 12 -10 12
-10 1 0 -10 -3 -11 -13 -2 -10 8 -17 7 -27 -2 -10 -10 -11 -9 -5 3 8 13 7 13
-8 1 -13 -10 -17 -10 -17 -1 0 10 -3 10 -15 0 -12 -10 -15 -10 -15 0 0 10 -3
10 -15 0 -12 -10 -15 -10 -15 0 0 10 -3 10 -15 0 -12 -10 -15 -10 -15 1 0 11
-2 11 -10 -1 -8 -12 -10 -12 -10 -1 0 11 -3 11 -17 0 -15 -12 -16 -12 -8 1 8
13 7 13 -8 1 -13 -10 -17 -10 -17 -1 0 10 -3 10 -15 0 -12 -10 -15 -10 -15 0
0 9 -4 9 -13 2 -8 -7 -18 -7 -27 -2 -9 5 -19 5 -27 -2 -10 -8 -13 -7 -13 3 0
11 -2 11 -10 -1 -8 -13 -10 -13 -10 0 0 10 -3 11 -12 2 -6 -6 -18 -8 -27 -4
-20 9 -42 9 -58 -1 -8 -5 -13 -3 -13 4 0 10 -3 10 -12 1 -6 -6 -18 -8 -27 -3
-20 9 -62 8 -78 -2 -8 -5 -13 -3 -13 4 0 8 -4 8 -15 -1 -12 -10 -15 -10 -15 0
0 10 -3 10 -14 1 -11 -9 -15 -9 -20 1 -5 11 -7 11 -12 0 -5 -10 -9 -10 -20 -1
-11 9 -14 8 -14 -2 0 -11 -2 -11 -10 1 -8 12 -10 12 -10 1 0 -11 -3 -11 -15
-1 -12 10 -15 10 -15 0 0 -10 -3 -10 -15 0 -12 10 -15 10 -15 -1 0 -11 -2 -11
-10 1 -5 8 -10 10 -10 4 0 -14 -30 -14 -30 0 0 6 -4 5 -9 -3 -6 -9 -10 -10
-16 -2 -5 9 -10 9 -21 0 -11 -9 -14 -9 -14 1 0 10 -3 10 -15 0 -12 -10 -15
-10 -15 0 0 9 -4 9 -17 -1 -15 -12 -16 -12 -8 1 8 13 7 13 -8 1 -14 -11 -17
-11 -17 0 0 11 -2 11 -10 -1 -8 -12 -10 -12 -10 -1 0 10 -3 11 -14 2 -11 -9
-15 -9 -19 1 -4 10 -6 10 -6 -1 -1 -11 -4 -11 -16 -1 -12 10 -15 10 -15 -1 0
-10 -3 -10 -12 -1 -7 7 -17 8 -30 1 -12 -7 -18 -6 -18 1 0 7 -6 8 -18 1 -11
-6 -24 -6 -32 -1 -9 5 -19 5 -27 -2 -9 -7 -13 -7 -13 2 0 10 -3 10 -15 0 -12
-10 -15 -10 -15 1 0 12 -2 12 -9 0 -6 -9 -10 -10 -16 -2 -5 9 -11 9 -22 0 -12
-10 -16 -10 -24 2 -7 11 -9 11 -9 0 0 -11 -3 -11 -15 -1 -11 9 -15 9 -15 1 0
-7 -5 -9 -12 -5 -18 12 -48 12 -55 1 -3 -5 -9 -3 -14 4 -7 12 -9 12 -9 0 0
-11 -3 -11 -15 -1 -12 10 -15 10 -15 -1 0 -10 -3 -10 -12 -1 -9 9 -15 7 -25
-6 -8 -9 -12 -12 -9 -5 8 15 -10 27 -19 13 -5 -7 -11 -8 -19 -1 -7 6 -17 6
-26 1 -8 -5 -21 -5 -32 1 -13 7 -18 6 -18 -2 0 -9 -3 -9 -14 0 -11 9 -16 9
-21 0 -6 -8 -10 -7 -16 2 -5 8 -9 9 -9 3 0 -14 -30 -14 -30 0 0 6 -4 5 -9 -3
-6 -9 -10 -10 -16 -2 -5 9 -11 9 -22 0 -12 -10 -16 -10 -24 2 -6 10 -9 11 -9
1 0 -9 -5 -10 -19 -2 -14 7 -22 7 -27 -1 -4 -8 -9 -7 -15 2 -7 12 -9 12 -9 0
0 -11 -3 -11 -15 -1 -8 7 -15 8 -15 3 0 -5 -7 -10 -15 -10 -8 0 -15 5 -15 10
0 5 -7 4 -15 -3 -12 -10 -15 -10 -15 1 0 12 -2 12 -9 0 -5 -7 -11 -9 -14 -4
-7 11 -37 11 -55 -1 -7 -4 -12 -2 -12 5 0 8 -4 8 -15 -1 -8 -7 -15 -8 -15 -3
0 11 -29 11 -48 -1 -7 -4 -12 -2 -12 6 0 10 -2 10 -9 -1 -6 -9 -10 -10 -16 -2
-5 9 -10 9 -21 0 -11 -9 -14 -8 -14 2 0 12 -2 12 -9 0 -6 -9 -10 -10 -16 -2
-5 9 -10 9 -20 1 -10 -8 -15 -8 -20 0 -5 8 -11 8 -21 -1 -11 -9 -14 -8 -14 2
0 12 -2 12 -9 0 -6 -9 -10 -10 -16 -2 -5 9 -10 9 -21 0 -11 -9 -14 -8 -14 2 0
12 -2 12 -9 0 -6 -9 -10 -10 -16 -2 -5 9 -11 9 -22 0 -12 -10 -16 -10 -24 2
-7 11 -9 11 -9 0 0 -11 -3 -11 -15 -1 -10 9 -15 9 -15 1 0 -13 -22 -10 -32 4
-5 6 -8 5 -8 -4 0 -11 -3 -11 -15 -1 -12 10 -15 10 -15 -1 0 -10 -3 -10 -12
-1 -7 7 -17 8 -30 1 -13 -7 -18 -6 -18 3 -1 8 -7 5 -15 -6 -13 -18 -15 -18
-15 -3 0 14 -4 16 -18 8 -11 -6 -24 -6 -32 -1 -9 5 -19 5 -27 -2 -8 -6 -13 -6
-13 -1 0 5 -7 10 -15 10 -8 0 -15 -5 -15 -10 0 -5 -6 -4 -14 2 -10 9 -16 9
-21 1 -5 -8 -10 -8 -20 0 -10 8 -15 8 -20 -1 -6 -8 -10 -7 -16 2 -7 12 -9 12
-9 0 0 -10 -3 -11 -14 -2 -11 9 -16 9 -21 0 -6 -8 -10 -7 -16 2 -7 12 -9 12
-9 0 0 -10 -3 -11 -14 -2 -11 9 -16 9 -21 0 -6 -8 -10 -7 -16 2 -5 8 -9 9 -9
3 0 -14 -30 -14 -30 0 0 6 -4 5 -9 -3 -6 -9 -10 -10 -16 -2 -5 9 -11 9 -22 0
-12 -10 -16 -10 -24 2 -6 10 -9 11 -9 1 0 -9 -5 -10 -18 -3 -13 7 -23 6 -30
-1 -7 -7 -12 -8 -12 -2 0 5 -9 10 -20 10 -11 0 -20 -3 -20 -6 0 -4 -7 -7 -15
-7 -8 0 -15 3 -15 7 0 9 -32 6 -48 -4 -7 -4 -12 -2 -12 6 0 10 -2 10 -9 -1 -5
-8 -11 -9 -15 -3 -6 9 -53 8 -63 -2 -4 -3 -12 -1 -20 5 -10 9 -13 8 -13 -1 0
-10 -3 -10 -14 -1 -11 9 -16 9 -21 0 -6 -8 -10 -7 -16 2 -5 8 -9 9 -9 3 0 -14
-30 -14 -30 0 0 6 -4 5 -9 -3 -6 -9 -10 -10 -16 -2 -5 9 -10 9 -21 0 -11 -9
-14 -8 -14 2 0 12 -2 12 -9 0 -6 -9 -10 -10 -16 -2 -5 9 -10 9 -21 0 -11 -9
-14 -8 -14 2 0 9 -3 10 -8 4 -11 -15 -32 -17 -32 -2 0 9 -3 8 -9 -2 -6 -9 -10
-10 -16 -2 -5 9 -11 9 -22 0 -12 -10 -16 -10 -24 2 -6 10 -9 11 -9 1 0 -9 -5
-10 -19 -2 -14 7 -22 7 -27 -1 -4 -8 -9 -7 -15 2 -7 12 -9 12 -9 0 0 -11 -3
-11 -15 -1 -12 10 -15 10 -15 -1 0 -10 -3 -10 -12 -1 -7 7 -17 8 -30 1 -13 -7
-18 -6 -18 3 0 10 -2 10 -9 -1 -5 -7 -11 -9 -14 -4 -7 11 -37 11 -55 -1 -7 -4
-12 -2 -12 5 0 8 -4 8 -15 -1 -11 -9 -15 -9 -15 -1 0 8 -5 9 -18 2 -11 -6 -24
-6 -32 -1 -9 5 -19 5 -27 -2 -9 -7 -13 -7 -13 2 0 10 -3 10 -15 0 -12 -10 -15
-10 -15 1 0 12 -2 12 -9 0 -6 -9 -10 -10 -16 -2 -5 9 -11 9 -22 0 -12 -10 -16
-10 -24 2 -7 11 -9 11 -9 0 0 -9 -4 -10 -12 -5 -16 11 -39 11 -55 1 -8 -5 -13
-3 -13 4 0 9 -3 9 -14 0 -11 -9 -15 -9 -19 1 -4 10 -6 10 -6 -1 -1 -11 -4 -11
-18 0 -15 12 -16 12 -8 -1 8 -13 7 -13 -8 -1 -14 11 -17 11 -17 0 0 -10 -3
-10 -12 -1 -7 7 -17 8 -29 2 -12 -7 -20 -6 -24 0 -5 8 -11 7 -21 -1 -11 -9
-14 -8 -14 2 0 11 -2 11 -10 -1 -8 -12 -10 -12 -10 -1 0 11 -3 11 -17 0 -15
-12 -16 -12 -8 1 7 13 6 13 -7 2 -13 -10 -17 -10 -21 0 -4 10 -6 10 -6 -1 -1
-11 -4 -11 -16 -1 -12 10 -15 10 -15 0 0 -8 -4 -9 -12 -4 -16 11 -39 11 -57 0
-8 -5 -16 -3 -22 5 -7 12 -9 12 -9 0 0 -11 -3 -11 -15 -1 -12 10 -15 10 -15 0
0 -10 -3 -10 -14 -1 -10 9 -16 9 -21 1 -5 -8 -11 -8 -21 1 -11 9 -14 8 -14 -2
0 -10 -3 -10 -12 -1 -7 7 -17 8 -30 1 -13 -7 -18 -6 -18 3 0 10 -2 10 -9 -1
-5 -7 -11 -9 -14 -4 -7 11 -37 11 -55 -1 -7 -4 -12 -2 -12 5 0 8 -4 8 -15 -1
-11 -9 -15 -9 -15 -1 0 8 -5 9 -18 2 -11 -6 -24 -6 -32 -1 -9 5 -19 5 -27 -2
-9 -7 -13 -7 -13 2 0 9 -3 10 -13 1 -10 -8 -17 -7 -25 1 -9 9 -12 9 -12 -3 0
-12 -2 -12 -10 1 -6 10 -10 11 -10 2 0 -14 -21 -12 -32 3 -5 6 -8 4 -8 -5 0
-13 -1 -13 -10 0 -8 12 -10 12 -10 1 0 -9 -4 -10 -12 -5 -16 11 -68 11 -85 1
-8 -5 -13 -3 -13 4 0 8 -4 8 -15 -1 -12 -10 -15 -10 -15 0 0 10 -3 10 -15 0
-12 -10 -15 -10 -15 1 0 9 -3 10 -8 4 -10 -14 -32 -17 -32 -4 0 8 -5 8 -15 -1
-12 -10 -15 -10 -15 0 0 10 -3 10 -15 0 -12 -10 -15 -10 -15 0 0 10 -3 10 -14
1 -11 -9 -15 -9 -19 1 -4 10 -6 10 -6 -1 -1 -11 -4 -11 -16 -1 -12 10 -15 10
-15 -1 0 -11 -2 -11 -10 1 -5 8 -10 10 -10 3 0 -12 -17 -12 -37 0 -6 4 -14 1
-16 -5 -4 -10 -6 -9 -6 1 -1 11 -4 11 -16 1 -12 -10 -15 -10 -15 0 0 8 -4 9
-12 4 -15 -11 -38 -11 -55 -1 -6 4 -15 3 -18 -3 -5 -8 -11 -7 -21 1 -11 9 -14
8 -14 -2 0 -12 -2 -12 -9 0 -6 10 -10 10 -16 1 -6 -9 -10 -9 -16 1 -7 11 -9
11 -9 -1 0 -13 -1 -13 -10 0 -8 12 -11 13 -19 1 -6 -9 -10 -10 -16 -2 -5 9
-11 9 -23 -1 -13 -11 -14 -11 -7 1 6 11 4 13 -11 7 -32 -13 -55 -15 -49 -5 9
13 -9 11 -23 -3 -9 -9 -12 -9 -12 1 0 11 -3 11 -17 0 -11 -10 -14 -10 -9 -1 8
14 -3 16 -24 2 -9 -6 -19 -5 -28 2 -10 9 -16 8 -22 -1 -5 -10 -9 -10 -15 -2
-5 9 -10 9 -20 1 -10 -8 -16 -7 -24 7 -10 17 -10 17 -11 -1 0 -20 0 -20 -16 0
-8 10 -13 14 -10 7 4 -6 2 -14 -4 -18 -5 -3 -10 -1 -10 6 0 8 -4 8 -15 -1 -12
-10 -15 -10 -15 0 0 9 -4 9 -17 -1 -11 -10 -14 -10 -9 -1 4 6 3 12 -3 12 -5 0
-13 -5 -17 -11 -4 -8 -9 -7 -15 2 -8 12 -11 11 -19 -1 -8 -12 -10 -12 -10 -1
0 10 -3 11 -13 2 -10 -8 -17 -7 -25 1 -9 9 -12 9 -12 -1 0 -11 -3 -11 -15 -1
-12 10 -15 10 -15 -1 0 -9 -3 -10 -8 -4 -10 15 -52 16 -52 2 0 -8 -3 -7 -9 2
-6 9 -10 10 -16 2 -5 -9 -10 -9 -20 -1 -10 8 -15 8 -20 0 -5 -8 -10 -8 -20 0
-9 8 -15 8 -20 0 -3 -6 -12 -7 -18 -3 -20 12 -37 12 -37 0 0 -7 -4 -6 -9 2 -7
11 -13 12 -23 3 -11 -9 -17 -9 -26 0 -9 9 -12 9 -12 -1 0 -7 -5 -9 -10 -6 -6
4 -7 12 -3 18 3 7 -3 4 -14 -6 -14 -12 -23 -15 -28 -8 -3 6 -11 11 -16 11 -6
0 -7 -6 -3 -12 6 -10 4 -10 -8 0 -9 7 -19 9 -22 4 -6 -10 -42 -9 -52 1 -4 4
-14 1 -22 -6 -10 -7 -13 -7 -9 -1 4 8 -5 11 -28 10 -19 0 -35 -5 -35 -11 0 -5
-4 -4 -9 3 -4 8 -12 14 -16 14 -4 0 -12 -6 -16 -14 -7 -10 -9 -10 -9 0 0 6 -7
12 -15 12 -8 0 -15 -6 -15 -12 0 -10 -2 -10 -9 0 -4 8 -12 14 -16 14 -4 0 -12
-6 -16 -14 -6 -9 -9 -10 -9 -1 0 9 -7 10 -25 3 -16 -6 -26 -6 -31 1 -4 6 -11
5 -22 -3 -12 -10 -14 -10 -8 0 4 6 3 12 -3 12 -5 0 -13 -5 -16 -10 -5 -8 -11
-7 -21 1 -11 9 -14 8 -14 -2 0 -11 -2 -11 -10 1 -6 9 -13 11 -17 5 -9 -12 -33
-13 -50 -2 -8 5 -13 3 -13 -5 0 -10 -3 -9 -11 2 -8 12 -12 12 -16 2 -4 -10 -8
-10 -19 -1 -11 9 -14 8 -14 -2 0 -11 -2 -11 -8 -1 -7 9 -15 10 -35 3 -18 -7
-28 -7 -33 0 -4 8 -9 7 -15 -2 -6 -10 -9 -11 -9 -2 0 15 -21 13 -32 -2 -5 -6
-8 -5 -8 4 0 10 -3 11 -14 2 -11 -9 -16 -9 -21 0 -6 8 -10 7 -16 -2 -7 -12 -9
-12 -9 0 0 11 -3 11 -15 1 -12 -10 -15 -10 -15 0 0 9 -4 9 -17 -1 -9 -8 -14
-9 -10 -3 4 8 -2 11 -18 10 -14 0 -25 -5 -25 -11 0 -5 -5 -3 -10 5 -8 12 -11
13 -19 1 -6 -9 -11 -10 -15 -2 -5 8 -13 8 -26 1 -13 -7 -21 -7 -26 1 -4 8 -9
7 -15 -2 -6 -9 -9 -10 -9 -2 0 6 -8 10 -17 8 -10 -2 -18 -4 -18 -5 0 -7 -47
-5 -52 3 -3 5 -9 3 -14 -4 -7 -11 -9 -11 -9 1 0 13 -1 13 -10 0 -8 -12 -10
-12 -10 -1 0 10 -3 11 -14 2 -11 -10 -17 -8 -25 6 -10 17 -10 17 -11 -2 0 -15
-2 -17 -9 -6 -7 10 -10 11 -16 1 -6 -10 -11 -9 -22 5 -13 18 -13 18 -14 -1 0
-11 -3 -14 -6 -6 -4 10 -8 10 -19 1 -11 -9 -14 -9 -14 1 0 10 -3 10 -14 1 -10
-9 -16 -9 -21 -1 -5 8 -11 7 -23 -2 -13 -11 -14 -11 -7 2 8 13 7 13 -8 1 -13
-10 -17 -10 -17 -1 0 10 -3 10 -15 0 -12 -10 -16 -9 -21 4 -5 14 -7 14 -22 0
-15 -15 -16 -15 -22 2 -6 16 -7 16 -13 0 -5 -12 -12 -15 -24 -8 -20 9 -54 8
-71 -2 -6 -3 -12 1 -14 10 -3 16 -4 16 -17 0z m550 -1733 c13 -16 12 -17 -3
-4 -10 7 -18 15 -18 17 0 8 8 3 21 -13z m9469 -347 c0 -2 -8 -10 -17 -17 -16
-13 -17 -12 -4 4 13 16 21 21 21 13z"/>
<path d="M660 4086 c0 -2 8 -10 18 -17 15 -13 16 -12 3 4 -13 16 -21 21 -21
13z"/>
</g>
</svg>
