<svg width="800" height="400" viewBox="0 0 800 400" xmlns="http://www.w3.org/2000/svg"><defs><pattern id="satori_pattern_id_0" x="0" y="0" width="1" height="1" patternUnits="objectBoundingBox"><linearGradient id="satori_biid_0" x1="0" y1="0" x2="1" y2="0"><stop offset="0%" stop-color="#334d50"/><stop offset="100%" stop-color="#cbcaa5"/></linearGradient><rect x="0" y="0" width="800" height="400" fill="url(#satori_biid_0)"/></pattern></defs><mask id="satori_om-id"><rect x="0" y="0" width="800" height="400" fill="#fff"/></mask><rect x="0" y="0" width="800" height="400" fill="white"/><rect x="0" y="0" width="800" height="400" fill="url(#satori_pattern_id_0)"/><mask id="satori_om-id-0"><rect x="42" y="42" width="200" height="24" fill="#fff"/></mask><mask id="satori_om-id-0-0"><rect x="42" y="42" width="24" height="24" fill="#fff"/></mask><rect x="42" y="42" width="24" height="24" fill="black"/><mask id="satori_om-id-0-1"><rect x="74" y="42" width="168" height="24" fill="#fff"/></mask><path fill="black" d="M78.3 60.9L78.3 60.9Q77.3 60.9 76.5 60.6Q75.6 60.2 75.2 59.5Q74.7 58.8 74.7 57.7L74.7 57.7Q74.7 56.8 75.0 56.1Q75.4 55.5 75.9 55.2Q76.5 54.8 77.2 54.6Q78.0 54.4 78.8 54.3L78.8 54.3Q79.7 54.2 80.3 54.1Q80.9 54.0 81.2 53.9Q81.4 53.7 81.4 53.3L81.4 53.3L81.4 53.3Q81.4 52.6 81.0 52.2Q80.6 51.9 79.8 51.9L79.8 51.9Q79 51.9 78.5 52.2Q78.0 52.6 77.9 53.1L77.9 53.1L75.1 52.9Q75.3 51.9 75.9 51.2Q76.5 50.5 77.5 50.1Q78.5 49.7 79.8 49.7L79.8 49.7Q80.7 49.7 81.6 49.9Q82.4 50.1 83.1 50.5Q83.7 51.0 84.1 51.7Q84.5 52.4 84.5 53.4L84.5 53.4L84.5 60.7L81.6 60.7L81.6 59.2L81.5 59.2Q81.2 59.7 80.8 60.1Q80.4 60.5 79.7 60.7Q79.1 60.9 78.3 60.9ZM79.2 58.8L79.2 58.8Q79.9 58.8 80.4 58.6Q80.9 58.3 81.2 57.9Q81.5 57.4 81.5 56.8L81.5 56.8L81.5 55.7Q81.3 55.8 81.1 55.8Q80.8 55.9 80.5 56.0Q80.2 56.0 79.9 56.1Q79.6 56.1 79.4 56.2L79.4 56.2Q78.8 56.2 78.4 56.4Q78.0 56.6 77.8 56.9Q77.6 57.1 77.6 57.6L77.6 57.6Q77.6 58.2 78.0 58.5Q78.5 58.8 79.2 58.8ZM95.6 52.9L95.6 52.9L92.8 53.1Q92.7 52.7 92.5 52.4Q92.3 52.2 91.9 52.0Q91.5 51.8 91.0 51.8L91.0 51.8Q90.3 51.8 89.8 52.1Q89.3 52.4 89.3 52.9L89.3 52.9Q89.3 53.3 89.6 53.6Q89.9 53.8 90.7 54.0L90.7 54.0L92.7 54.4Q94.3 54.7 95.0 55.4Q95.8 56.2 95.8 57.3L95.8 57.3Q95.8 58.4 95.2 59.2Q94.6 60.0 93.5 60.5Q92.4 60.9 91.0 60.9L91.0 60.9Q88.8 60.9 87.5 60.0Q86.2 59.1 86.0 57.6L86.0 57.6L89.0 57.4Q89.1 58.1 89.6 58.4Q90.2 58.8 91.0 58.8L91.0 58.8Q91.8 58.8 92.2 58.4Q92.7 58.1 92.7 57.6L92.7 57.6Q92.7 57.2 92.4 57.0Q92.1 56.7 91.3 56.6L91.3 56.6L89.5 56.2Q87.9 55.9 87.1 55.1Q86.3 54.3 86.3 53.1L86.3 53.1Q86.3 52.0 86.9 51.3Q87.4 50.5 88.5 50.1Q89.5 49.7 90.9 49.7L90.9 49.7Q93.0 49.7 94.2 50.5Q95.4 51.4 95.6 52.9ZM100.4 54.4L100.4 54.4L100.4 60.7L97.4 60.7L97.4 46.2L100.3 46.2L100.3 51.7L100.5 51.7Q100.8 50.8 101.7 50.2Q102.5 49.7 103.7 49.7L103.7 49.7Q104.9 49.7 105.7 50.2Q106.6 50.7 107.0 51.6Q107.5 52.5 107.5 53.8L107.5 53.8L107.5 60.7L104.5 60.7L104.5 54.3Q104.5 53.3 104.0 52.7Q103.5 52.2 102.5 52.2L102.5 52.2Q101.9 52.2 101.4 52.4Q101.0 52.7 100.7 53.2Q100.4 53.7 100.4 54.4ZM112.6 60.7L109.6 60.7L109.6 49.8L112.6 49.8L112.6 60.7ZM111.1 48.4L111.1 48.4Q110.4 48.4 109.9 48.0Q109.5 47.5 109.5 46.9L109.5 46.9Q109.5 46.2 109.9 45.8Q110.4 45.3 111.1 45.3L111.1 45.3Q111.8 45.3 112.2 45.8Q112.7 46.2 112.7 46.9L112.7 46.9Q112.7 47.5 112.2 48.0Q111.8 48.4 111.1 48.4ZM123.8 52.9L123.8 52.9L121.0 53.1Q120.9 52.7 120.7 52.4Q120.5 52.2 120.1 52.0Q119.7 51.8 119.2 51.8L119.2 51.8Q118.5 51.8 118.0 52.1Q117.5 52.4 117.5 52.9L117.5 52.9Q117.5 53.3 117.8 53.6Q118.1 53.8 118.9 54.0L118.9 54.0L120.9 54.4Q122.5 54.7 123.2 55.4Q124.0 56.2 124.0 57.3L124.0 57.3Q124.0 58.4 123.4 59.2Q122.8 60.0 121.7 60.5Q120.6 60.9 119.2 60.9L119.2 60.9Q117.0 60.9 115.7 60.0Q114.4 59.1 114.2 57.6L114.2 57.6L117.2 57.4Q117.3 58.1 117.8 58.4Q118.4 58.8 119.2 58.8L119.2 58.8Q120.0 58.8 120.5 58.4Q120.9 58.1 120.9 57.6L120.9 57.6Q120.9 57.2 120.6 57.0Q120.3 56.7 119.5 56.6L119.5 56.6L117.7 56.2Q116.1 55.9 115.3 55.1Q114.5 54.3 114.5 53.1L114.5 53.1Q114.5 52.0 115.1 51.3Q115.6 50.5 116.7 50.1Q117.7 49.7 119.1 49.7L119.1 49.7Q121.2 49.7 122.4 50.5Q123.6 51.4 123.8 52.9ZM128.6 54.4L128.6 54.4L128.6 60.7L125.6 60.7L125.6 46.2L128.6 46.2L128.6 51.7L128.7 51.7Q129.0 50.8 129.9 50.2Q130.7 49.7 131.9 49.7L131.9 49.7Q133.1 49.7 133.9 50.2Q134.8 50.7 135.2 51.6Q135.7 52.5 135.7 53.8L135.7 53.8L135.7 60.7L132.7 60.7L132.7 54.3Q132.7 53.3 132.2 52.7Q131.7 52.2 130.7 52.2L130.7 52.2Q130.1 52.2 129.6 52.4Q129.2 52.7 128.9 53.2Q128.6 53.7 128.6 54.4ZM137.8 46.2L140.8 46.2L140.8 60.7L137.8 60.7L137.8 46.2ZM147.8 60.9L147.8 60.9Q146.2 60.9 145.0 60.2Q143.8 59.5 143.1 58.3Q142.5 57.0 142.5 55.3L142.5 55.3Q142.5 53.6 143.1 52.4Q143.8 51.1 145.0 50.4Q146.2 49.7 147.8 49.7L147.8 49.7Q149.5 49.7 150.7 50.4Q151.9 51.1 152.5 52.4Q153.2 53.6 153.2 55.3L153.2 55.3Q153.2 57.0 152.5 58.3Q151.9 59.5 150.7 60.2Q149.5 60.9 147.8 60.9ZM147.8 58.6L147.8 58.6Q148.6 58.6 149.1 58.2Q149.6 57.7 149.9 57.0Q150.1 56.2 150.1 55.3L150.1 55.3Q150.1 54.3 149.9 53.6Q149.6 52.8 149.1 52.4Q148.6 52.0 147.8 52.0L147.8 52.0Q147.1 52.0 146.6 52.4Q146.0 52.8 145.8 53.6Q145.5 54.3 145.5 55.3L145.5 55.3Q145.5 56.2 145.8 57.0Q146.0 57.7 146.6 58.2Q147.1 58.6 147.8 58.6ZM154.1 49.8L160.7 49.8L160.7 52.1L154.1 52.1L154.1 49.8ZM155.6 57.8L155.6 47.2L158.6 47.2L158.6 57.4Q158.6 57.8 158.7 58.0Q158.9 58.2 159.1 58.3Q159.3 58.4 159.6 58.4L159.6 58.4Q159.8 58.4 160.0 58.4Q160.3 58.4 160.4 58.3L160.4 58.3L160.9 60.6Q160.6 60.7 160.2 60.8Q159.8 60.8 159.2 60.9L159.2 60.9Q158.1 60.9 157.3 60.6Q156.5 60.2 156.0 59.5Q155.6 58.8 155.6 57.8L155.6 57.8ZM165.4 60.9L165.4 60.9Q164.4 60.9 163.5 60.6Q162.7 60.2 162.3 59.5Q161.8 58.8 161.8 57.7L161.8 57.7Q161.8 56.8 162.1 56.1Q162.5 55.5 163.0 55.2Q163.6 54.8 164.3 54.6Q165.1 54.4 165.9 54.3L165.9 54.3Q166.8 54.2 167.4 54.1Q168.0 54.0 168.3 53.9Q168.5 53.7 168.5 53.3L168.5 53.3L168.5 53.3Q168.5 52.6 168.1 52.2Q167.7 51.9 166.9 51.9L166.9 51.9Q166.1 51.9 165.6 52.2Q165.1 52.6 165.0 53.1L165.0 53.1L162.2 52.9Q162.4 51.9 163.0 51.2Q163.6 50.5 164.6 50.1Q165.6 49.7 166.9 49.7L166.9 49.7Q167.8 49.7 168.7 49.9Q169.5 50.1 170.2 50.5Q170.8 51.0 171.2 51.7Q171.6 52.4 171.6 53.4L171.6 53.4L171.6 60.7L168.7 60.7L168.7 59.2L168.6 59.2Q168.3 59.7 167.9 60.1Q167.5 60.5 166.8 60.7Q166.2 60.9 165.4 60.9ZM166.3 58.8L166.3 58.8Q166.9 58.8 167.5 58.6Q168.0 58.3 168.3 57.9Q168.5 57.4 168.5 56.8L168.5 56.8L168.5 55.7Q168.4 55.8 168.2 55.8Q167.9 55.9 167.6 56.0Q167.3 56.0 167.0 56.1Q166.7 56.1 166.4 56.2L166.4 56.2Q165.9 56.2 165.5 56.4Q165.1 56.6 164.9 56.9Q164.7 57.1 164.7 57.6L164.7 57.6Q164.7 58.2 165.1 58.5Q165.6 58.8 166.3 58.8ZM178.3 55.3L176.3 57.6L176.3 54.0L176.8 54.0L180.3 49.8L183.7 49.8L179.0 55.3L178.3 55.3ZM176.6 60.7L173.6 60.7L173.6 46.2L176.6 46.2L176.6 60.7ZM183.9 60.7L180.4 60.7L177.2 56.0L179.2 53.8L183.9 60.7ZM189.4 60.9L189.4 60.9Q187.7 60.9 186.5 60.2Q185.3 59.6 184.7 58.3Q184.0 57.0 184.0 55.3L184.0 55.3Q184.0 53.6 184.7 52.4Q185.3 51.1 186.5 50.4Q187.7 49.7 189.3 49.7L189.3 49.7Q190.4 49.7 191.3 50.0Q192.2 50.4 192.9 51.0Q193.6 51.7 194.0 52.8Q194.4 53.8 194.4 55.2L194.4 55.2L194.4 56.0L185.2 56.0L185.2 54.2L191.6 54.2Q191.6 53.5 191.3 53.0Q191.0 52.5 190.5 52.2Q190.0 51.9 189.3 51.9L189.3 51.9Q188.7 51.9 188.1 52.2Q187.6 52.6 187.3 53.1Q187.0 53.6 187.0 54.3L187.0 54.3L187.0 56.0Q187.0 56.9 187.3 57.4Q187.6 58.0 188.2 58.4Q188.7 58.7 189.5 58.7L189.5 58.7Q190.0 58.7 190.4 58.5Q190.8 58.4 191.1 58.1Q191.4 57.8 191.6 57.4L191.6 57.4L194.4 57.6Q194.1 58.6 193.5 59.4Q192.8 60.1 191.8 60.5Q190.8 60.9 189.4 60.9ZM197.8 60.9L197.8 60.9Q197.1 60.9 196.6 60.4Q196.1 59.9 196.1 59.2L196.1 59.2Q196.1 58.5 196.6 58.0Q197.1 57.5 197.8 57.5L197.8 57.5Q198.5 57.5 199.0 58.0Q199.5 58.5 199.5 59.2L199.5 59.2Q199.5 59.7 199.3 60.1Q199.1 60.4 198.7 60.7Q198.3 60.9 197.8 60.9ZM206.6 60.9L206.6 60.9Q205.0 60.9 203.8 60.2Q202.6 59.5 201.9 58.2Q201.3 57.0 201.3 55.3L201.3 55.3Q201.3 53.6 201.9 52.4Q202.6 51.1 203.8 50.4Q205.0 49.7 206.6 49.7L206.6 49.7Q208.1 49.7 209.1 50.2Q210.2 50.7 210.8 51.6Q211.4 52.6 211.5 53.8L211.5 53.8L208.7 53.8Q208.5 53.0 208.0 52.5Q207.5 52.0 206.7 52.0L206.7 52.0Q206.0 52.0 205.4 52.4Q204.9 52.8 204.6 53.5Q204.3 54.2 204.3 55.3L204.3 55.3Q204.3 56.3 204.6 57.0Q204.9 57.8 205.4 58.2Q206.0 58.5 206.7 58.5L206.7 58.5Q207.2 58.5 207.6 58.3Q208.0 58.1 208.3 57.7Q208.6 57.3 208.7 56.7L208.7 56.7L211.5 56.7Q211.4 58.0 210.8 58.9Q210.2 59.9 209.2 60.4Q208.1 60.9 206.6 60.9ZM218.1 60.9L218.1 60.9Q216.4 60.9 215.2 60.2Q214.0 59.5 213.3 58.3Q212.7 57.0 212.7 55.3L212.7 55.3Q212.7 53.6 213.3 52.4Q214.0 51.1 215.2 50.4Q216.4 49.7 218.1 49.7L218.1 49.7Q219.7 49.7 220.9 50.4Q222.1 51.1 222.8 52.4Q223.4 53.6 223.4 55.3L223.4 55.3Q223.4 57.0 222.8 58.3Q222.1 59.5 220.9 60.2Q219.7 60.9 218.1 60.9ZM218.1 58.6L218.1 58.6Q218.8 58.6 219.3 58.2Q219.8 57.7 220.1 57.0Q220.4 56.2 220.4 55.3L220.4 55.3Q220.4 54.3 220.1 53.6Q219.8 52.8 219.3 52.4Q218.8 52.0 218.1 52.0L218.1 52.0Q217.3 52.0 216.8 52.4Q216.3 52.8 216.0 53.6Q215.8 54.3 215.8 55.3L215.8 55.3Q215.8 56.2 216.0 57.0Q216.3 57.7 216.8 58.2Q217.3 58.6 218.1 58.6ZM228.1 60.7L225.1 60.7L225.1 49.8L228.0 49.8L228.0 51.7L228.1 51.7Q228.4 50.8 229.2 50.2Q230.0 49.7 231.1 49.7L231.1 49.7Q232.3 49.7 233.0 50.2Q233.8 50.8 234.1 51.7L234.1 51.7L234.2 51.7Q234.5 50.8 235.4 50.2Q236.3 49.7 237.5 49.7L237.5 49.7Q239.0 49.7 240.0 50.6Q240.9 51.6 240.9 53.4L240.9 53.4L240.9 60.7L237.9 60.7L237.9 54.0Q237.9 53.1 237.4 52.6Q237.0 52.2 236.2 52.2L236.2 52.2Q235.4 52.2 234.9 52.7Q234.5 53.2 234.5 54.1L234.5 54.1L234.5 60.7L231.6 60.7L231.6 53.9Q231.6 53.1 231.1 52.6Q230.6 52.2 229.9 52.2L229.9 52.2Q229.4 52.2 229.0 52.4Q228.6 52.7 228.3 53.1Q228.1 53.6 228.1 54.2L228.1 54.2L228.1 60.7Z "/><mask id="satori_om-id-1"><rect x="125" y="137" width="550" height="126" fill="#fff"/></mask><rect x="125" y="137" width="550" height="126" fill="black"/><mask id="satori_om-id-1-0"><rect x="331" y="157" width="138" height="15" fill="#fff"/></mask><path fill="#454545" d="M334.2 172.6L331.9 172.6L331.9 161.3L334.1 161.3L334.1 162.7L334.2 162.7Q334.4 162.4 334.7 162.0Q335.0 161.7 335.4 161.5Q335.9 161.2 336.6 161.2L336.6 161.2Q337.5 161.2 338.2 161.7Q339.0 162.2 339.4 163.1Q339.9 164.0 339.9 165.4L339.9 165.4Q339.9 166.8 339.4 167.8Q339.0 168.7 338.3 169.2Q337.5 169.7 336.6 169.7L336.6 169.7Q335.9 169.7 335.4 169.4Q335.0 169.2 334.7 168.9Q334.4 168.6 334.2 168.2L334.2 168.2L334.2 168.2L334.2 172.6ZM334.1 165.4L334.1 165.4Q334.1 166.2 334.3 166.7Q334.5 167.3 334.9 167.6Q335.3 167.9 335.8 167.9L335.8 167.9Q336.4 167.9 336.8 167.5Q337.2 167.2 337.4 166.7Q337.6 166.2 337.6 165.4L337.6 165.4Q337.6 164.7 337.4 164.2Q337.2 163.7 336.8 163.3Q336.4 163.0 335.8 163.0L335.8 163.0Q335.3 163.0 334.9 163.3Q334.5 163.6 334.3 164.2Q334.1 164.7 334.1 165.4ZM343.3 169.5L341.1 169.5L341.1 161.3L343.3 161.3L343.3 162.8L343.4 162.8Q343.6 162.0 344.1 161.6Q344.6 161.2 345.3 161.2L345.3 161.2Q345.5 161.2 345.7 161.2Q345.9 161.3 346.0 161.3L346.0 161.3L346.0 163.3Q345.9 163.3 345.6 163.2Q345.3 163.2 345.1 163.2L345.1 163.2Q344.6 163.2 344.2 163.4Q343.8 163.6 343.6 164.0Q343.3 164.4 343.3 164.9L343.3 164.9L343.3 169.5ZM350.2 169.7L350.2 169.7Q349.0 169.7 348.1 169.2Q347.1 168.6 346.7 167.7Q346.2 166.7 346.2 165.5L346.2 165.5Q346.2 164.2 346.7 163.2Q347.1 162.3 348.1 161.8Q349.0 161.2 350.2 161.2L350.2 161.2Q351.4 161.2 352.3 161.8Q353.2 162.3 353.7 163.2Q354.2 164.2 354.2 165.5L354.2 165.5Q354.2 166.7 353.7 167.7Q353.2 168.6 352.3 169.2Q351.4 169.7 350.2 169.7ZM350.2 167.9L350.2 167.9Q350.8 167.9 351.2 167.6Q351.5 167.3 351.7 166.7Q351.9 166.2 351.9 165.5L351.9 165.5Q351.9 164.7 351.7 164.2Q351.5 163.6 351.2 163.3Q350.8 163.0 350.2 163.0L350.2 163.0Q349.6 163.0 349.3 163.3Q348.9 163.6 348.7 164.2Q348.5 164.7 348.5 165.5L348.5 165.5Q348.5 166.2 348.7 166.7Q348.9 167.3 349.3 167.6Q349.6 167.9 350.2 167.9ZM355.4 169.9L355.4 161.3L357.7 161.3L357.7 169.9Q357.7 170.9 357.3 171.5Q356.9 172.1 356.2 172.3Q355.5 172.6 354.6 172.6L354.6 172.6Q354.4 172.6 354.3 172.6Q354.2 172.6 354.1 172.6L354.1 172.6L354.1 170.8Q354.2 170.8 354.3 170.8Q354.3 170.8 354.4 170.8L354.4 170.8Q354.9 170.8 355.2 170.6Q355.4 170.4 355.4 169.9L355.4 169.9ZM356.5 160.3L356.5 160.3Q356.0 160.3 355.7 160.0Q355.3 159.6 355.3 159.1L355.3 159.1Q355.3 158.7 355.7 158.3Q356.0 158.0 356.5 158.0L356.5 158.0Q357.0 158.0 357.4 158.3Q357.7 158.7 357.7 159.1L357.7 159.1Q357.7 159.6 357.4 160.0Q357.0 160.3 356.5 160.3ZM362.9 169.7L362.9 169.7Q361.6 169.7 360.7 169.2Q359.8 168.7 359.3 167.7Q358.8 166.8 358.8 165.5L358.8 165.5Q358.8 164.2 359.3 163.3Q359.8 162.3 360.7 161.8Q361.6 161.2 362.8 161.2L362.8 161.2Q363.6 161.2 364.3 161.5Q365.0 161.8 365.5 162.3Q366.0 162.8 366.3 163.6Q366.6 164.3 366.6 165.4L366.6 165.4L366.6 166.0L359.7 166.0L359.7 164.6L364.5 164.6Q364.5 164.1 364.3 163.7Q364.1 163.4 363.7 163.1Q363.3 162.9 362.8 162.9L362.8 162.9Q362.3 162.9 361.9 163.2Q361.5 163.4 361.3 163.8Q361.1 164.2 361.1 164.7L361.1 164.7L361.1 166.0Q361.1 166.6 361.3 167.1Q361.5 167.5 361.9 167.8Q362.3 168.0 362.9 168.0L362.9 168.0Q363.3 168.0 363.6 167.9Q363.9 167.8 364.1 167.6Q364.4 167.4 364.5 167.0L364.5 167.0L366.6 167.2Q366.4 167.9 365.9 168.5Q365.4 169.1 364.7 169.4Q363.9 169.7 362.9 169.7ZM371.5 169.7L371.5 169.7Q370.2 169.7 369.3 169.2Q368.4 168.6 367.9 167.7Q367.5 166.7 367.5 165.5L367.5 165.5Q367.5 164.2 367.9 163.3Q368.4 162.3 369.3 161.8Q370.2 161.2 371.5 161.2L371.5 161.2Q372.5 161.2 373.4 161.6Q374.2 162.0 374.6 162.7Q375.1 163.4 375.1 164.4L375.1 164.4L373.0 164.4Q372.9 163.8 372.5 163.4Q372.1 163.0 371.5 163.0L371.5 163.0Q371.0 163.0 370.6 163.3Q370.2 163.6 370.0 164.1Q369.8 164.7 369.8 165.4L369.8 165.4Q369.8 166.2 370.0 166.8Q370.2 167.3 370.6 167.6Q371.0 167.9 371.5 167.9L371.5 167.9Q371.9 167.9 372.2 167.7Q372.5 167.6 372.7 167.3Q372.9 167.0 373.0 166.5L373.0 166.5L375.1 166.5Q375.1 167.5 374.6 168.2Q374.2 168.9 373.4 169.3Q372.6 169.7 371.5 169.7ZM375.7 161.3L380.6 161.3L380.6 163.1L375.7 163.1L375.7 161.3ZM376.8 167.3L376.8 159.4L379.1 159.4L379.1 167.0Q379.1 167.3 379.2 167.5Q379.3 167.7 379.5 167.7Q379.6 167.8 379.9 167.8L379.9 167.8Q380.0 167.8 380.2 167.8Q380.3 167.8 380.4 167.7L380.4 167.7L380.8 169.4Q380.6 169.5 380.3 169.6Q380.0 169.6 379.6 169.6L379.6 169.6Q378.7 169.7 378.1 169.4Q377.5 169.2 377.2 168.6Q376.8 168.1 376.8 167.3L376.8 167.3Z M388.3 169.7L388.3 169.7Q387.4 169.7 386.7 169.2Q385.9 168.7 385.5 167.8Q385.0 166.8 385.0 165.4L385.0 165.4Q385.0 164.0 385.5 163.1Q385.9 162.2 386.7 161.7Q387.4 161.2 388.3 161.2L388.3 161.2Q389.0 161.2 389.5 161.5Q389.9 161.7 390.2 162.0Q390.5 162.4 390.7 162.7L390.7 162.7L390.7 162.7L390.7 158.6L393.0 158.6L393.0 169.5L390.8 169.5L390.8 168.2L390.7 168.2Q390.5 168.6 390.2 168.9Q389.9 169.2 389.5 169.4Q389.0 169.7 388.3 169.7ZM389.1 167.9L389.1 167.9Q389.6 167.9 390.0 167.6Q390.4 167.3 390.6 166.7Q390.8 166.2 390.8 165.4L390.8 165.4Q390.8 164.7 390.6 164.2Q390.4 163.6 390.0 163.3Q389.6 163.0 389.1 163.0L389.1 163.0Q388.5 163.0 388.1 163.3Q387.7 163.7 387.5 164.2Q387.3 164.7 387.3 165.4L387.3 165.4Q387.3 166.2 387.5 166.7Q387.7 167.2 388.1 167.5Q388.5 167.9 389.1 167.9ZM398.2 169.7L398.2 169.7Q397.0 169.7 396.1 169.2Q395.2 168.6 394.7 167.7Q394.2 166.7 394.2 165.5L394.2 165.5Q394.2 164.2 394.7 163.2Q395.2 162.3 396.1 161.8Q397.0 161.2 398.2 161.2L398.2 161.2Q399.5 161.2 400.4 161.8Q401.3 162.3 401.8 163.2Q402.3 164.2 402.3 165.5L402.3 165.5Q402.3 166.7 401.8 167.7Q401.3 168.6 400.4 169.2Q399.5 169.7 398.2 169.7ZM398.2 167.9L398.2 167.9Q398.8 167.9 399.2 167.6Q399.6 167.3 399.8 166.7Q400.0 166.2 400.0 165.5L400.0 165.5Q400.0 164.7 399.8 164.2Q399.6 163.6 399.2 163.3Q398.8 163.0 398.2 163.0L398.2 163.0Q397.7 163.0 397.3 163.3Q396.9 163.6 396.7 164.2Q396.5 164.7 396.5 165.5L396.5 165.5Q396.5 166.2 396.7 166.7Q396.9 167.3 397.3 167.6Q397.7 167.9 398.2 167.9ZM405.7 164.8L405.7 164.8L405.7 169.5L403.4 169.5L403.4 161.3L405.6 161.3L405.6 162.8L405.7 162.8Q406.0 162.1 406.6 161.7Q407.2 161.2 408.1 161.2L408.1 161.2Q409.0 161.2 409.6 161.6Q410.3 162.0 410.6 162.7Q411.0 163.4 411.0 164.3L411.0 164.3L411.0 169.5L408.7 169.5L408.7 164.7Q408.7 164.0 408.3 163.5Q407.9 163.1 407.2 163.1L407.2 163.1Q406.8 163.1 406.4 163.3Q406.1 163.5 405.9 163.9Q405.7 164.3 405.7 164.8ZM416.2 169.7L416.2 169.7Q414.9 169.7 414.0 169.2Q413.1 168.7 412.6 167.7Q412.1 166.8 412.1 165.5L412.1 165.5Q412.1 164.2 412.6 163.3Q413.1 162.3 414.0 161.8Q414.9 161.2 416.1 161.2L416.1 161.2Q416.9 161.2 417.6 161.5Q418.3 161.8 418.8 162.3Q419.3 162.8 419.6 163.6Q419.9 164.3 419.9 165.4L419.9 165.4L419.9 166.0L413.0 166.0L413.0 164.6L417.8 164.6Q417.8 164.1 417.6 163.7Q417.4 163.4 417.0 163.1Q416.6 162.9 416.1 162.9L416.1 162.9Q415.6 162.9 415.2 163.2Q414.8 163.4 414.6 163.8Q414.3 164.2 414.3 164.7L414.3 164.7L414.3 166.0Q414.3 166.6 414.6 167.1Q414.8 167.5 415.2 167.8Q415.6 168.0 416.2 168.0L416.2 168.0Q416.6 168.0 416.9 167.9Q417.2 167.8 417.4 167.6Q417.7 167.4 417.8 167.0L417.8 167.0L419.9 167.2Q419.7 167.9 419.2 168.5Q418.7 169.1 417.9 169.4Q417.2 169.7 416.2 169.7Z M427.2 169.7L427.2 169.7Q426.3 169.7 425.6 169.2Q424.8 168.7 424.4 167.8Q423.9 166.8 423.9 165.4L423.9 165.4Q423.9 164.0 424.4 163.1Q424.8 162.2 425.6 161.7Q426.3 161.2 427.2 161.2L427.2 161.2Q427.9 161.2 428.4 161.5Q428.9 161.7 429.1 162.0Q429.4 162.4 429.6 162.7L429.6 162.7L429.6 162.7L429.6 158.6L431.9 158.6L431.9 169.5L429.7 169.5L429.7 168.2L429.6 168.2Q429.4 168.6 429.1 168.9Q428.8 169.2 428.4 169.4Q427.9 169.7 427.2 169.7ZM428.0 167.9L428.0 167.9Q428.5 167.9 428.9 167.6Q429.3 167.3 429.5 166.7Q429.7 166.2 429.7 165.4L429.7 165.4Q429.7 164.7 429.5 164.2Q429.3 163.6 428.9 163.3Q428.5 163.0 428.0 163.0L428.0 163.0Q427.4 163.0 427.0 163.3Q426.6 163.7 426.4 164.2Q426.2 164.7 426.2 165.4L426.2 165.4Q426.2 166.2 426.4 166.7Q426.6 167.2 427.0 167.5Q427.4 167.9 428.0 167.9ZM438.7 166.0L438.7 166.0L438.7 161.3L441.0 161.3L441.0 169.5L438.8 169.5L438.8 168.0L438.7 168.0Q438.4 168.8 437.8 169.2Q437.1 169.6 436.2 169.6L436.2 169.6Q435.4 169.6 434.8 169.3Q434.1 168.9 433.8 168.2Q433.4 167.5 433.4 166.6L433.4 166.6L433.4 161.3L435.7 161.3L435.7 166.2Q435.7 166.9 436.1 167.3Q436.5 167.7 437.1 167.7L437.1 167.7Q437.5 167.7 437.9 167.5Q438.3 167.3 438.5 167.0Q438.7 166.6 438.7 166.0ZM444.7 169.5L442.5 169.5L442.5 161.3L444.6 161.3L444.6 162.8L444.7 162.8Q445.0 162.0 445.5 161.6Q446.0 161.2 446.7 161.2L446.7 161.2Q446.9 161.2 447.1 161.2Q447.3 161.3 447.4 161.3L447.4 161.3L447.4 163.3Q447.3 163.3 447.0 163.2Q446.7 163.2 446.5 163.2L446.5 163.2Q446.0 163.2 445.6 163.4Q445.2 163.6 444.9 164.0Q444.7 164.4 444.7 164.9L444.7 164.9L444.7 169.5ZM450.5 169.5L448.3 169.5L448.3 161.3L450.5 161.3L450.5 169.5ZM449.4 160.3L449.4 160.3Q448.9 160.3 448.5 160.0Q448.2 159.6 448.2 159.1L448.2 159.1Q448.2 158.7 448.5 158.3Q448.9 158.0 449.4 158.0L449.4 158.0Q449.9 158.0 450.3 158.3Q450.6 158.7 450.6 159.1L450.6 159.1Q450.6 159.6 450.3 160.0Q449.9 160.3 449.4 160.3ZM454.3 164.8L454.3 164.8L454.3 169.5L452.0 169.5L452.0 161.3L454.2 161.3L454.2 162.8L454.3 162.8Q454.6 162.1 455.2 161.7Q455.8 161.2 456.7 161.2L456.7 161.2Q457.6 161.2 458.2 161.6Q458.9 162.0 459.2 162.7Q459.6 163.4 459.6 164.3L459.6 164.3L459.6 169.5L457.3 169.5L457.3 164.7Q457.3 164.0 456.9 163.5Q456.5 163.1 455.8 163.1L455.8 163.1Q455.4 163.1 455.0 163.3Q454.7 163.5 454.5 163.9Q454.3 164.3 454.3 164.8ZM464.7 172.8L464.7 172.8Q463.6 172.8 462.8 172.5Q462.0 172.2 461.6 171.6Q461.1 171.1 461.0 170.5L461.0 170.5L463.1 170.2Q463.2 170.4 463.4 170.7Q463.6 170.9 463.9 171.0Q464.3 171.1 464.8 171.1L464.8 171.1Q465.5 171.1 466.0 170.8Q466.5 170.4 466.5 169.6L466.5 169.6L466.5 168.1L466.4 168.1Q466.2 168.4 465.9 168.7Q465.6 169.0 465.2 169.2Q464.7 169.4 464.0 169.4L464.0 169.4Q463.1 169.4 462.4 169.0Q461.6 168.6 461.2 167.7Q460.7 166.8 460.7 165.4L460.7 165.4Q460.7 164.0 461.2 163.1Q461.6 162.2 462.4 161.7Q463.1 161.2 464.0 161.2L464.0 161.2Q464.7 161.2 465.2 161.5Q465.7 161.7 465.9 162.0Q466.2 162.4 466.4 162.7L466.4 162.7L466.5 162.7L466.5 161.3L468.7 161.3L468.7 169.6Q468.7 170.7 468.2 171.4Q467.7 172.1 466.8 172.4Q465.9 172.8 464.7 172.8ZM464.8 167.7L464.8 167.7Q465.3 167.7 465.7 167.4Q466.1 167.2 466.3 166.6Q466.5 166.1 466.5 165.4L466.5 165.4Q466.5 164.7 466.3 164.2Q466.1 163.6 465.7 163.3Q465.3 163.0 464.8 163.0L464.8 163.0Q464.2 163.0 463.8 163.3Q463.4 163.6 463.2 164.2Q463.0 164.7 463.0 165.4L463.0 165.4Q463.0 166.1 463.2 166.6Q463.4 167.1 463.8 167.4Q464.2 167.7 464.8 167.7Z "/><path fill="white" d="M212.3 185.0L208.6 185.0Q208.5 183.9 207.7 183.3Q206.9 182.7 205.5 182.7L205.5 182.7Q204.5 182.7 203.9 183.0Q203.2 183.2 202.9 183.7Q202.6 184.2 202.6 184.7L202.6 184.7Q202.5 185.2 202.8 185.6Q203.0 186.0 203.4 186.2Q203.8 186.5 204.3 186.7Q204.8 186.9 205.4 187.0L205.4 187.0L207.1 187.4Q208.3 187.6 209.3 188.1Q210.2 188.5 211.0 189.2Q211.7 189.8 212.1 190.7Q212.5 191.6 212.5 192.7L212.5 192.7Q212.5 194.4 211.7 195.6Q210.8 196.8 209.3 197.5Q207.7 198.2 205.5 198.2L205.5 198.2Q203.3 198.2 201.6 197.5Q200.0 196.8 199.1 195.5Q198.2 194.2 198.1 192.2L198.1 192.2L201.9 192.2Q201.9 193.1 202.4 193.7Q202.9 194.3 203.6 194.6Q204.4 195.0 205.4 195.0L205.4 195.0Q206.4 195.0 207.1 194.7Q207.8 194.4 208.2 193.9Q208.6 193.4 208.6 192.7L208.6 192.7Q208.6 192.1 208.3 191.7Q207.9 191.3 207.2 191.0Q206.5 190.7 205.6 190.4L205.6 190.4L203.6 189.9Q201.3 189.4 199.9 188.2Q198.6 187.0 198.6 185.0L198.6 185.0Q198.6 183.3 199.5 182.1Q200.4 180.9 202.0 180.2Q203.5 179.5 205.5 179.5L205.5 179.5Q207.5 179.5 209.0 180.2Q210.6 180.9 211.4 182.1Q212.2 183.3 212.3 185.0L212.3 185.0ZM220.9 198.2L220.9 198.2Q218.8 198.2 217.3 197.3Q215.8 196.4 215.0 194.8Q214.2 193.2 214.2 191.2L214.2 191.2Q214.2 189.1 215.0 187.5Q215.8 185.9 217.3 185.0Q218.8 184.1 220.8 184.1L220.8 184.1Q222.6 184.1 224.0 184.8Q225.3 185.4 226.1 186.6Q226.9 187.7 227.0 189.3L227.0 189.3L223.4 189.3Q223.2 188.3 222.6 187.7Q221.9 187.1 220.9 187.1L220.9 187.1Q220.0 187.1 219.4 187.5Q218.7 188.0 218.4 188.9Q218.0 189.8 218.0 191.1L218.0 191.1Q218.0 192.4 218.4 193.3Q218.7 194.2 219.4 194.7Q220.0 195.2 220.9 195.2L220.9 195.2Q221.6 195.2 222.1 194.9Q222.6 194.7 222.9 194.2Q223.3 193.6 223.4 192.9L223.4 192.9L227.0 192.9Q226.9 194.5 226.1 195.7Q225.3 196.9 224.0 197.5Q222.7 198.2 220.9 198.2ZM232.8 197.9L229.1 197.9L229.1 184.3L232.7 184.3L232.7 186.7L232.9 186.7Q233.2 185.4 234.1 184.7Q235.0 184.1 236.2 184.1L236.2 184.1Q236.4 184.1 236.8 184.1Q237.1 184.2 237.3 184.2L237.3 184.2L237.3 187.6Q237.1 187.5 236.6 187.4Q236.1 187.4 235.7 187.4L235.7 187.4Q234.9 187.4 234.3 187.7Q233.6 188.1 233.2 188.7Q232.8 189.4 232.8 190.2L232.8 190.2L232.8 197.9ZM242.7 197.9L239.0 197.9L239.0 184.3L242.7 184.3L242.7 197.9ZM240.9 182.5L240.9 182.5Q240.0 182.5 239.4 182.0Q238.8 181.4 238.8 180.6L238.8 180.6Q238.8 179.8 239.4 179.3Q240.0 178.7 240.9 178.7L240.9 178.7Q241.7 178.7 242.3 179.3Q242.9 179.8 242.9 180.6L242.9 180.6Q242.9 181.4 242.3 182.0Q241.7 182.5 240.9 182.5ZM249.2 197.9L245.4 197.9L245.4 184.3L249.1 184.3L249.1 186.7L249.2 186.7Q249.6 185.5 250.6 184.8Q251.6 184.1 253.0 184.1L253.0 184.1Q254.4 184.1 255.4 184.8Q256.4 185.5 256.7 186.7L256.7 186.7L256.9 186.7Q257.3 185.5 258.4 184.8Q259.5 184.1 261.0 184.1L261.0 184.1Q262.9 184.1 264.1 185.3Q265.3 186.5 265.3 188.8L265.3 188.8L265.3 197.9L261.5 197.9L261.5 189.5Q261.5 188.4 260.9 187.8Q260.3 187.2 259.4 187.2L259.4 187.2Q258.3 187.2 257.8 187.9Q257.2 188.5 257.2 189.6L257.2 189.6L257.2 197.9L253.5 197.9L253.5 189.4Q253.5 188.4 253.0 187.8Q252.4 187.2 251.4 187.2L251.4 187.2Q250.8 187.2 250.3 187.5Q249.8 187.9 249.5 188.4Q249.2 189.0 249.2 189.7L249.2 189.7L249.2 197.9ZM271.7 197.9L268.0 197.9L268.0 179.7L271.8 179.7L271.8 186.6L271.9 186.6Q272.1 186.0 272.6 185.5Q273.1 184.9 273.9 184.5Q274.6 184.1 275.8 184.1L275.8 184.1Q277.3 184.1 278.5 184.9Q279.8 185.7 280.5 187.2Q281.3 188.8 281.3 191.1L281.3 191.1Q281.3 193.4 280.6 195.0Q279.8 196.5 278.6 197.3Q277.3 198.1 275.8 198.1L275.8 198.1Q274.7 198.1 273.9 197.8Q273.1 197.4 272.6 196.9Q272.1 196.3 271.9 195.7L271.9 195.7L271.7 195.7L271.7 197.9ZM271.7 191.1L271.7 191.1Q271.7 192.3 272.0 193.2Q272.4 194.1 273.0 194.6Q273.7 195.1 274.6 195.1L274.6 195.1Q275.5 195.1 276.1 194.6Q276.8 194.1 277.1 193.2Q277.4 192.3 277.4 191.1L277.4 191.1Q277.4 189.9 277.1 189.0Q276.8 188.1 276.1 187.6Q275.5 187.1 274.6 187.1L274.6 187.1Q273.6 187.1 273.0 187.6Q272.4 188.1 272.0 189.0Q271.7 189.9 271.7 191.1ZM287.4 198.2L287.4 198.2Q286.1 198.2 285.0 197.7Q284.0 197.3 283.4 196.4Q282.8 195.5 282.8 194.1L282.8 194.1Q282.8 193.0 283.3 192.2Q283.7 191.4 284.4 191.0Q285.1 190.5 286.0 190.3Q287.0 190.0 288.0 189.9L288.0 189.9Q289.2 189.8 289.9 189.7Q290.6 189.6 290.9 189.3Q291.3 189.1 291.3 188.7L291.3 188.7L291.3 188.6Q291.3 187.8 290.7 187.3Q290.2 186.9 289.2 186.9L289.2 186.9Q288.2 186.9 287.6 187.3Q287.0 187.8 286.8 188.4L286.8 188.4L283.3 188.2Q283.6 186.9 284.4 186.0Q285.2 185.1 286.4 184.6Q287.6 184.1 289.3 184.1L289.3 184.1Q290.4 184.1 291.4 184.4Q292.5 184.6 293.3 185.2Q294.1 185.8 294.6 186.6Q295.1 187.5 295.1 188.7L295.1 188.7L295.1 197.9L291.5 197.9L291.5 196.0L291.4 196.0Q291.0 196.7 290.5 197.2Q289.9 197.6 289.2 197.9Q288.4 198.2 287.4 198.2ZM288.5 195.6L288.5 195.6Q289.3 195.6 289.9 195.2Q290.6 194.9 290.9 194.3Q291.3 193.8 291.3 193.0L291.3 193.0L291.3 191.6Q291.1 191.7 290.8 191.8Q290.5 191.9 290.1 192.0Q289.7 192.1 289.4 192.1Q289.0 192.2 288.7 192.2L288.7 192.2Q288.0 192.3 287.5 192.5Q287.0 192.7 286.7 193.1Q286.5 193.5 286.5 194.0L286.5 194.0Q286.5 194.8 287.0 195.2Q287.6 195.6 288.5 195.6Z M308.1 182.9L302.5 182.9L302.5 179.7L317.5 179.7L317.5 182.9L311.9 182.9L311.9 197.9L308.1 197.9L308.1 182.9ZM323.3 190.0L323.3 190.0L323.3 197.9L319.5 197.9L319.5 179.7L323.2 179.7L323.2 186.7L323.4 186.7Q323.8 185.5 324.9 184.8Q325.9 184.1 327.4 184.1L327.4 184.1Q328.9 184.1 329.9 184.7Q331.0 185.3 331.6 186.5Q332.2 187.6 332.2 189.2L332.2 189.2L332.2 197.9L328.4 197.9L328.4 189.9Q328.4 188.7 327.7 188.0Q327.1 187.3 325.9 187.3L325.9 187.3Q325.2 187.3 324.6 187.6Q324.0 187.9 323.7 188.5Q323.3 189.2 323.3 190.0ZM341.0 198.2L341.0 198.2Q338.9 198.2 337.4 197.3Q335.9 196.5 335.1 194.9Q334.3 193.3 334.3 191.2L334.3 191.2Q334.3 189.1 335.1 187.5Q335.9 185.9 337.4 185.0Q338.9 184.1 340.9 184.1L340.9 184.1Q342.2 184.1 343.4 184.5Q344.6 185.0 345.4 185.8Q346.3 186.7 346.8 188.0Q347.3 189.3 347.3 191.0L347.3 191.0L347.3 192.1L335.8 192.1L335.8 189.7L343.7 189.7Q343.7 188.9 343.4 188.3Q343.0 187.6 342.4 187.3Q341.8 186.9 341.0 186.9L341.0 186.9Q340.1 186.9 339.4 187.3Q338.8 187.7 338.4 188.4Q338.0 189.0 338.0 189.9L338.0 189.9L338.0 192.1Q338.0 193.1 338.4 193.8Q338.8 194.6 339.5 195.0Q340.2 195.4 341.1 195.4L341.1 195.4Q341.7 195.4 342.3 195.2Q342.8 195.0 343.2 194.7Q343.5 194.3 343.7 193.8L343.7 193.8L347.2 194.0Q347.0 195.3 346.1 196.2Q345.3 197.1 344.0 197.7Q342.7 198.2 341.0 198.2Z M358.8 197.9L355.0 197.9L355.0 179.7L367.0 179.7L367.0 182.9L358.8 182.9L358.8 187.2L366.2 187.2L366.2 190.4L358.8 190.4L358.8 197.9ZM372.8 197.9L369.0 197.9L369.0 184.3L372.7 184.3L372.7 186.7L372.8 186.7Q373.2 185.4 374.1 184.7Q374.9 184.1 376.1 184.1L376.1 184.1Q376.4 184.1 376.7 184.1Q377.0 184.2 377.3 184.2L377.3 184.2L377.3 187.6Q377.0 187.5 376.5 187.4Q376.1 187.4 375.7 187.4L375.7 187.4Q374.8 187.4 374.2 187.7Q373.5 188.1 373.2 188.7Q372.8 189.4 372.8 190.2L372.8 190.2L372.8 197.9ZM384.4 198.2L384.4 198.2Q382.3 198.2 380.8 197.3Q379.3 196.4 378.5 194.8Q377.7 193.3 377.7 191.2L377.7 191.2Q377.7 189.0 378.5 187.5Q379.3 185.9 380.8 185.0Q382.3 184.1 384.4 184.1L384.4 184.1Q386.5 184.1 388.0 185.0Q389.5 185.9 390.3 187.5Q391.1 189.0 391.1 191.2L391.1 191.2Q391.1 193.3 390.3 194.8Q389.5 196.4 388.0 197.3Q386.5 198.2 384.4 198.2ZM384.4 195.3L384.4 195.3Q385.4 195.3 386.0 194.7Q386.6 194.2 387.0 193.3Q387.3 192.3 387.3 191.1L387.3 191.1Q387.3 189.9 387.0 189.0Q386.6 188.1 386.0 187.5Q385.4 187.0 384.4 187.0L384.4 187.0Q383.5 187.0 382.8 187.5Q382.2 188.1 381.9 189.0Q381.5 189.9 381.5 191.1L381.5 191.1Q381.5 192.3 381.9 193.3Q382.2 194.2 382.8 194.7Q383.5 195.3 384.4 195.3ZM397.1 190.0L397.1 190.0L397.1 197.9L393.3 197.9L393.3 184.3L396.9 184.3L396.9 186.7L397.0 186.7Q397.5 185.5 398.6 184.8Q399.6 184.1 401.1 184.1L401.1 184.1Q402.6 184.1 403.6 184.7Q404.7 185.4 405.3 186.5Q405.8 187.6 405.8 189.2L405.8 189.2L405.8 197.9L402.1 197.9L402.1 189.9Q402.1 188.7 401.4 188.0Q400.8 187.3 399.6 187.3L399.6 187.3Q398.9 187.3 398.3 187.6Q397.7 187.9 397.4 188.5Q397.1 189.2 397.1 190.0ZM407.5 184.3L415.8 184.3L415.8 187.1L407.5 187.1L407.5 184.3ZM409.4 194.2L409.4 181.0L413.2 181.0L413.2 193.7Q413.2 194.3 413.3 194.5Q413.5 194.8 413.8 194.9Q414.1 195.1 414.5 195.1L414.5 195.1Q414.7 195.1 415.0 195.0Q415.3 195.0 415.4 194.9L415.4 194.9L416.0 197.8Q415.7 197.8 415.2 198.0Q414.7 198.1 414.0 198.1L414.0 198.1Q412.6 198.2 411.6 197.7Q410.5 197.3 410.0 196.4Q409.4 195.6 409.4 194.2L409.4 194.2ZM417.7 189.0L426.0 189.0L426.0 192.0L417.7 192.0L417.7 189.0ZM441.2 197.9L429.0 197.9L429.0 179.7L441.2 179.7L441.2 182.9L432.8 182.9L432.8 187.2L440.6 187.2L440.6 190.4L432.8 190.4L432.8 194.8L441.2 194.8L441.2 197.9ZM447.7 190.0L447.7 190.0L447.7 197.9L443.9 197.9L443.9 184.3L447.5 184.3L447.5 186.7L447.6 186.7Q448.1 185.5 449.2 184.8Q450.2 184.1 451.7 184.1L451.7 184.1Q453.2 184.1 454.2 184.7Q455.3 185.4 455.9 186.5Q456.4 187.6 456.4 189.2L456.4 189.2L456.4 197.9L452.7 197.9L452.7 189.9Q452.7 188.7 452.0 188.0Q451.4 187.3 450.2 187.3L450.2 187.3Q449.5 187.3 448.9 187.6Q448.3 187.9 448.0 188.5Q447.7 189.2 447.7 190.0ZM464.1 198.1L464.1 198.1Q462.6 198.1 461.3 197.3Q460.1 196.5 459.3 195.0Q458.6 193.4 458.6 191.1L458.6 191.1Q458.6 188.8 459.4 187.2Q460.1 185.7 461.4 184.9Q462.6 184.1 464.1 184.1L464.1 184.1Q465.3 184.1 466.0 184.5Q466.8 184.9 467.3 185.5Q467.7 186.0 468.0 186.6L468.0 186.6L468.1 186.6L468.1 179.7L471.9 179.7L471.9 197.9L468.2 197.9L468.2 195.7L468.0 195.7Q467.7 196.3 467.2 196.9Q466.8 197.4 466.0 197.8Q465.2 198.1 464.1 198.1ZM465.3 195.1L465.3 195.1Q466.2 195.1 466.9 194.6Q467.5 194.1 467.9 193.2Q468.2 192.3 468.2 191.1L468.2 191.1Q468.2 189.9 467.9 189.0Q467.5 188.1 466.9 187.6Q466.2 187.1 465.3 187.1L465.3 187.1Q464.4 187.1 463.8 187.6Q463.1 188.1 462.8 189.0Q462.5 189.9 462.5 191.1L462.5 191.1Q462.5 192.3 462.8 193.2Q463.1 194.1 463.8 194.6Q464.4 195.1 465.3 195.1Z M487.9 197.9L487.9 197.9L481.5 197.9L481.5 179.7L488.0 179.7Q490.7 179.7 492.7 180.8Q494.7 181.9 495.8 183.9Q496.8 186.0 496.8 188.8L496.8 188.8Q496.8 191.7 495.8 193.7Q494.7 195.7 492.7 196.8Q490.7 197.9 487.9 197.9ZM485.3 183.0L485.3 194.6L487.8 194.6Q489.5 194.6 490.6 194.0Q491.8 193.4 492.4 192.1Q493.0 190.8 493.0 188.8L493.0 188.8Q493.0 186.8 492.4 185.5Q491.8 184.2 490.7 183.6Q489.5 183.0 487.8 183.0L487.8 183.0L485.3 183.0ZM505.5 198.2L505.5 198.2Q503.4 198.2 501.9 197.3Q500.4 196.5 499.5 194.9Q498.7 193.3 498.7 191.2L498.7 191.2Q498.7 189.1 499.5 187.5Q500.4 185.9 501.9 185.0Q503.3 184.1 505.3 184.1L505.3 184.1Q506.7 184.1 507.9 184.5Q509.0 185.0 509.9 185.8Q510.8 186.7 511.3 188.0Q511.8 189.3 511.8 191.0L511.8 191.0L511.8 192.1L500.2 192.1L500.2 189.7L508.2 189.7Q508.2 188.9 507.8 188.3Q507.5 187.6 506.9 187.3Q506.2 186.9 505.4 186.9L505.4 186.9Q504.5 186.9 503.9 187.3Q503.2 187.7 502.9 188.4Q502.5 189.0 502.5 189.9L502.5 189.9L502.5 192.1Q502.5 193.1 502.8 193.8Q503.2 194.6 503.9 195.0Q504.6 195.4 505.6 195.4L505.6 195.4Q506.2 195.4 506.7 195.2Q507.2 195.0 507.6 194.7Q508.0 194.3 508.2 193.8L508.2 193.8L511.7 194.0Q511.4 195.3 510.6 196.2Q509.8 197.1 508.5 197.7Q507.2 198.2 505.5 198.2ZM522.2 184.3L526.2 184.3L521.5 197.9L517.2 197.9L512.4 184.3L516.4 184.3L519.3 194.0L519.4 194.0L522.2 184.3ZM533.6 198.2L533.6 198.2Q531.5 198.2 530.0 197.3Q528.5 196.5 527.7 194.9Q526.8 193.3 526.8 191.2L526.8 191.2Q526.8 189.1 527.7 187.5Q528.5 185.9 530.0 185.0Q531.5 184.1 533.5 184.1L533.5 184.1Q534.8 184.1 536.0 184.5Q537.1 185.0 538.0 185.8Q538.9 186.7 539.4 188.0Q539.9 189.3 539.9 191.0L539.9 191.0L539.9 192.1L528.4 192.1L528.4 189.7L536.3 189.7Q536.3 188.9 536.0 188.3Q535.6 187.6 535.0 187.3Q534.3 186.9 533.5 186.9L533.5 186.9Q532.7 186.9 532.0 187.3Q531.3 187.7 531.0 188.4Q530.6 189.0 530.6 189.9L530.6 189.9L530.6 192.1Q530.6 193.1 531.0 193.8Q531.3 194.6 532.0 195.0Q532.7 195.4 533.7 195.4L533.7 195.4Q534.3 195.4 534.8 195.2Q535.4 195.0 535.7 194.7Q536.1 194.3 536.3 193.8L536.3 193.8L539.8 194.0Q539.5 195.3 538.7 196.2Q537.9 197.1 536.6 197.7Q535.3 198.2 533.6 198.2ZM542.0 179.7L545.8 179.7L545.8 197.9L542.0 197.9L542.0 179.7ZM554.7 198.2L554.7 198.2Q552.6 198.2 551.1 197.3Q549.6 196.4 548.8 194.8Q547.9 193.3 547.9 191.2L547.9 191.2Q547.9 189.0 548.8 187.5Q549.6 185.9 551.1 185.0Q552.6 184.1 554.7 184.1L554.7 184.1Q556.7 184.1 558.2 185.0Q559.7 185.9 560.6 187.5Q561.4 189.0 561.4 191.2L561.4 191.2Q561.4 193.3 560.6 194.8Q559.7 196.4 558.2 197.3Q556.7 198.2 554.7 198.2ZM554.7 195.3L554.7 195.3Q555.6 195.3 556.2 194.7Q556.9 194.2 557.2 193.3Q557.5 192.3 557.5 191.1L557.5 191.1Q557.5 189.9 557.2 189.0Q556.9 188.1 556.2 187.5Q555.6 187.0 554.7 187.0L554.7 187.0Q553.7 187.0 553.1 187.5Q552.4 188.1 552.1 189.0Q551.8 189.9 551.8 191.1L551.8 191.1Q551.8 192.3 552.1 193.3Q552.4 194.2 553.1 194.7Q553.7 195.3 554.7 195.3ZM567.3 203.0L563.5 203.0L563.5 184.3L567.2 184.3L567.2 186.6L567.4 186.6Q567.7 186.0 568.1 185.5Q568.6 184.9 569.4 184.5Q570.2 184.1 571.3 184.1L571.3 184.1Q572.8 184.1 574.0 184.9Q575.3 185.7 576.1 187.2Q576.8 188.8 576.8 191.1L576.8 191.1Q576.8 193.4 576.1 195.0Q575.4 196.5 574.1 197.3Q572.8 198.1 571.3 198.1L571.3 198.1Q570.2 198.1 569.4 197.8Q568.7 197.4 568.2 196.9Q567.7 196.3 567.4 195.7L567.4 195.7L567.3 195.7L567.3 203.0ZM567.2 191.1L567.2 191.1Q567.2 192.3 567.6 193.2Q567.9 194.1 568.5 194.6Q569.2 195.1 570.1 195.1L570.1 195.1Q571.0 195.1 571.7 194.6Q572.3 194.1 572.6 193.2Q573.0 192.3 573.0 191.1L573.0 191.1Q573.0 189.9 572.6 189.0Q572.3 188.1 571.7 187.6Q571.0 187.1 570.1 187.1L570.1 187.1Q569.2 187.1 568.5 187.6Q567.9 188.1 567.6 189.0Q567.2 189.9 567.2 191.1ZM585.2 198.2L585.2 198.2Q583.1 198.2 581.6 197.3Q580.1 196.5 579.3 194.9Q578.5 193.3 578.5 191.2L578.5 191.2Q578.5 189.1 579.3 187.5Q580.1 185.9 581.6 185.0Q583.1 184.1 585.1 184.1L585.1 184.1Q586.4 184.1 587.6 184.5Q588.8 185.0 589.6 185.8Q590.5 186.7 591.0 188.0Q591.5 189.3 591.5 191.0L591.5 191.0L591.5 192.1L580.0 192.1L580.0 189.7L587.9 189.7Q587.9 188.9 587.6 188.3Q587.2 187.6 586.6 187.3Q586.0 186.9 585.1 186.9L585.1 186.9Q584.3 186.9 583.6 187.3Q583.0 187.7 582.6 188.4Q582.2 189.0 582.2 189.9L582.2 189.9L582.2 192.1Q582.2 193.1 582.6 193.8Q583.0 194.6 583.6 195.0Q584.3 195.4 585.3 195.4L585.3 195.4Q585.9 195.4 586.4 195.2Q587.0 195.0 587.3 194.7Q587.7 194.3 587.9 193.8L587.9 193.8L591.4 194.0Q591.1 195.3 590.3 196.2Q589.5 197.1 588.2 197.7Q586.9 198.2 585.2 198.2ZM597.4 197.9L593.6 197.9L593.6 184.3L597.3 184.3L597.3 186.7L597.4 186.7Q597.8 185.4 598.7 184.7Q599.6 184.1 600.7 184.1L600.7 184.1Q601.0 184.1 601.3 184.1Q601.7 184.2 601.9 184.2L601.9 184.2L601.9 187.6Q601.6 187.5 601.2 187.4Q600.7 187.4 600.3 187.4L600.3 187.4Q599.5 187.4 598.8 187.7Q598.2 188.1 597.8 188.7Q597.4 189.4 597.4 190.2L597.4 190.2L597.4 197.9Z M343.1 221.4L343.1 221.4L339.2 221.4Q339.1 220.6 338.8 220.1Q338.4 219.5 337.9 219.1Q337.4 218.6 336.7 218.4Q336.1 218.2 335.3 218.2L335.3 218.2Q333.9 218.2 332.8 218.9Q331.8 219.6 331.2 220.9Q330.6 222.2 330.6 224.1L330.6 224.1Q330.6 226.1 331.2 227.4Q331.8 228.7 332.8 229.4Q333.9 230.1 335.3 230.1L335.3 230.1Q336.0 230.1 336.7 229.9Q337.4 229.7 337.9 229.3Q338.4 228.9 338.7 228.3Q339.1 227.7 339.2 227.0L339.2 227.0L343.1 227.0Q342.9 228.3 342.3 229.4Q341.8 230.6 340.7 231.5Q339.7 232.4 338.3 232.9Q337.0 233.5 335.2 233.5L335.2 233.5Q332.8 233.5 330.9 232.4Q328.9 231.3 327.8 229.2Q326.7 227.1 326.7 224.1L326.7 224.1Q326.7 221.2 327.9 219.1Q329.0 217.0 330.9 215.9Q332.8 214.8 335.2 214.8L335.2 214.8Q336.8 214.8 338.1 215.2Q339.5 215.7 340.5 216.5Q341.6 217.4 342.3 218.6Q342.9 219.8 343.1 221.4ZM349.4 233.5L349.4 233.5Q348.1 233.5 347.0 233.0Q346.0 232.6 345.4 231.7Q344.8 230.8 344.8 229.4L344.8 229.4Q344.8 228.3 345.2 227.5Q345.7 226.7 346.4 226.3Q347.1 225.8 348.0 225.5Q348.9 225.3 350.0 225.2L350.0 225.2Q351.1 225.1 351.9 225.0Q352.6 224.9 352.9 224.6Q353.3 224.4 353.3 224.0L353.3 224.0L353.3 223.9Q353.3 223.1 352.7 222.6Q352.2 222.2 351.2 222.2L351.2 222.2Q350.2 222.2 349.6 222.6Q349.0 223.1 348.8 223.7L348.8 223.7L345.3 223.5Q345.6 222.2 346.4 221.3Q347.1 220.4 348.4 219.9Q349.6 219.4 351.2 219.4L351.2 219.4Q352.4 219.4 353.4 219.7Q354.5 219.9 355.3 220.5Q356.1 221.1 356.6 221.9Q357.0 222.8 357.0 224.0L357.0 224.0L357.0 233.2L353.5 233.2L353.5 231.3L353.3 231.3Q353.0 232.0 352.5 232.5Q351.9 232.9 351.1 233.2Q350.4 233.5 349.4 233.5ZM350.4 230.9L350.4 230.9Q351.3 230.9 351.9 230.5Q352.6 230.2 352.9 229.6Q353.3 229.1 353.3 228.3L353.3 228.3L353.3 226.9Q353.1 227.0 352.8 227.1Q352.5 227.2 352.1 227.3Q351.7 227.4 351.3 227.4Q351.0 227.5 350.7 227.5L350.7 227.5Q350.0 227.6 349.5 227.8Q349.0 228.0 348.7 228.4Q348.4 228.8 348.4 229.3L348.4 229.3Q348.4 230.1 349.0 230.5Q349.6 230.9 350.4 230.9ZM363.4 233.2L359.7 233.2L359.7 219.6L363.3 219.6L363.3 222.0L363.5 222.0Q363.8 220.7 364.7 220.0Q365.6 219.4 366.7 219.4L366.7 219.4Q367.0 219.4 367.4 219.4Q367.7 219.5 367.9 219.5L367.9 219.5L367.9 222.9Q367.7 222.8 367.2 222.7Q366.7 222.7 366.3 222.7L366.3 222.7Q365.5 222.7 364.8 223.0Q364.2 223.4 363.8 224.0Q363.4 224.7 363.4 225.5L363.4 225.5L363.4 233.2ZM375.1 233.5L375.1 233.5Q373.0 233.5 371.5 232.6Q370.0 231.8 369.2 230.2Q368.4 228.6 368.4 226.5L368.4 226.5Q368.4 224.4 369.2 222.8Q370.0 221.2 371.5 220.3Q373.0 219.4 375.0 219.4L375.0 219.4Q376.3 219.4 377.5 219.8Q378.7 220.3 379.5 221.1Q380.4 222.0 380.9 223.3Q381.4 224.6 381.4 226.3L381.4 226.3L381.4 227.4L369.9 227.4L369.9 225.0L377.8 225.0Q377.8 224.2 377.5 223.6Q377.1 222.9 376.5 222.6Q375.9 222.2 375.0 222.2L375.0 222.2Q374.2 222.2 373.5 222.6Q372.9 223.0 372.5 223.7Q372.1 224.3 372.1 225.1L372.1 225.1L372.1 227.4Q372.1 228.4 372.5 229.1Q372.9 229.9 373.5 230.3Q374.2 230.7 375.2 230.7L375.2 230.7Q375.8 230.7 376.3 230.5Q376.9 230.3 377.2 230.0Q377.6 229.6 377.8 229.1L377.8 229.1L381.3 229.3Q381.0 230.6 380.2 231.5Q379.4 232.4 378.1 233.0Q376.8 233.5 375.1 233.5ZM389.8 233.5L389.8 233.5Q387.6 233.5 386.1 232.6Q384.6 231.8 383.8 230.2Q383.0 228.6 383.0 226.5L383.0 226.5Q383.0 224.4 383.8 222.8Q384.6 221.2 386.1 220.3Q387.6 219.4 389.6 219.4L389.6 219.4Q390.9 219.4 392.1 219.8Q393.3 220.3 394.2 221.1Q395.0 222.0 395.5 223.3Q396.0 224.6 396.0 226.3L396.0 226.3L396.0 227.4L384.5 227.4L384.5 225.0L392.5 225.0Q392.5 224.2 392.1 223.6Q391.7 222.9 391.1 222.6Q390.5 222.2 389.7 222.2L389.7 222.2Q388.8 222.2 388.1 222.6Q387.5 223.0 387.1 223.7Q386.7 224.3 386.7 225.1L386.7 225.1L386.7 227.4Q386.7 228.4 387.1 229.1Q387.5 229.9 388.2 230.3Q388.9 230.7 389.8 230.7L389.8 230.7Q390.4 230.7 391.0 230.5Q391.5 230.3 391.9 230.0Q392.2 229.6 392.4 229.1L392.4 229.1L395.9 229.3Q395.7 230.6 394.8 231.5Q394.0 232.4 392.7 233.0Q391.4 233.5 389.8 233.5ZM401.9 233.2L398.2 233.2L398.2 219.6L401.8 219.6L401.8 222.0L402.0 222.0Q402.3 220.7 403.2 220.0Q404.1 219.4 405.2 219.4L405.2 219.4Q405.5 219.4 405.9 219.4Q406.2 219.5 406.4 219.5L406.4 219.5L406.4 222.9Q406.2 222.8 405.7 222.7Q405.2 222.7 404.8 222.7L404.8 222.7Q404.0 222.7 403.3 223.0Q402.7 223.4 402.3 224.0Q401.9 224.7 401.9 225.5L401.9 225.5L401.9 233.2Z M418.1 233.2L414.2 233.2L414.2 215.0L421.4 215.0Q423.5 215.0 424.9 215.8Q426.4 216.6 427.2 218.0Q427.9 219.4 427.9 221.2L427.9 221.2Q427.9 223.0 427.2 224.4Q426.4 225.8 424.9 226.6Q423.4 227.3 421.3 227.3L421.3 227.3L416.7 227.3L416.7 224.2L420.7 224.2Q421.8 224.2 422.5 223.9Q423.3 223.5 423.6 222.8Q424.0 222.1 424.0 221.2L424.0 221.2Q424.0 220.3 423.6 219.6Q423.3 218.9 422.5 218.6Q421.8 218.2 420.7 218.2L420.7 218.2L418.1 218.2L418.1 233.2ZM433.6 233.5L433.6 233.5Q432.3 233.5 431.2 233.0Q430.2 232.6 429.6 231.7Q429.0 230.8 429.0 229.4L429.0 229.4Q429.0 228.3 429.5 227.5Q429.9 226.7 430.6 226.3Q431.3 225.8 432.2 225.5Q433.2 225.3 434.2 225.2L434.2 225.2Q435.4 225.1 436.1 225.0Q436.8 224.9 437.1 224.6Q437.5 224.4 437.5 224.0L437.5 224.0L437.5 223.9Q437.5 223.1 436.9 222.6Q436.4 222.2 435.4 222.2L435.4 222.2Q434.4 222.2 433.8 222.6Q433.2 223.1 433.0 223.7L433.0 223.7L429.5 223.5Q429.8 222.2 430.6 221.3Q431.4 220.4 432.6 219.9Q433.8 219.4 435.5 219.4L435.5 219.4Q436.6 219.4 437.6 219.7Q438.7 219.9 439.5 220.5Q440.3 221.1 440.8 221.9Q441.3 222.8 441.3 224.0L441.3 224.0L441.3 233.2L437.7 233.2L437.7 231.3L437.6 231.3Q437.2 232.0 436.7 232.5Q436.1 232.9 435.4 233.2Q434.6 233.5 433.6 233.5ZM434.7 230.9L434.7 230.9Q435.5 230.9 436.1 230.5Q436.8 230.2 437.1 229.6Q437.5 229.1 437.5 228.3L437.5 228.3L437.5 226.9Q437.3 227.0 437.0 227.1Q436.7 227.2 436.3 227.3Q435.9 227.4 435.6 227.4Q435.2 227.5 434.9 227.5L434.9 227.5Q434.2 227.6 433.7 227.8Q433.2 228.0 432.9 228.4Q432.7 228.8 432.7 229.3L432.7 229.3Q432.7 230.1 433.2 230.5Q433.8 230.9 434.7 230.9ZM442.9 219.6L451.1 219.6L451.1 222.4L442.9 222.4L442.9 219.6ZM444.8 229.5L444.8 216.3L448.6 216.3L448.6 229.0Q448.6 229.6 448.7 229.8Q448.9 230.1 449.2 230.2Q449.5 230.4 449.8 230.4L449.8 230.4Q450.1 230.4 450.4 230.3Q450.6 230.3 450.8 230.2L450.8 230.2L451.4 233.1Q451.1 233.1 450.6 233.3Q450.1 233.4 449.3 233.4L449.3 233.4Q448.0 233.5 446.9 233.0Q445.9 232.6 445.3 231.7Q444.8 230.9 444.8 229.5L444.8 229.5ZM457.3 225.3L457.3 225.3L457.3 233.2L453.5 233.2L453.5 215.0L457.2 215.0L457.2 222.0L457.4 222.0Q457.8 220.8 458.9 220.1Q459.9 219.4 461.5 219.4L461.5 219.4Q462.9 219.4 463.9 220.0Q465.0 220.6 465.6 221.8Q466.2 222.9 466.2 224.5L466.2 224.5L466.2 233.2L462.4 233.2L462.4 225.2Q462.4 224.0 461.8 223.2Q461.1 222.5 460.0 222.5L460.0 222.5Q459.2 222.5 458.6 222.9Q458.0 223.2 457.7 223.8Q457.3 224.5 457.3 225.3ZM471.0 233.5L471.0 233.5Q470.2 233.5 469.5 232.8Q468.9 232.2 468.9 231.3L468.9 231.3Q468.9 230.4 469.5 229.8Q470.2 229.2 471.0 229.2L471.0 229.2Q471.9 229.2 472.5 229.8Q473.2 230.4 473.2 231.3L473.2 231.3Q473.2 231.9 472.9 232.4Q472.6 232.9 472.1 233.2Q471.6 233.5 471.0 233.5Z "/><mask id="satori_om-id-2"><rect x="356" y="334" width="402" height="24" fill="#fff"/></mask><mask id="satori_om-id-2-0"><rect x="356" y="334" width="370" height="24" fill="#fff"/></mask><path fill="black" d="M366.3 344.9L366.3 344.9L363.5 345.1Q363.4 344.7 363.2 344.4Q363.0 344.2 362.6 344.0Q362.2 343.8 361.7 343.8L361.7 343.8Q361.0 343.8 360.5 344.1Q360.0 344.4 360.0 344.9L360.0 344.9Q360.0 345.3 360.3 345.6Q360.6 345.8 361.4 346.0L361.4 346.0L363.4 346.4Q365.0 346.7 365.8 347.4Q366.5 348.2 366.5 349.3L366.5 349.3Q366.5 350.4 365.9 351.2Q365.3 352.0 364.2 352.5Q363.1 352.9 361.7 352.9L361.7 352.9Q359.5 352.9 358.2 352.0Q356.9 351.1 356.7 349.6L356.7 349.6L359.7 349.4Q359.8 350.1 360.4 350.4Q360.9 350.8 361.7 350.8L361.7 350.8Q362.5 350.8 363.0 350.4Q363.5 350.1 363.5 349.6L363.5 349.6Q363.5 349.2 363.1 349.0Q362.8 348.7 362.1 348.6L362.1 348.6L360.2 348.2Q358.6 347.9 357.8 347.1Q357.0 346.3 357.0 345.1L357.0 345.1Q357.0 344.0 357.6 343.3Q358.2 342.5 359.2 342.1Q360.2 341.7 361.6 341.7L361.6 341.7Q363.7 341.7 364.9 342.5Q366.1 343.4 366.3 344.9ZM373.1 352.9L373.1 352.9Q371.4 352.9 370.2 352.2Q369.0 351.5 368.3 350.2Q367.7 349.0 367.7 347.3L367.7 347.3Q367.7 345.6 368.3 344.4Q369.0 343.1 370.2 342.4Q371.4 341.7 373.0 341.7L373.0 341.7Q374.5 341.7 375.5 342.2Q376.6 342.7 377.2 343.6Q377.9 344.6 377.9 345.8L377.9 345.8L375.1 345.8Q374.9 345.0 374.4 344.5Q373.9 344.0 373.1 344.0L373.1 344.0Q372.4 344.0 371.9 344.4Q371.3 344.8 371.0 345.5Q370.8 346.2 370.8 347.3L370.8 347.3Q370.8 348.3 371.0 349.0Q371.3 349.8 371.9 350.2Q372.4 350.5 373.1 350.5L373.1 350.5Q373.6 350.5 374.0 350.3Q374.4 350.1 374.7 349.7Q375.0 349.3 375.1 348.7L375.1 348.7L377.9 348.7Q377.9 350.0 377.2 350.9Q376.6 351.9 375.6 352.4Q374.5 352.9 373.1 352.9ZM382.6 352.7L379.6 352.7L379.6 341.8L382.5 341.8L382.5 343.7L382.6 343.7Q382.9 342.7 383.6 342.2Q384.3 341.7 385.2 341.7L385.2 341.7Q385.4 341.7 385.7 341.7Q386.0 341.7 386.2 341.8L386.2 341.8L386.2 344.4Q386.0 344.4 385.6 344.3Q385.2 344.3 384.9 344.3L384.9 344.3Q384.2 344.3 383.7 344.6Q383.2 344.9 382.9 345.4Q382.6 345.9 382.6 346.5L382.6 346.5L382.6 352.7ZM390.4 352.7L387.4 352.7L387.4 341.8L390.4 341.8L390.4 352.7ZM388.9 340.4L388.9 340.4Q388.3 340.4 387.8 340.0Q387.3 339.5 387.3 338.9L387.3 338.9Q387.3 338.2 387.8 337.8Q388.3 337.3 388.9 337.3L388.9 337.3Q389.6 337.3 390.1 337.8Q390.6 338.2 390.6 338.9L390.6 338.9Q390.6 339.5 390.1 340.0Q389.6 340.4 388.9 340.4ZM395.6 352.7L392.5 352.7L392.5 341.8L395.4 341.8L395.4 343.7L395.5 343.7Q395.9 342.8 396.7 342.2Q397.5 341.7 398.6 341.7L398.6 341.7Q399.7 341.7 400.5 342.2Q401.3 342.8 401.5 343.7L401.5 343.7L401.7 343.7Q402.0 342.8 402.9 342.2Q403.7 341.7 404.9 341.7L404.9 341.7Q406.5 341.7 407.4 342.6Q408.4 343.6 408.4 345.4L408.4 345.4L408.4 352.7L405.4 352.7L405.4 346.0Q405.4 345.1 404.9 344.6Q404.4 344.2 403.7 344.2L403.7 344.2Q402.8 344.2 402.4 344.7Q401.9 345.2 401.9 346.1L401.9 346.1L401.9 352.7L399.0 352.7L399.0 345.9Q399.0 345.1 398.5 344.6Q398.1 344.2 397.3 344.2L397.3 344.2Q396.8 344.2 396.4 344.4Q396.0 344.7 395.8 345.1Q395.6 345.6 395.6 346.2L395.6 346.2L395.6 352.7ZM413.5 352.7L410.5 352.7L410.5 338.2L413.5 338.2L413.5 343.6L413.6 343.6Q413.8 343.2 414.2 342.7Q414.6 342.3 415.2 342.0Q415.8 341.7 416.7 341.7L416.7 341.7Q417.9 341.7 418.9 342.3Q419.9 342.9 420.5 344.2Q421.1 345.4 421.1 347.3L421.1 347.3Q421.1 349.1 420.6 350.4Q420.0 351.6 419.0 352.3Q418.0 352.9 416.7 352.9L416.7 352.9Q415.8 352.9 415.2 352.6Q414.6 352.3 414.2 351.9Q413.8 351.4 413.6 351.0L413.6 351.0L413.5 351.0L413.5 352.7ZM413.5 347.3L413.5 347.3Q413.5 348.2 413.7 349.0Q414.0 349.7 414.5 350.1Q415.0 350.5 415.8 350.5L415.8 350.5Q416.5 350.5 417.0 350.1Q417.5 349.7 417.8 348.9Q418.1 348.2 418.1 347.3L418.1 347.3Q418.1 346.3 417.8 345.6Q417.5 344.9 417.0 344.5Q416.5 344.1 415.8 344.1L415.8 344.1Q415.0 344.1 414.5 344.5Q414.0 344.9 413.7 345.6Q413.5 346.3 413.5 347.3ZM425.9 352.9L425.9 352.9Q424.9 352.9 424.1 352.6Q423.3 352.2 422.8 351.5Q422.3 350.8 422.3 349.7L422.3 349.7Q422.3 348.8 422.7 348.1Q423.0 347.5 423.6 347.2Q424.1 346.8 424.9 346.6Q425.6 346.4 426.4 346.3L426.4 346.3Q427.4 346.2 428.0 346.1Q428.5 346.0 428.8 345.9Q429.1 345.7 429.1 345.3L429.1 345.3L429.1 345.3Q429.1 344.6 428.6 344.2Q428.2 343.9 427.4 343.9L427.4 343.9Q426.6 343.9 426.1 344.2Q425.7 344.6 425.5 345.1L425.5 345.1L422.7 344.9Q422.9 343.9 423.5 343.2Q424.2 342.5 425.2 342.1Q426.1 341.7 427.5 341.7L427.5 341.7Q428.4 341.7 429.2 341.9Q430.0 342.1 430.7 342.5Q431.3 343.0 431.7 343.7Q432.1 344.4 432.1 345.4L432.1 345.4L432.1 352.7L429.2 352.7L429.2 351.2L429.1 351.2Q428.9 351.7 428.4 352.1Q428.0 352.5 427.4 352.7Q426.8 352.9 425.9 352.9ZM426.8 350.8L426.8 350.8Q427.5 350.8 428.0 350.6Q428.5 350.3 428.8 349.9Q429.1 349.4 429.1 348.8L429.1 348.8L429.1 347.7Q428.9 347.8 428.7 347.8Q428.4 347.9 428.1 348.0Q427.8 348.0 427.5 348.1Q427.2 348.1 427.0 348.2L427.0 348.2Q426.4 348.2 426.0 348.4Q425.6 348.6 425.4 348.9Q425.2 349.1 425.2 349.6L425.2 349.6Q425.2 350.2 425.7 350.5Q426.1 350.8 426.8 350.8ZM433.2 341.8L440.0 341.8L440.0 344.1L433.2 344.1L433.2 341.8ZM437.8 352.7L434.8 352.7L434.8 341.0Q434.8 339.8 435.3 339.1Q435.7 338.3 436.5 337.9Q437.3 337.5 438.4 337.5L438.4 337.5Q439.1 337.5 439.6 337.6Q440.2 337.7 440.5 337.8L440.5 337.8L440.0 340.1Q439.8 340.0 439.5 340.0Q439.3 339.9 439.0 339.9L439.0 339.9Q438.3 339.9 438.1 340.2Q437.8 340.5 437.8 341.1L437.8 341.1L437.8 352.7ZM444.5 352.7L441.5 352.7L441.5 341.8L444.4 341.8L444.4 343.7L444.6 343.7Q444.9 342.7 445.6 342.2Q446.3 341.7 447.2 341.7L447.2 341.7Q447.4 341.7 447.7 341.7Q447.9 341.7 448.1 341.8L448.1 341.8L448.1 344.4Q447.9 344.4 447.5 344.3Q447.2 344.3 446.8 344.3L446.8 344.3Q446.2 344.3 445.7 344.6Q445.1 344.9 444.8 345.4Q444.5 345.9 444.5 346.5L444.5 346.5L444.5 352.7ZM453.8 352.9L453.8 352.9Q452.1 352.9 450.9 352.2Q449.7 351.5 449.1 350.3Q448.4 349.0 448.4 347.3L448.4 347.3Q448.4 345.6 449.1 344.4Q449.7 343.1 450.9 342.4Q452.1 341.7 453.8 341.7L453.8 341.7Q455.4 341.7 456.6 342.4Q457.8 343.1 458.5 344.4Q459.1 345.6 459.1 347.3L459.1 347.3Q459.1 349.0 458.5 350.3Q457.8 351.5 456.6 352.2Q455.4 352.9 453.8 352.9ZM453.8 350.6L453.8 350.6Q454.5 350.6 455.1 350.2Q455.6 349.7 455.8 349.0Q456.1 348.2 456.1 347.3L456.1 347.3Q456.1 346.3 455.8 345.6Q455.6 344.8 455.1 344.4Q454.5 344.0 453.8 344.0L453.8 344.0Q453.0 344.0 452.5 344.4Q452.0 344.8 451.7 345.6Q451.5 346.3 451.5 347.3L451.5 347.3Q451.5 348.2 451.7 349.0Q452.0 349.7 452.5 350.2Q453.0 350.6 453.8 350.6ZM463.8 346.4L463.8 346.4L463.8 352.7L460.8 352.7L460.8 341.8L463.7 341.8L463.7 343.7L463.8 343.7Q464.2 342.8 465.0 342.2Q465.9 341.7 467.1 341.7L467.1 341.7Q468.2 341.7 469.1 342.2Q469.9 342.7 470.4 343.6Q470.9 344.5 470.9 345.8L470.9 345.8L470.9 352.7L467.8 352.7L467.8 346.3Q467.8 345.3 467.3 344.7Q466.8 344.2 465.9 344.2L465.9 344.2Q465.3 344.2 464.8 344.4Q464.4 344.7 464.1 345.2Q463.8 345.7 463.8 346.4ZM472.2 341.8L478.7 341.8L478.7 344.1L472.2 344.1L472.2 341.8ZM473.6 349.8L473.6 339.2L476.7 339.2L476.7 349.4Q476.7 349.8 476.8 350.0Q476.9 350.2 477.2 350.3Q477.4 350.4 477.7 350.4L477.7 350.4Q477.9 350.4 478.1 350.4Q478.3 350.4 478.4 350.3L478.4 350.3L478.9 352.6Q478.7 352.7 478.3 352.8Q477.9 352.8 477.3 352.9L477.3 352.9Q476.2 352.9 475.4 352.6Q474.5 352.2 474.1 351.5Q473.6 350.8 473.6 349.8L473.6 349.8ZM485.2 352.9L485.2 352.9Q483.5 352.9 482.3 352.2Q481.1 351.6 480.5 350.3Q479.8 349.0 479.8 347.3L479.8 347.3Q479.8 345.6 480.5 344.4Q481.1 343.1 482.3 342.4Q483.5 341.7 485.1 341.7L485.1 341.7Q486.2 341.7 487.1 342.0Q488.1 342.4 488.8 343.0Q489.5 343.7 489.8 344.8Q490.2 345.8 490.2 347.2L490.2 347.2L490.2 348.0L481.0 348.0L481.0 346.2L487.4 346.2Q487.4 345.5 487.1 345.0Q486.8 344.5 486.3 344.2Q485.8 343.9 485.2 343.9L485.2 343.9Q484.5 343.9 483.9 344.2Q483.4 344.6 483.1 345.1Q482.8 345.6 482.8 346.3L482.8 346.3L482.8 348.0Q482.8 348.9 483.1 349.4Q483.4 350.0 484.0 350.4Q484.5 350.7 485.3 350.7L485.3 350.7Q485.8 350.7 486.2 350.5Q486.6 350.4 486.9 350.1Q487.2 349.8 487.4 349.4L487.4 349.4L490.2 349.6Q490.0 350.6 489.3 351.4Q488.6 352.1 487.6 352.5Q486.6 352.9 485.2 352.9ZM494.9 346.4L494.9 346.4L494.9 352.7L491.9 352.7L491.9 341.8L494.8 341.8L494.8 343.7L494.9 343.7Q495.3 342.8 496.1 342.2Q497.0 341.7 498.2 341.7L498.2 341.7Q499.3 341.7 500.2 342.2Q501.0 342.7 501.5 343.6Q501.9 344.5 501.9 345.8L501.9 345.8L501.9 352.7L498.9 352.7L498.9 346.3Q498.9 345.3 498.4 344.7Q497.9 344.2 497.0 344.2L497.0 344.2Q496.4 344.2 495.9 344.4Q495.4 344.7 495.2 345.2Q494.9 345.7 494.9 346.4ZM508.0 352.9L508.0 352.9Q506.8 352.9 505.8 352.3Q504.8 351.6 504.2 350.4Q503.6 349.1 503.6 347.3L503.6 347.3Q503.6 345.4 504.2 344.2Q504.8 342.9 505.8 342.3Q506.8 341.7 508.0 341.7L508.0 341.7Q508.9 341.7 509.5 342.0Q510.2 342.3 510.5 342.7Q510.9 343.2 511.1 343.6L511.1 343.6L511.2 343.6L511.2 338.2L514.2 338.2L514.2 352.7L511.3 352.7L511.3 351.0L511.1 351.0Q510.9 351.4 510.5 351.9Q510.1 352.3 509.5 352.6Q508.9 352.9 508.0 352.9ZM509.0 350.5L509.0 350.5Q509.7 350.5 510.2 350.1Q510.7 349.7 511.0 349.0Q511.3 348.2 511.3 347.3L511.3 347.3Q511.3 346.3 511.0 345.6Q510.7 344.9 510.2 344.5Q509.7 344.1 509.0 344.1L509.0 344.1Q508.2 344.1 507.7 344.5Q507.2 344.9 507.0 345.6Q506.7 346.3 506.7 347.3L506.7 347.3Q506.7 348.2 507.0 348.9Q507.2 349.7 507.7 350.1Q508.2 350.5 509.0 350.5ZM521.3 352.9L521.3 352.9Q519.6 352.9 518.4 352.2Q517.2 351.5 516.6 350.2Q516.0 349.0 516.0 347.3L516.0 347.3Q516.0 345.6 516.6 344.4Q517.3 343.1 518.5 342.4Q519.7 341.7 521.3 341.7L521.3 341.7Q522.7 341.7 523.8 342.2Q524.9 342.7 525.5 343.6Q526.1 344.6 526.2 345.8L526.2 345.8L523.3 345.8Q523.2 345.0 522.7 344.5Q522.2 344.0 521.4 344.0L521.4 344.0Q520.7 344.0 520.1 344.4Q519.6 344.8 519.3 345.5Q519.0 346.2 519.0 347.3L519.0 347.3Q519.0 348.3 519.3 349.0Q519.6 349.8 520.1 350.2Q520.7 350.5 521.4 350.5L521.4 350.5Q521.9 350.5 522.3 350.3Q522.7 350.1 523.0 349.7Q523.3 349.3 523.3 348.7L523.3 348.7L526.2 348.7Q526.1 350.0 525.5 350.9Q524.9 351.9 523.8 352.4Q522.8 352.9 521.3 352.9ZM530.9 352.9L530.9 352.9Q529.9 352.9 529.1 352.6Q528.3 352.2 527.8 351.5Q527.3 350.8 527.3 349.7L527.3 349.7Q527.3 348.8 527.6 348.1Q528.0 347.5 528.6 347.2Q529.1 346.8 529.9 346.6Q530.6 346.4 531.4 346.3L531.4 346.3Q532.4 346.2 532.9 346.1Q533.5 346.0 533.8 345.9Q534.0 345.7 534.0 345.3L534.0 345.3L534.0 345.3Q534.0 344.6 533.6 344.2Q533.2 343.9 532.4 343.9L532.4 343.9Q531.6 343.9 531.1 344.2Q530.6 344.6 530.5 345.1L530.5 345.1L527.7 344.9Q527.9 343.9 528.5 343.2Q529.2 342.5 530.1 342.1Q531.1 341.7 532.4 341.7L532.4 341.7Q533.4 341.7 534.2 341.9Q535.0 342.1 535.7 342.5Q536.3 343.0 536.7 343.7Q537.1 344.4 537.1 345.4L537.1 345.4L537.1 352.7L534.2 352.7L534.2 351.2L534.1 351.2Q533.9 351.7 533.4 352.1Q533.0 352.5 532.4 352.7Q531.7 352.9 530.9 352.9ZM531.8 350.8L531.8 350.8Q532.5 350.8 533.0 350.6Q533.5 350.3 533.8 349.9Q534.1 349.4 534.1 348.8L534.1 348.8L534.1 347.7Q533.9 347.8 533.7 347.8Q533.4 347.9 533.1 348.0Q532.8 348.0 532.5 348.1Q532.2 348.1 532.0 348.2L532.0 348.2Q531.4 348.2 531.0 348.4Q530.6 348.6 530.4 348.9Q530.2 349.1 530.2 349.6L530.2 349.6Q530.2 350.2 530.6 350.5Q531.1 350.8 531.8 350.8ZM542.1 352.7L539.1 352.7L539.1 341.8L542.0 341.8L542.0 343.7L542.2 343.7Q542.4 342.7 543.2 342.2Q543.9 341.7 544.8 341.7L544.8 341.7Q545.0 341.7 545.3 341.7Q545.5 341.7 545.7 341.8L545.7 341.8L545.7 344.4Q545.5 344.4 545.1 344.3Q544.8 344.3 544.4 344.3L544.4 344.3Q543.8 344.3 543.3 344.6Q542.7 344.9 542.4 345.4Q542.1 345.9 542.1 346.5L542.1 346.5L542.1 352.7ZM551.4 352.9L551.4 352.9Q549.7 352.9 548.5 352.2Q547.3 351.6 546.7 350.3Q546.0 349.0 546.0 347.3L546.0 347.3Q546.0 345.6 546.7 344.4Q547.3 343.1 548.5 342.4Q549.7 341.7 551.3 341.7L551.3 341.7Q552.4 341.7 553.3 342.0Q554.2 342.4 554.9 343.0Q555.6 343.7 556.0 344.8Q556.4 345.8 556.4 347.2L556.4 347.2L556.4 348.0L547.2 348.0L547.2 346.2L553.6 346.2Q553.6 345.5 553.3 345.0Q553.0 344.5 552.5 344.2Q552.0 343.9 551.3 343.9L551.3 343.9Q550.7 343.9 550.1 344.2Q549.6 344.6 549.3 345.1Q549.0 345.6 549.0 346.3L549.0 346.3L549.0 348.0Q549.0 348.9 549.3 349.4Q549.6 350.0 550.2 350.4Q550.7 350.7 551.5 350.7L551.5 350.7Q552.0 350.7 552.4 350.5Q552.8 350.4 553.1 350.1Q553.4 349.8 553.6 349.4L553.6 349.4L556.4 349.6Q556.1 350.6 555.5 351.4Q554.8 352.1 553.8 352.5Q552.8 352.9 551.4 352.9ZM563.1 352.9L563.1 352.9Q561.4 352.9 560.2 352.2Q558.9 351.6 558.3 350.3Q557.6 349.0 557.6 347.3L557.6 347.3Q557.6 345.6 558.3 344.4Q558.9 343.1 560.1 342.4Q561.3 341.7 562.9 341.7L562.9 341.7Q564.0 341.7 564.9 342.0Q565.9 342.4 566.6 343.0Q567.3 343.7 567.7 344.8Q568.1 345.8 568.1 347.2L568.1 347.2L568.1 348.0L558.8 348.0L558.8 346.2L565.2 346.2Q565.2 345.5 564.9 345.0Q564.6 344.5 564.1 344.2Q563.6 343.9 563.0 343.9L563.0 343.9Q562.3 343.9 561.8 344.2Q561.2 344.6 560.9 345.1Q560.6 345.6 560.6 346.3L560.6 346.3L560.6 348.0Q560.6 348.9 560.9 349.4Q561.2 350.0 561.8 350.4Q562.3 350.7 563.1 350.7L563.1 350.7Q563.6 350.7 564.0 350.5Q564.4 350.4 564.7 350.1Q565.0 349.8 565.2 349.4L565.2 349.4L568.0 349.6Q567.8 350.6 567.1 351.4Q566.5 352.1 565.4 352.5Q564.4 352.9 563.1 352.9ZM572.7 352.7L569.7 352.7L569.7 341.8L572.6 341.8L572.6 343.7L572.8 343.7Q573.1 342.7 573.8 342.2Q574.5 341.7 575.4 341.7L575.4 341.7Q575.6 341.7 575.9 341.7Q576.1 341.7 576.3 341.8L576.3 341.8L576.3 344.4Q576.1 344.4 575.7 344.3Q575.4 344.3 575.1 344.3L575.1 344.3Q574.4 344.3 573.9 344.6Q573.3 344.9 573.0 345.4Q572.7 345.9 572.7 346.5L572.7 346.5L572.7 352.7ZM580.6 356.8L577.6 356.8L577.6 341.8L580.6 341.8L580.6 343.6L580.7 343.6Q580.9 343.2 581.3 342.7Q581.6 342.3 582.3 342.0Q582.9 341.7 583.8 341.7L583.8 341.7Q585.0 341.7 586.0 342.3Q587.0 342.9 587.6 344.2Q588.2 345.4 588.2 347.3L588.2 347.3Q588.2 349.1 587.6 350.4Q587.0 351.6 586.0 352.3Q585.0 352.9 583.8 352.9L583.8 352.9Q582.9 352.9 582.3 352.6Q581.7 352.3 581.3 351.9Q580.9 351.4 580.7 351.0L580.7 351.0L580.6 351.0L580.6 356.8ZM580.5 347.3L580.5 347.3Q580.5 348.2 580.8 349.0Q581.1 349.7 581.6 350.1Q582.1 350.5 582.8 350.5L582.8 350.5Q583.6 350.5 584.1 350.1Q584.6 349.7 584.9 348.9Q585.1 348.2 585.1 347.3L585.1 347.3Q585.1 346.3 584.9 345.6Q584.6 344.9 584.1 344.5Q583.6 344.1 582.8 344.1L582.8 344.1Q582.1 344.1 581.6 344.5Q581.1 344.9 580.8 345.6Q580.5 346.3 580.5 347.3ZM593.0 352.9L593.0 352.9Q592.0 352.9 591.1 352.6Q590.3 352.2 589.9 351.5Q589.4 350.8 589.4 349.7L589.4 349.7Q589.4 348.8 589.7 348.1Q590.1 347.5 590.6 347.2Q591.2 346.8 591.9 346.6Q592.7 346.4 593.5 346.3L593.5 346.3Q594.4 346.2 595.0 346.1Q595.6 346.0 595.9 345.9Q596.1 345.7 596.1 345.3L596.1 345.3L596.1 345.3Q596.1 344.6 595.7 344.2Q595.3 343.9 594.5 343.9L594.5 343.9Q593.7 343.9 593.2 344.2Q592.7 344.6 592.6 345.1L592.6 345.1L589.8 344.9Q590.0 343.9 590.6 343.2Q591.2 342.5 592.2 342.1Q593.2 341.7 594.5 341.7L594.5 341.7Q595.4 341.7 596.3 341.9Q597.1 342.1 597.7 342.5Q598.4 343.0 598.8 343.7Q599.2 344.4 599.2 345.4L599.2 345.4L599.2 352.7L596.3 352.7L596.3 351.2L596.2 351.2Q595.9 351.7 595.5 352.1Q595.1 352.5 594.4 352.7Q593.8 352.9 593.0 352.9ZM593.9 350.8L593.9 350.8Q594.5 350.8 595.1 350.6Q595.6 350.3 595.9 349.9Q596.1 349.4 596.1 348.8L596.1 348.8L596.1 347.7Q596.0 347.8 595.8 347.8Q595.5 347.9 595.2 348.0Q594.9 348.0 594.6 348.1Q594.3 348.1 594.0 348.2L594.0 348.2Q593.5 348.2 593.1 348.4Q592.7 348.6 592.5 348.9Q592.3 349.1 592.3 349.6L592.3 349.6Q592.3 350.2 592.7 350.5Q593.2 350.8 593.9 350.8ZM600.4 341.8L607.0 341.8L607.0 344.1L600.4 344.1L600.4 341.8ZM601.9 349.8L601.9 339.2L604.9 339.2L604.9 349.4Q604.9 349.8 605.1 350.0Q605.2 350.2 605.4 350.3Q605.6 350.4 606.0 350.4L606.0 350.4Q606.2 350.4 606.4 350.4Q606.6 350.4 606.7 350.3L606.7 350.3L607.2 352.6Q607.0 352.7 606.5 352.8Q606.1 352.8 605.5 352.9L605.5 352.9Q604.4 352.9 603.6 352.6Q602.8 352.2 602.4 351.5Q601.9 350.8 601.9 349.8L601.9 349.8ZM611.9 346.4L611.9 346.4L611.9 352.7L608.9 352.7L608.9 338.2L611.8 338.2L611.8 343.7L611.9 343.7Q612.3 342.8 613.1 342.2Q613.9 341.7 615.2 341.7L615.2 341.7Q616.3 341.7 617.2 342.2Q618.0 342.7 618.5 343.6Q619.0 344.5 619.0 345.8L619.0 345.8L619.0 352.7L615.9 352.7L615.9 346.3Q615.9 345.3 615.4 344.7Q614.9 344.2 614.0 344.2L614.0 344.2Q613.4 344.2 612.9 344.4Q612.4 344.7 612.2 345.2Q611.9 345.7 611.9 346.4ZM622.8 352.9L622.8 352.9Q622.1 352.9 621.6 352.4Q621.1 351.9 621.1 351.2L621.1 351.2Q621.1 350.5 621.6 350.0Q622.1 349.5 622.8 349.5L622.8 349.5Q623.5 349.5 624.0 350.0Q624.5 350.5 624.5 351.2L624.5 351.2Q624.5 351.7 624.3 352.1Q624.0 352.4 623.6 352.7Q623.3 352.9 622.8 352.9ZM629.7 356.8L626.7 356.8L626.7 341.8L629.6 341.8L629.6 343.6L629.8 343.6Q630.0 343.2 630.4 342.7Q630.7 342.3 631.3 342.0Q632.0 341.7 632.9 341.7L632.9 341.7Q634.1 341.7 635.1 342.3Q636.1 342.9 636.7 344.2Q637.3 345.4 637.3 347.3L637.3 347.3Q637.3 349.1 636.7 350.4Q636.1 351.6 635.1 352.3Q634.1 352.9 632.9 352.9L632.9 352.9Q632.0 352.9 631.4 352.6Q630.8 352.3 630.4 351.9Q630.0 351.4 629.8 351.0L629.8 351.0L629.7 351.0L629.7 356.8ZM629.6 347.3L629.6 347.3Q629.6 348.2 629.9 349.0Q630.2 349.7 630.7 350.1Q631.2 350.5 631.9 350.5L631.9 350.5Q632.7 350.5 633.2 350.1Q633.7 349.7 633.9 348.9Q634.2 348.2 634.2 347.3L634.2 347.3Q634.2 346.3 633.9 345.6Q633.7 344.9 633.2 344.5Q632.7 344.1 631.9 344.1L631.9 344.1Q631.2 344.1 630.7 344.5Q630.2 344.9 629.9 345.6Q629.6 346.3 629.6 347.3ZM642.1 352.9L642.1 352.9Q641.1 352.9 640.2 352.6Q639.4 352.2 638.9 351.5Q638.5 350.8 638.5 349.7L638.5 349.7Q638.5 348.8 638.8 348.1Q639.1 347.5 639.7 347.2Q640.3 346.8 641.0 346.6Q641.8 346.4 642.6 346.3L642.6 346.3Q643.5 346.2 644.1 346.1Q644.7 346.0 645.0 345.9Q645.2 345.7 645.2 345.3L645.2 345.3L645.2 345.3Q645.2 344.6 644.8 344.2Q644.4 343.9 643.6 343.9L643.6 343.9Q642.8 343.9 642.3 344.2Q641.8 344.6 641.7 345.1L641.7 345.1L638.9 344.9Q639.1 343.9 639.7 343.2Q640.3 342.5 641.3 342.1Q642.3 341.7 643.6 341.7L643.6 341.7Q644.5 341.7 645.4 341.9Q646.2 342.1 646.8 342.5Q647.5 343.0 647.9 343.7Q648.2 344.4 648.2 345.4L648.2 345.4L648.2 352.7L645.4 352.7L645.4 351.2L645.3 351.2Q645.0 351.7 644.6 352.1Q644.1 352.5 643.5 352.7Q642.9 352.9 642.1 352.9ZM643.0 350.8L643.0 350.8Q643.6 350.8 644.1 350.6Q644.7 350.3 644.9 349.9Q645.2 349.4 645.2 348.8L645.2 348.8L645.2 347.7Q645.1 347.8 644.8 347.8Q644.6 347.9 644.3 348.0Q644.0 348.0 643.7 348.1Q643.4 348.1 643.1 348.2L643.1 348.2Q642.6 348.2 642.2 348.4Q641.8 348.6 641.6 348.9Q641.4 349.1 641.4 349.6L641.4 349.6Q641.4 350.2 641.8 350.5Q642.3 350.8 643.0 350.8ZM655.2 357.0L655.2 357.0Q653.7 357.0 652.7 356.6Q651.6 356.2 651.0 355.5Q650.4 354.9 650.2 354.0L650.2 354.0L653.0 353.6Q653.1 353.9 653.4 354.2Q653.7 354.5 654.1 354.7Q654.6 354.9 655.3 354.9L655.3 354.9Q656.2 354.9 656.9 354.4Q657.5 353.9 657.5 352.8L657.5 352.8L657.5 350.8L657.4 350.8Q657.2 351.2 656.8 351.6Q656.4 352.1 655.8 352.3Q655.2 352.6 654.3 352.6L654.3 352.6Q653.1 352.6 652.1 352.0Q651.1 351.4 650.5 350.2Q649.9 349.1 649.9 347.2L649.9 347.2Q649.9 345.4 650.5 344.1Q651.1 342.9 652.1 342.3Q653.1 341.7 654.3 341.7L654.3 341.7Q655.2 341.7 655.8 342.0Q656.4 342.3 656.8 342.7Q657.2 343.2 657.4 343.6L657.4 343.6L657.5 343.6L657.5 341.8L660.5 341.8L660.5 352.8Q660.5 354.2 659.8 355.2Q659.2 356.1 658.0 356.6Q656.7 357.0 655.2 357.0ZM655.3 350.3L655.3 350.3Q656.0 350.3 656.5 349.9Q657.0 349.6 657.3 348.9Q657.5 348.2 657.5 347.2L657.5 347.2Q657.5 346.3 657.3 345.6Q657.0 344.9 656.5 344.5Q656.0 344.1 655.3 344.1L655.3 344.1Q654.5 344.1 654.0 344.5Q653.5 344.9 653.2 345.6Q653.0 346.3 653.0 347.2L653.0 347.2Q653.0 348.2 653.2 348.9Q653.5 349.5 654.0 349.9Q654.5 350.3 655.3 350.3ZM667.6 352.9L667.6 352.9Q665.9 352.9 664.7 352.2Q663.5 351.6 662.8 350.3Q662.2 349.0 662.2 347.3L662.2 347.3Q662.2 345.6 662.8 344.4Q663.5 343.1 664.7 342.4Q665.9 341.7 667.5 341.7L667.5 341.7Q668.5 341.7 669.5 342.0Q670.4 342.4 671.1 343.0Q671.8 343.7 672.2 344.8Q672.6 345.8 672.6 347.2L672.6 347.2L672.6 348.0L663.4 348.0L663.4 346.2L669.7 346.2Q669.7 345.5 669.5 345.0Q669.2 344.5 668.7 344.2Q668.2 343.9 667.5 343.9L667.5 343.9Q666.8 343.9 666.3 344.2Q665.8 344.6 665.5 345.1Q665.2 345.6 665.2 346.3L665.2 346.3L665.2 348.0Q665.2 348.9 665.5 349.4Q665.8 350.0 666.3 350.4Q666.9 350.7 667.6 350.7L667.6 350.7Q668.1 350.7 668.6 350.5Q669.0 350.4 669.3 350.1Q669.6 349.8 669.7 349.4L669.7 349.4L672.5 349.6Q672.3 350.6 671.7 351.4Q671.0 352.1 670.0 352.5Q668.9 352.9 667.6 352.9ZM683.3 344.9L683.3 344.9L680.6 345.1Q680.5 344.7 680.2 344.4Q680.0 344.2 679.6 344.0Q679.3 343.8 678.7 343.8L678.7 343.8Q678.0 343.8 677.5 344.1Q677.1 344.4 677.1 344.9L677.1 344.9Q677.1 345.3 677.4 345.6Q677.7 345.8 678.4 346.0L678.4 346.0L680.4 346.4Q682.0 346.7 682.8 347.4Q683.6 348.2 683.6 349.3L683.6 349.3Q683.6 350.4 682.9 351.2Q682.3 352.0 681.2 352.5Q680.1 352.9 678.7 352.9L678.7 352.9Q676.5 352.9 675.3 352.0Q674.0 351.1 673.8 349.6L673.8 349.6L676.7 349.4Q676.9 350.1 677.4 350.4Q677.9 350.8 678.7 350.8L678.7 350.8Q679.5 350.8 680.0 350.4Q680.5 350.1 680.5 349.6L680.5 349.6Q680.5 349.2 680.1 349.0Q679.8 348.7 679.1 348.6L679.1 348.6L677.2 348.2Q675.6 347.9 674.8 347.1Q674.1 346.3 674.1 345.1L674.1 345.1Q674.1 344.0 674.6 343.3Q675.2 342.5 676.2 342.1Q677.3 341.7 678.7 341.7L678.7 341.7Q680.7 341.7 681.9 342.5Q683.1 343.4 683.3 344.9ZM686.9 352.9L686.9 352.9Q686.2 352.9 685.7 352.4Q685.2 351.9 685.2 351.2L685.2 351.2Q685.2 350.5 685.7 350.0Q686.2 349.5 686.9 349.5L686.9 349.5Q687.6 349.5 688.1 350.0Q688.6 350.5 688.6 351.2L688.6 351.2Q688.6 351.7 688.4 352.1Q688.2 352.4 687.8 352.7Q687.4 352.9 686.9 352.9ZM694.8 352.9L694.8 352.9Q693.6 352.9 692.6 352.3Q691.6 351.6 691.0 350.4Q690.4 349.1 690.4 347.3L690.4 347.3Q690.4 345.4 691.0 344.2Q691.6 342.9 692.6 342.3Q693.6 341.7 694.8 341.7L694.8 341.7Q695.7 341.7 696.3 342.0Q697.0 342.3 697.3 342.7Q697.7 343.2 697.9 343.6L697.9 343.6L698.0 343.6L698.0 338.2L701.0 338.2L701.0 352.7L698.0 352.7L698.0 351.0L697.9 351.0Q697.7 351.4 697.3 351.9Q696.9 352.3 696.3 352.6Q695.7 352.9 694.8 352.9ZM695.8 350.5L695.8 350.5Q696.5 350.5 697.0 350.1Q697.5 349.7 697.8 349.0Q698.1 348.2 698.1 347.3L698.1 347.3Q698.1 346.3 697.8 345.6Q697.5 344.9 697.0 344.5Q696.5 344.1 695.8 344.1L695.8 344.1Q695.0 344.1 694.5 344.5Q694.0 344.9 693.7 345.6Q693.5 346.3 693.5 347.3L693.5 347.3Q693.5 348.2 693.7 348.9Q694.0 349.7 694.5 350.1Q695.0 350.5 695.8 350.5ZM708.2 352.9L708.2 352.9Q706.5 352.9 705.3 352.2Q704.0 351.6 703.4 350.3Q702.7 349.0 702.7 347.3L702.7 347.3Q702.7 345.6 703.4 344.4Q704.0 343.1 705.2 342.4Q706.4 341.7 708.0 341.7L708.0 341.7Q709.1 341.7 710.0 342.0Q711.0 342.4 711.7 343.0Q712.4 343.7 712.8 344.8Q713.2 345.8 713.2 347.2L713.2 347.2L713.2 348.0L703.9 348.0L703.9 346.2L710.3 346.2Q710.3 345.5 710.0 345.0Q709.7 344.5 709.2 344.2Q708.7 343.9 708.1 343.9L708.1 343.9Q707.4 343.9 706.9 344.2Q706.3 344.6 706.0 345.1Q705.7 345.6 705.7 346.3L705.7 346.3L705.7 348.0Q705.7 348.9 706.0 349.4Q706.3 350.0 706.9 350.4Q707.4 350.7 708.2 350.7L708.2 350.7Q708.7 350.7 709.1 350.5Q709.5 350.4 709.8 350.1Q710.1 349.8 710.3 349.4L710.3 349.4L713.1 349.6Q712.9 350.6 712.2 351.4Q711.6 352.1 710.5 352.5Q709.5 352.9 708.2 352.9ZM721.5 341.8L724.7 341.8L720.9 352.7L717.5 352.7L713.6 341.8L716.8 341.8L719.1 349.6L719.2 349.6L721.5 341.8Z "/><mask id="satori_om-id-2-1"><rect x="734" y="334" width="24" height="24" fill="#fff"/></mask><rect x="734" y="334" width="24" height="24" fill="black"/></svg>